<svg width="35" height="16" viewBox="0 0 35 16" fill="none" xmlns="http://www.w3.org/2000/svg">
<rect width="35" height="16" rx="8" fill="#4052EC"/>
<path d="M8 4H11.26C11.96 4 12.5 4.16 12.9 4.5C13.28 4.82 13.47 5.25 13.47 5.8C13.47 6.2 13.37 6.54 13.17 6.82C12.97 7.08 12.7 7.28 12.34 7.41C12.81 7.5 13.17 7.69 13.41 7.98C13.65 8.27 13.77 8.66 13.77 9.14C13.77 9.86 13.52 10.38 13.03 10.72C12.61 11 12.02 11.14 11.26 11.14H8V4ZM9.09 4.9V7.03H10.97C11.47 7.03 11.83 6.94 12.05 6.77C12.27 6.59 12.38 6.31 12.38 5.93C12.38 5.57 12.27 5.31 12.05 5.15C11.83 4.98 11.47 4.9 10.99 4.9H9.09ZM9.09 7.92V10.24H11.11C11.57 10.24 11.93 10.16 12.19 10.02C12.51 9.83 12.68 9.53 12.68 9.12C12.68 8.7 12.55 8.39 12.3 8.2C12.05 8.01 11.66 7.92 11.14 7.92H9.09Z" fill="white"/>
<path d="M16.9552 5.83C17.7952 5.83 18.4452 6.11 18.8852 6.69C19.2852 7.21 19.4952 7.93 19.5052 8.85H15.5852C15.6252 9.35 15.7552 9.74 15.9952 10.01C16.2352 10.27 16.5652 10.41 16.9852 10.41C17.3552 10.41 17.6552 10.32 17.8852 10.15C18.0652 10.01 18.2152 9.78 18.3552 9.48H19.4152C19.2952 9.96 19.0652 10.37 18.7052 10.69C18.2552 11.08 17.6852 11.28 16.9952 11.28C16.2352 11.28 15.6252 11.04 15.1852 10.57C14.7052 10.07 14.4652 9.4 14.4652 8.55C14.4652 7.78 14.6852 7.14 15.1452 6.62C15.5852 6.09 16.1952 5.83 16.9552 5.83ZM16.9852 6.7C16.5852 6.7 16.2752 6.81 16.0352 7.05C15.8152 7.28 15.6652 7.61 15.6052 8.05H18.3952C18.2952 7.15 17.8252 6.7 16.9852 6.7Z" fill="white"/>
<path d="M21.9798 4.3V5.97H23.1598V6.85H21.9798V9.85C21.9798 9.99 22.0098 10.09 22.0698 10.16C22.1298 10.22 22.2198 10.26 22.3498 10.26H23.0298V11.14H22.1798C21.7398 11.14 21.4098 11.02 21.2098 10.79C21.0098 10.57 20.9198 10.26 20.9198 9.85V6.85H19.9598V5.97H20.9198V4.74L21.9798 4.3Z" fill="white"/>
<path d="M26.3433 5.83C27.1033 5.83 27.6633 6.02 28.0233 6.4C28.3333 6.73 28.4933 7.21 28.4933 7.84V11.14H27.5133V10.41C27.3133 10.67 27.0633 10.88 26.7633 11.03C26.4233 11.19 26.0233 11.28 25.5633 11.28C25.0233 11.28 24.6033 11.14 24.3033 10.87C23.9733 10.6 23.8133 10.25 23.8133 9.82C23.8133 9.24 24.0433 8.79 24.5033 8.48C24.9233 8.18 25.5233 8.03 26.2833 8.01L27.4433 7.98V7.77C27.4433 7.05 27.0533 6.69 26.2733 6.69C25.9433 6.69 25.6733 6.75 25.4733 6.87C25.2333 7.01 25.0833 7.22 25.0233 7.51L23.9733 7.42C24.0833 6.86 24.3633 6.44 24.8033 6.18C25.1833 5.94 25.7033 5.83 26.3433 5.83ZM27.4433 8.75L26.3533 8.78C25.3833 8.8 24.9033 9.14 24.9033 9.78C24.9033 9.98 24.9833 10.14 25.1533 10.27C25.3133 10.4 25.5333 10.47 25.8033 10.47C26.2533 10.47 26.6333 10.33 26.9533 10.06C27.2733 9.79 27.4433 9.45 27.4433 9.05V8.75Z" fill="white"/>
</svg>
