<svg width="62" height="70" viewBox="0 0 62 70" fill="none" xmlns="http://www.w3.org/2000/svg">
    <path fill-rule="evenodd" clip-rule="evenodd" d="M12.9537 1.57098C12.0435 1.81015 11.2588 2.34921 10.7247 3.07366C11.0959 1.8171 12.1615 0.861121 13.4759 0.65286L12.9537 1.57098ZM13.7105 1.44549C13.8114 1.43818 13.9134 1.43446 14.0162 1.43446H15.5111L15.981 0.610493H14.1853L13.7105 1.44549ZM17.9928 1.43446H16.1969L16.6668 0.610493H18.4627L17.9928 1.43446ZM18.6786 1.43446H20.4744L20.9443 0.610493H19.1485L18.6786 1.43446ZM22.9562 1.43446H21.1602L21.6301 0.610493H23.4261L22.9562 1.43446ZM23.642 1.43446H25.4375L25.9061 0.610493H24.1119L23.642 1.43446ZM27.9192 1.43446H26.1228L26.5914 0.610493H28.3878L27.9192 1.43446ZM28.6045 1.43446H30.4009L30.8695 0.610493H29.0731L28.6045 1.43446ZM32.8805 1.43446H31.0863L31.5549 0.610493H33.3504L32.8805 1.43446ZM33.5663 1.43446H35.3623L35.8322 0.610493H34.0362L33.5663 1.43446ZM37.844 1.43446H36.0481L36.518 0.610493H38.3139L37.844 1.43446ZM38.5298 1.43446H40.3256L40.7955 0.610493H38.9997L38.5298 1.43446ZM42.8069 1.43446H41.0115L41.4813 0.610493H43.2755L42.8069 1.43446ZM43.4923 1.43446H45.2887L45.7573 0.610493H43.9608L43.4923 1.43446ZM47.7703 1.43446H45.974L46.4426 0.610493H47.8712C47.9919 0.610493 48.1112 0.616534 48.2288 0.628331L47.7703 1.43446ZM48.4348 1.4711C49.5992 1.6237 50.6141 2.24239 51.2638 3.12996C50.9152 1.98019 50.0018 1.07726 48.8468 0.746687L48.4348 1.4711ZM51.4166 33.5848V5.22293C51.3048 3.45198 49.7727 2.03182 47.8712 2.03182H14.0162C12.1761 2.03182 10.6934 3.40766 10.5834 5.12054V33.5848H22.0531C22.9155 33.5848 23.6152 34.2871 23.6152 35.1526V38.2344L23.905 38.6473L23.6152 38.8522V39.2395C23.6152 39.7011 23.9886 40.0758 24.4485 40.0758H37.6235C38.0834 40.0758 38.4569 39.7011 38.4569 39.2395V35.1526C38.4569 34.2871 39.1566 33.5848 40.019 33.5848H51.4166ZM22.8864 37.0965V38.6207L20.5154 40.297V38.6801L22.8864 37.0965ZM20.5154 42.1123V41.0438L22.8912 39.3641C22.9262 39.8097 23.147 40.2031 23.4759 40.4662L20.6087 42.5997C20.5485 42.449 20.5154 42.2844 20.5154 42.1123ZM20.9598 43.0985C21.1907 43.3029 21.4938 43.427 21.8254 43.427H40.2465C40.5985 43.427 40.9184 43.2871 41.1539 43.0598L38.4996 40.5375C38.2497 40.7078 37.9482 40.8073 37.6235 40.8073H24.4485C24.3264 40.8073 24.2076 40.7932 24.0935 40.7666L20.9598 43.0985ZM41.5564 42.1123C41.5564 42.2603 41.532 42.4026 41.4869 42.5355L38.9273 40.1032C39.0906 39.8555 39.1857 39.5586 39.1857 39.2395V39.058L41.5564 41.1363V42.1123ZM39.1857 38.2474L41.5564 40.3257V38.8607L39.1857 36.9547V38.2474ZM41.5564 37.6744V38.0785L39.1857 36.1725V35.1526C39.1857 35.068 39.1982 34.9864 39.2215 34.9095L41.776 36.7752C41.6358 37.0439 41.5564 37.3497 41.5564 37.6744ZM39.5991 34.4302L42.1394 36.2856C42.4881 35.9441 42.9649 35.7339 43.4899 35.7339H59.9419C60.7125 35.7339 61.2423 35.1041 61.2423 34.4216H61.2568V34.4214H61.2423C61.2423 34.3003 61.2257 34.1795 61.1896 34.062L61.2033 34.0578L61.2026 34.0556L61.2019 34.0531C61.1546 33.8905 61.0697 33.729 60.9408 33.5765L60.9402 33.5757L52.0249 22.9652V25.7177L53.0994 27.1151H53.158V27.1914L56.5527 31.6062C57.0815 32.1361 57.1324 32.8328 56.8237 33.3882C56.5186 33.9373 55.8854 34.3163 55.1128 34.3163H40.019C39.8659 34.3163 39.7224 34.3578 39.5991 34.4302ZM52.0249 26.915L52.1788 27.1151H52.0249V26.915ZM52.0249 28.4712V27.8755H52.7635L53.2215 28.4712H52.0249ZM52.0249 29.2316V29.8291H54.2657L53.8062 29.2316H52.0249ZM52.0249 31.1852V30.5895H54.8503L55.3084 31.1852H52.0249ZM52.0249 31.9456V32.5412H56.2729C56.2444 32.395 56.166 32.2483 56.0258 32.112L56.0069 32.0937L55.9909 32.0728L55.793 31.8155V31.9456H52.0249ZM52.0249 33.5848V33.3016H55.9604C55.7608 33.4679 55.473 33.5848 55.1128 33.5848H52.0249ZM22.8864 36.3632V35.1526C22.8864 35.0578 22.8706 34.9667 22.8416 34.8818L20.2311 36.5178C20.4108 36.7918 20.5154 37.1199 20.5154 37.4724V37.9467L22.8864 36.3632ZM22.4416 34.4127L19.8025 36.0667C19.5165 35.8574 19.1642 35.7339 18.7831 35.7339H2.05805C1.28711 35.7339 0.75766 35.1038 0.75766 34.424H0.743239L0.743239 34.4238H0.75766C0.75766 34.3001 0.774414 34.1813 0.811189 34.0671L0.79759 34.0627L0.79905 34.0581L0.800494 34.0532C0.848636 33.8878 0.931767 33.7258 1.05901 33.5772L1.05985 33.5762L9.97513 23.3377V25.1982L4.94847 31.6021C4.71336 31.835 4.51733 32.1137 4.39694 32.4074C4.27447 32.7062 4.21984 33.0484 4.32039 33.3753C4.42505 33.7157 4.67984 33.9809 5.05922 34.1411C5.42524 34.2958 5.90977 34.3558 6.51845 34.3163H22.0531C22.1933 34.3163 22.3256 34.3511 22.4416 34.4127ZM0.0144207 34.424L0.0144207 34.4238H0C0 34.2302 0.0263874 34.0316 0.090222 33.8333L0.103946 33.8378C0.18071 33.5792 0.312007 33.3269 0.507477 33.099L0.509267 33.0969L9.97513 22.2262V4.05562C9.97513 1.81471 11.7833 0 14.0162 0H47.8712C50.1662 0 52.0249 1.86507 52.0249 4.1662V21.8306L61.4967 33.1034L61.497 33.1037C61.6876 33.3294 61.8225 33.5794 61.8999 33.8427L61.9138 33.8384C61.9736 34.0334 62 34.23 62 34.4214H61.9856V34.4216H62V65.5209C62 67.9955 60.0026 70 57.5369 70H4.4631C1.99736 70 0 67.9955 0 65.5209V34.424H0.0144207ZM8.80139 27.8755L8.33383 28.4712H9.97513V27.8755H8.80139ZM7.26793 29.8291L7.73697 29.2316H9.97513V29.8291H7.26793ZM6.67107 30.5895L6.20351 31.1852H9.97513V30.5895H6.67107ZM5.50641 32.0733L5.60665 31.9456H9.97513V32.5412H5.14037C5.22236 32.3923 5.33627 32.2433 5.47374 32.1096L5.49129 32.0925L5.50641 32.0733ZM5.0964 33.3016C5.14725 33.36 5.22443 33.4173 5.342 33.467C5.56655 33.5619 5.92894 33.6226 6.48227 33.5856L6.49438 33.5848H6.50651H9.97513V33.3016H5.0964ZM9.39825 27.1151H9.97513V26.3802L9.39825 27.1151ZM59.9419 36.4943C60.4564 36.4943 60.9 36.3174 61.2423 36.0343V65.5209C61.2423 67.5755 59.5842 69.2396 57.5369 69.2396H4.4631C2.4158 69.2396 0.75766 67.5755 0.75766 65.5209V36.0344C1.09999 36.3174 1.54368 36.4943 2.05805 36.4943H18.7831C19.3213 36.4943 19.7578 36.9323 19.7578 37.4724V42.1123C19.7578 43.2575 20.6843 44.1874 21.8254 44.1874H40.2465C41.3875 44.1874 42.3141 43.2575 42.3141 42.1123V37.6744C42.3141 37.0216 42.8412 36.4943 43.4899 36.4943H59.9419ZM43.2217 10.8133H18.7785V10.2028H43.2217V10.8133ZM18.7785 18.9872H43.2217V18.3767H18.7785V18.9872ZM43.2217 27.1611H18.7785V26.5506H43.2217V27.1611Z" fill="#666666"/>
  </svg>