<svg width="16" height="16" viewBox="0 0 16 16" fill="none" xmlns="http://www.w3.org/2000/svg">
<g clip-path="url(#clip0_14445_86638)">
<path d="M15.75 7.25H14.625C14.5562 7.25 14.5 7.19375 14.5 7.125V4.91406C14.5 4.64844 14.3953 4.39375 14.2078 4.20625L10.2922 0.292188C10.1047 0.104688 9.85156 0 9.58594 0H2.25C1.83594 0 1.5 0.335938 1.5 0.75V7.125C1.5 7.19375 1.44375 7.25 1.375 7.25H0.25C0.1125 7.25 0 7.3625 0 7.5V13.75C0 13.8875 0.1125 14 0.25 14H1.5C1.5 14.5516 1.72344 15.0516 2.08594 15.4141C2.44844 15.7766 2.94844 16 3.5 16H13.75C14.1641 16 14.5 15.6641 14.5 15.25V14.25C14.5 14.1125 14.6125 14 14.75 14H15.75C15.8875 14 16 13.8875 16 13.75V7.5C16 7.3625 15.8875 7.25 15.75 7.25ZM11 2.41406L12.0859 3.5H11.0625C11.0281 3.5 11 3.47188 11 3.4375V2.41406ZM2.5 1.125C2.5 1.05625 2.55625 1 2.625 1H9C9.55156 1 10 1.44844 10 2V4.25C10 4.3875 10.1125 4.5 10.25 4.5H12.5C13.0516 4.5 13.5 4.94844 13.5 5.5V7.125C13.5 7.19375 13.4438 7.25 13.375 7.25H2.625C2.55625 7.25 2.5 7.19375 2.5 7.125V1.125ZM10.1922 10.5547C10.1922 11.0625 10.0438 11.475 9.74844 11.7906C9.45313 12.1078 9.06562 12.2656 8.5875 12.2656C8.12031 12.2656 7.74063 12.1125 7.44844 11.8062C7.15938 11.5 7.0125 11.1047 7.0125 10.6219C7.0125 10.1109 7.16094 9.69531 7.45937 9.375C7.75781 9.05469 8.15156 8.89375 8.64062 8.89375C9.10625 8.89375 9.48125 9.04844 9.76562 9.35938C10.05 9.66875 10.1922 10.0687 10.1922 10.5547ZM4.475 11.3875C4.73906 11.6047 5.03594 11.7141 5.37031 11.7141C5.55938 11.7141 5.70156 11.6813 5.79688 11.6156C5.89219 11.55 5.94063 11.4672 5.94063 11.3641C5.94063 11.275 5.90312 11.1922 5.82656 11.1141C5.75 11.0359 5.55156 10.9281 5.22656 10.7937C4.71719 10.5781 4.4625 10.2641 4.4625 9.85C4.4625 9.54688 4.57812 9.31094 4.80937 9.14375C5.04062 8.97656 5.34531 8.89219 5.72656 8.89219C6.04531 8.89219 6.3125 8.93438 6.52812 9.01562V9.66875C6.30937 9.52031 6.05313 9.44531 5.75938 9.44531C5.5875 9.44531 5.45156 9.47656 5.34844 9.53906C5.24531 9.60156 5.19531 9.68594 5.19531 9.79062C5.19531 9.875 5.22969 9.95312 5.3 10.0234C5.37031 10.0938 5.54375 10.1906 5.82031 10.3109C6.14375 10.45 6.36719 10.5969 6.48906 10.7516C6.61094 10.9062 6.67188 11.0891 6.67188 11.3031C6.67188 11.6156 6.56094 11.8547 6.33906 12.0188C6.11719 12.1828 5.80156 12.2656 5.39375 12.2656C5.02031 12.2656 4.71406 12.2047 4.47656 12.0844L4.475 11.3875ZM2.29375 11.5266C2.41406 11.6172 2.55156 11.6641 2.70625 11.6641C3.04062 11.6641 3.20781 11.4109 3.20781 10.9047V8.94844H3.90313V10.9297H3.90156C3.90156 11.3609 3.80156 11.6906 3.60313 11.9219C3.40469 12.15 3.12031 12.2656 2.75 12.2656C2.58594 12.2656 2.43281 12.2375 2.29375 12.1812V11.5266ZM13.5 14.875C13.5 14.9438 13.4438 15 13.375 15H3.5C2.94844 15 2.5 14.5516 2.5 14H13.375C13.4438 14 13.5 14.0562 13.5 14.125V14.875ZM13.6438 12.2094H12.9328L11.5516 10.1C11.4797 9.99063 11.4281 9.90156 11.3953 9.83438H11.3844C11.3969 9.94688 11.4031 10.1203 11.4031 10.3547V12.2094H10.7437V8.94844H11.5016L12.8313 10.9984C12.9203 11.1344 12.9734 11.2203 12.9937 11.2578H13.0047C12.9906 11.1797 12.9844 11.0297 12.9844 10.8078V8.94844H13.6438V12.2094Z" fill="#ED7847"/>
<path d="M9.46602 10.5968C9.46602 10.9234 9.39102 11.1828 9.23945 11.375C9.08789 11.5671 8.87539 11.664 8.60352 11.664C8.33633 11.664 8.12695 11.564 7.97383 11.3625C7.8207 11.1609 7.74414 10.9015 7.74414 10.5843C7.74414 10.2625 7.82227 10.0015 7.97852 9.79995C8.13633 9.59839 8.35039 9.49683 8.62227 9.49683C8.89102 9.49683 9.09883 9.59526 9.2457 9.79214C9.39258 9.98901 9.46602 10.2578 9.46602 10.5968Z" fill="#ED7847"/>
</g>
<defs>
<clipPath id="clip0_14445_86638">
<rect width="16" height="16" fill="white"/>
</clipPath>
</defs>
</svg>
