<svg viewBox="0 0 20 18" fill="none" xmlns="http://www.w3.org/2000/svg">
<path fill-rule="evenodd" clip-rule="evenodd" d="M14.2209 5.83347C13.9957 5.80846 13.7687 5.79166 13.5392 5.79166C10.1767 5.79166 7.52098 8.29504 7.52096 11.3797C7.52096 11.8927 7.60109 12.3872 7.73939 12.8592C7.52096 12.8764 7.30071 12.8873 7.07857 12.8873C6.33561 12.8873 5.7151 12.7603 5.01006 12.6159L5.01004 12.6159C4.87653 12.5885 4.74 12.5606 4.59902 12.5328L2.12444 13.7705L2.83244 11.6465C1.06034 10.4114 -0.00012207 8.81905 -0.00012207 6.87993C-0.00012207 3.52055 3.18738 0.875 7.07859 0.875C10.5591 0.875 13.6084 2.98866 14.2209 5.83347ZM10.6189 4.75839C10.6189 4.22708 10.2658 3.87732 9.73283 3.87732C9.20228 3.87732 8.66992 4.22705 8.66992 4.75839C8.66992 5.28759 9.20228 5.64221 9.73283 5.64221C10.2658 5.64221 10.6189 5.28759 10.6189 4.75839ZM4.77858 5.64221C4.2481 5.64221 3.71265 5.28759 3.71265 4.75839C3.71265 4.22708 4.24807 3.87732 4.77858 3.87732C5.30911 3.87732 5.66222 4.22708 5.66222 4.75839C5.66222 5.28759 5.30911 5.64221 4.77858 5.64221ZM13.9875 6.17102C17.1682 6.17102 20.0002 8.47202 20.0002 11.2949C20.0002 12.8873 18.9415 14.2972 17.5206 15.3605L18.053 17.125L16.1114 16.0645C15.4034 16.2415 14.6924 16.4188 13.9875 16.4188C10.6195 16.4188 7.9668 14.1226 7.9668 11.2949C7.9668 8.47202 10.6194 6.17102 13.9875 6.17102ZM12.0348 10.4114C11.6823 10.4114 11.3268 10.0616 11.3268 9.70489C11.3268 9.35308 11.6823 8.99878 12.0348 8.99878C12.5702 8.99878 12.9209 9.35308 12.9209 9.70489C12.9209 10.0616 12.5702 10.4114 12.0348 10.4114ZM15.2257 9.70489C15.2257 10.0616 15.5788 10.4114 15.9288 10.4114C16.4594 10.4114 16.8149 10.0616 16.8148 9.70489C16.8148 9.35308 16.4594 8.99878 15.9288 8.99878C15.5788 8.99878 15.2257 9.35308 15.2257 9.70489Z" fill="#0CB804"/>
</svg>
