<svg width="45" height="45" viewBox="0 0 45 45" fill="none" xmlns="http://www.w3.org/2000/svg">
<rect width="45" height="45" rx="5" fill="#6B2AF5"/>
<path d="M31.4 28.8804V20.4804C31.4 20.0349 31.223 19.6076 30.9079 19.2925C30.5929 18.9774 30.1656 18.8004 29.72 18.8004H24.0382C23.7262 18.8004 23.4203 18.7135 23.1549 18.5494C22.8895 18.3853 22.675 18.1505 22.5355 17.8714L21.7845 16.3695C21.645 16.0902 21.4304 15.8553 21.1648 15.6912C20.8992 15.5271 20.5931 15.4403 20.2809 15.4404H16.28C15.8344 15.4404 15.4071 15.6174 15.0921 15.9325C14.777 16.2476 14.6 16.6749 14.6 17.1204V28.8804C14.6 29.326 14.777 29.7533 15.0921 30.0684C15.4071 30.3834 15.8344 30.5604 16.28 30.5604H29.72C30.1656 30.5604 30.5929 30.3834 30.9079 30.0684C31.223 29.7533 31.4 29.326 31.4 28.8804Z" stroke="white" stroke-width="2" stroke-linecap="round" stroke-linejoin="round"/>
</svg>
