<svg width="45" height="45" viewBox="0 0 45 45" fill="none" xmlns="http://www.w3.org/2000/svg">
<rect width="45" height="45" rx="5" fill="#3A86FF"/>
<path d="M16.6258 29.5916L16.6111 29.593L14.8042 31.3996M23.1099 26.1646V26.1482L24.7657 24.4927M19.9152 22.9749V22.9585L21.5725 21.3014M29.4559 16.3395L31.1958 14.5996M29.4222 21.4936C30.1049 20.8082 30.4861 19.8962 30.4861 18.9257C30.4861 17.9559 30.1058 17.0413 29.4218 16.3575C28.7353 15.671 27.8228 15.2934 26.8532 15.2934C25.8833 15.2934 24.9686 15.6736 24.2846 16.3575L22.5108 18.1311V18.1475L27.6316 23.2677H27.648L29.4222 21.4936ZM15.6464 26.498C15.6464 25.5288 16.0243 24.6167 16.7107 23.9304L18.4845 22.1568H18.5009L23.6217 27.277L23.6217 27.2934L21.8483 29.0666L20.6701 29.8558L19.2786 30.1311C18.3094 30.1311 17.3974 29.7534 16.7111 29.0674L15.9218 27.8893L15.6464 26.498Z" stroke="white" stroke-width="2" stroke-linecap="round" stroke-linejoin="round"/>
</svg>
