<svg width="45" height="45" viewBox="0 0 45 45" fill="none" xmlns="http://www.w3.org/2000/svg">
<path d="M0 5C0 2.23858 2.23858 0 5 0H40C42.7614 0 45 2.23858 45 5V40C45 42.7614 42.7614 45 40 45H5C2.23858 45 0 42.7614 0 40V5Z" fill="#1361D7"/>
<path d="M10 16.0968H9.67496L9.75837 16.4109L13.1585 29.2174L13.2079 29.4032H13.4002H14.8491H15.0484L15.0928 29.209L17.204 19.9787L19.2804 29.2081L19.3243 29.4032H19.5243H20.9926H21.1849L21.2342 29.2174L24.6344 16.4109L24.7178 16.0968H24.3927H22.6927H22.4949L22.4494 16.2893L20.246 25.6098L18.1648 16.2923L18.1212 16.0968H17.9208H16.4719H16.2716L16.2279 16.2923L14.1467 25.6098L11.9434 16.2893L11.8979 16.0968H11.7001H10ZM25.1064 19.5422C25.1064 20.6954 25.499 21.5899 26.3388 22.2383C26.8448 22.6685 27.7168 23.0507 28.8934 23.4217C29.9771 23.7691 30.6618 24.0329 30.9622 24.2133C31.5146 24.5684 31.7908 25.0374 31.7908 25.6605C31.7908 26.3231 31.5841 26.7884 31.2069 27.0953C30.8203 27.4097 30.2152 27.5904 29.3555 27.5904C28.5438 27.5904 27.9802 27.4017 27.6188 27.068C27.2488 26.6766 26.9728 26.0211 26.8606 25.0377L26.8353 24.8161H26.6122H25.1053H24.8348L24.856 25.0857C24.9746 26.5926 25.402 27.7654 26.1715 28.5621C26.9455 29.3633 28.0321 29.75 29.3941 29.75C30.8398 29.75 31.9698 29.4075 32.7385 28.6852C33.51 27.9602 33.875 26.8928 33.875 25.5367C33.875 24.3519 33.4393 23.4117 32.5849 22.717L32.5843 22.7165C32.026 22.2658 31.141 21.8586 29.9357 21.4844C28.9303 21.1373 28.2634 20.8738 27.923 20.6677C27.4029 20.3334 27.1906 19.9362 27.1906 19.4927C27.1906 18.995 27.3712 18.6254 27.7291 18.3543L27.7374 18.348L27.7451 18.3411C28.0674 18.0519 28.5371 17.9096 29.2009 17.9096C29.954 17.9096 30.5021 18.0979 30.8657 18.437L30.8657 18.437L30.8693 18.4402C31.1931 18.7309 31.4308 19.2578 31.5626 20.0301L31.598 20.2381H31.809H33.3159H33.5924L33.5646 19.9629C33.4259 18.5909 33.0061 17.5295 32.2683 16.8116C31.5276 16.0909 30.501 15.75 29.2202 15.75C28.0521 15.75 27.061 16.0863 26.3107 16.7792C25.4985 17.4753 25.1064 18.389 25.1064 19.5422Z" fill="white" stroke="white" stroke-width="0.5"/>
</svg>
