<svg viewBox="0 0 30 30" fill="none" xmlns="http://www.w3.org/2000/svg">
<path d="M10.6058 16.0087C10.4087 16.1594 10.2116 16.3797 10.1536 16.6696C10.0725 17.0522 10.142 17.5391 10.5014 17.9217C10.9536 18.3739 11.6377 18.5014 11.9391 18.5246C12.7391 18.5826 13.5971 18.1768 14.2464 17.7362C14.5014 17.5623 14.9304 17.2029 15.3478 16.6464C14.4203 16.171 13.2609 15.6377 12.0319 15.6841C11.3826 15.7072 10.9304 15.8348 10.6058 16.0087ZM22.3623 18.1304C22.7681 17.1681 23 16.113 23 15C23 10.5942 19.4058 7 15 7C10.5942 7 7 10.5942 7 15C7 19.4058 10.5942 23 15 23C17.6667 23 20.0203 21.6899 21.4812 19.6841C20.1014 19.0116 17.8406 17.8754 16.4377 17.2029C15.7768 17.9681 14.7913 18.7217 13.6783 19.0464C12.9826 19.2551 12.3449 19.3362 11.6957 19.1971C11.0348 19.058 10.5594 18.7565 10.2812 18.4551C10.142 18.2928 9.97971 18.1072 9.85217 17.8638C9.86377 17.8754 9.86377 17.8986 9.86377 17.9101C9.86377 17.9101 9.7942 17.7942 9.74783 17.6087C9.72464 17.5159 9.70145 17.4232 9.68986 17.3304C9.67826 17.2609 9.67826 17.1913 9.68986 17.1333C9.67826 17.0174 9.68986 16.8899 9.71304 16.7623C9.78261 16.4377 9.91014 16.0783 10.2696 15.742C11.0348 14.9884 12.0667 14.9536 12.6 14.9536C13.3884 14.9652 14.7565 15.3014 15.9159 15.7188C16.2406 15.0348 16.4493 14.3159 16.5768 13.8174H11.7652V13.2957H14.2348V12.2522H11.2551V11.7188H14.2348V10.6754C14.2348 10.5362 14.2696 10.4203 14.4899 10.4203H15.6609V11.7188H18.8957V12.2406H15.6609V13.2841H18.2464C18.2464 13.2841 17.9797 14.7333 17.1797 16.1594C18.9768 16.7971 21.5159 17.7942 22.3623 18.1304Z" fill="#06B4FD"/>
</svg>
