<svg width="16" height="16" viewBox="0 0 16 16" fill="none" xmlns="http://www.w3.org/2000/svg">
<path fill-rule="evenodd" clip-rule="evenodd" d="M7.62249 6.92135L10.0958 4.47264C10.7961 3.7793 11.9315 3.7793 12.6318 4.47264C13.3321 5.16598 13.3321 6.2901 12.6318 6.98344L11.1471 8.45334C11.2239 8.51438 11.2982 8.58018 11.3695 8.65074C11.5424 8.82192 11.687 9.01049 11.8034 9.21076L13.3424 7.687C14.4352 6.6051 14.4352 4.85098 13.3424 3.76907C12.2496 2.68716 10.4779 2.68716 9.38514 3.76907L6.91186 6.21778C5.96895 7.15132 5.83965 8.58534 6.52394 9.65615L7.26334 8.92409C6.95573 8.26743 7.07545 7.46295 7.62249 6.92135Z" fill="#ED7847"/>
<path fill-rule="evenodd" clip-rule="evenodd" d="M8.94708 9.95814L6.07457 12.8021C5.40941 13.4607 4.33097 13.4607 3.66581 12.8021C3.00065 12.1436 3.00065 11.0758 3.66581 10.4173L5.50437 8.59699C5.37509 8.5077 5.25193 8.40595 5.13658 8.29175C5.00909 8.16553 4.89697 8.02986 4.80022 7.88701L2.95518 9.71372C1.89755 10.7608 1.89755 12.4586 2.95518 13.5057C4.01281 14.5528 5.72757 14.5528 6.7852 13.5057L9.65771 10.6617C10.5878 9.74081 10.7 8.3167 9.99406 7.27449L9.26092 8.00034C9.58682 8.6337 9.4822 9.42833 8.94708 9.95814Z" fill="#ED7847"/>
</svg>
