<svg width="28" height="20" viewBox="0 0 28 20" fill="none" xmlns="http://www.w3.org/2000/svg">
<path d="M6.454 3.562V5.396H1.008V6.376H6.454V8.518H2.072V9.456H3.15C3.374 10.212 3.738 10.926 4.242 11.57C4.788 12.27 5.432 12.9 6.16 13.446C4.648 14.342 2.828 15.042 0.7 15.546L1.274 16.442C3.5 15.84 5.404 15.042 7 14.034C7.7 14.482 8.484 14.888 9.338 15.252C10.416 15.7 11.564 16.092 12.768 16.414L13.356 15.532C12.222 15.252 11.158 14.93 10.164 14.552C9.324 14.216 8.554 13.838 7.854 13.446C9.338 12.326 10.472 10.982 11.256 9.414V8.518H7.49V6.376H12.992V5.396H7.49V3.562H6.454ZM6.986 12.9C6.37 12.48 5.81 11.99 5.32 11.43C4.788 10.856 4.396 10.198 4.144 9.456H10.122C9.394 10.8 8.344 11.948 6.986 12.9ZM22.806 3.604V5.06H20.062V5.97H22.806V7.608H19.558V8.56H27.202V7.608H23.8V5.97H26.67V5.06H23.8V3.604H22.806ZM19.334 10.352V11.29H24.486V14.804C24.486 15.182 24.29 15.378 23.898 15.378C23.352 15.378 22.778 15.35 22.176 15.322L22.4 16.302H24.262C25.074 16.302 25.494 15.882 25.494 15.056V11.29H27.216V10.352H25.494V9.274H24.486V10.352H19.334ZM16.338 16.274C17.136 16.274 17.542 15.854 17.542 15.014V11.038C18.046 10.828 18.536 10.604 19.012 10.352V9.316C18.536 9.568 18.046 9.806 17.542 10.03V7.216H18.998V6.25H17.542V3.744H16.548V6.25H14.826V7.216H16.548V10.422C15.932 10.646 15.316 10.828 14.672 10.982L14.924 11.99C15.456 11.822 16.002 11.64 16.548 11.444V14.762C16.548 15.168 16.352 15.378 15.988 15.378C15.638 15.378 15.274 15.35 14.896 15.308L15.106 16.274H16.338ZM20.79 11.948L19.978 12.438C20.692 13.292 21.252 14.062 21.672 14.762L22.47 14.202C22.078 13.558 21.518 12.802 20.79 11.948Z" fill="#999999"/>
</svg>
