<svg width="16" height="16" viewBox="0 0 16 16" fill="none" xmlns="http://www.w3.org/2000/svg">
<path d="M8.875 2.5C9.425 2.5 9.875 2.95 9.875 3.5V5.25C9.875 5.8 9.425 6.25 8.875 6.25H8.475V7H10.675C11.475 7 12.125 7.65 12.175 8.4V9.7H12.625C13.175 9.7 13.625 10.15 13.625 10.7V12.5C13.625 13.05 13.175 13.5 12.625 13.5H10.875C10.325 13.5 9.875 13.05 9.875 12.5V10.75C9.875 10.2 10.325 9.75 10.875 9.75H11.175V8.45C11.175 8.2 10.925 8 10.675 8H5.275C5.025 8 4.775 8.25 4.825 8.55V9.75H5.175C5.725 9.75 6.175 10.2 6.175 10.75V12.5C6.175 13.05 5.725 13.5 5.175 13.5H3.375C2.825 13.5 2.375 13.05 2.375 12.5V10.75C2.375 10.2 2.825 9.75 3.375 9.75H3.825V8.6C3.775 7.75 4.375 7.1 5.175 7H7.475V6.25H7.125C6.575 6.25 6.125 5.8 6.125 5.25V3.5C6.125 2.95 6.575 2.5 7.125 2.5H8.875Z" />
</svg>
