<svg width="16" height="17" viewBox="0 0 16 17" fill="none" xmlns="http://www.w3.org/2000/svg">
<path d="M2.66667 4.5C2.66667 3.96957 2.87738 3.46086 3.25245 3.08579C3.62753 2.71071 4.13623 2.5 4.66667 2.5H5.33333V3.83333H4.66667C4.48986 3.83333 4.32029 3.90357 4.19526 4.0286C4.07024 4.15362 4 4.32319 4 4.5V7.16667C4 7.6971 3.78929 8.20581 3.41421 8.58088C3.03914 8.95595 2.53043 9.16667 2 9.16667V7.83333C2.17681 7.83333 2.34638 7.7631 2.4714 7.63807C2.59643 7.51305 2.66667 7.34348 2.66667 7.16667V4.5Z" />
<path d="M4.00001 9.83333C4.00001 9.3029 3.7893 8.79419 3.41422 8.41912C3.03915 8.04405 2.53044 7.83333 2.00001 7.83333H1.33334V9.16667H2.00001C2.17682 9.16667 2.34639 9.2369 2.47141 9.36193C2.59644 9.48695 2.66668 9.65652 2.66668 9.83333V12.5C2.66668 13.0304 2.87739 13.5391 3.25246 13.9142C3.62754 14.2893 4.13624 14.5 4.66668 14.5V13.1667C4.48987 13.1667 4.3203 13.0964 4.19527 12.9714C4.07025 12.8464 4.00001 12.6768 4.00001 12.5V9.83333ZM13.3333 4.5C13.3333 3.96957 13.1226 3.46086 12.7476 3.08579C12.3725 2.71071 11.8638 2.5 11.3333 2.5H10.6667V3.83333H11.3333C11.5102 3.83333 11.6797 3.90357 11.8047 4.0286C11.9298 4.15362 12 4.32319 12 4.5V7.16667C12 7.6971 12.2107 8.20581 12.5858 8.58088C12.9609 8.95595 13.4696 9.16667 14 9.16667V7.83333C13.8232 7.83333 13.6536 7.7631 13.5286 7.63807C13.4036 7.51305 13.3333 7.34348 13.3333 7.16667V4.5Z" />
<path d="M12 9.83337C12 9.30294 12.2107 8.79423 12.5858 8.41916C12.9609 8.04409 13.4696 7.83337 14 7.83337H14.6667V9.16671H14C13.8232 9.16671 13.6536 9.23695 13.5286 9.36197C13.4036 9.48699 13.3333 9.65656 13.3333 9.83337V12.5C13.3333 13.0305 13.1226 13.5392 12.7476 13.9143C12.3725 14.2893 11.8638 14.5 11.3333 14.5V13.1667C11.5102 13.1667 11.6797 13.0965 11.8047 12.9714C11.9298 12.8464 12 12.6769 12 12.5V9.83337Z" />
</svg>
