<svg width="68" height="68" viewBox="0 0 68 68" fill="none" xmlns="http://www.w3.org/2000/svg">
<path fill-rule="evenodd" clip-rule="evenodd" d="M65.5 33.25C65.5 46.75 57.0744 58.2821 45.1949 62.8746C41.6443 64.2472 37.785 65 33.75 65C31.9915 65 30.2663 64.857 28.5856 64.5821L30.2844 61.6396C31.4204 61.7769 32.577 61.8475 33.75 61.8475C37.7232 61.8475 41.5071 61.0372 44.9455 59.5729L42.2457 23.8322C42.0291 20.9638 38.9766 19.2277 36.4005 20.5077L5.28022 35.9707C5.92862 42.8409 9.00748 49.0037 13.6478 53.5901L12.024 56.4027C6.8192 51.5167 3.26248 44.8957 2.27706 37.4629C2.09431 36.0846 2 34.6783 2 33.25C2 15.7149 16.2149 1.5 33.75 1.5C51.285 1.5 65.5 15.7149 65.5 33.25ZM19.3676 52.9551C19.416 53.2626 19.3369 53.5801 19.1428 53.8486L14.5337 60.224C14.3396 60.4925 14.0629 60.6671 13.7557 60.7175C13.4485 60.7679 13.1107 60.6941 12.8539 60.5084C12.597 60.3227 12.421 60.0251 12.3725 59.7176C12.3241 59.41 12.4032 59.0926 12.5973 58.8241L17.2064 52.4486C17.4005 52.1802 17.6772 52.0055 17.9844 51.9551C18.2916 51.9047 18.6294 51.9786 18.8862 52.1643C19.1431 52.35 19.3191 52.6476 19.3676 52.9551ZM24.1709 53.7288C24.728 54.0844 24.8926 54.8272 24.5366 55.3849L17.55 66.3299C17.194 66.8876 16.4509 67.051 15.8939 66.6954C15.3368 66.3398 15.1722 65.5969 15.5282 65.0392L22.5147 54.0943C22.8707 53.5366 23.6139 53.3732 24.1709 53.7288ZM28.765 58.7186C29.1087 58.1324 28.9133 57.4013 28.3432 57.0669C27.7732 56.7326 27.0396 56.9189 26.6958 57.5051L22.3613 64.8961C22.0175 65.4823 22.213 66.2135 22.7831 66.5478C23.3531 66.8821 24.0867 66.6958 24.4304 66.1096L28.765 58.7186ZM35.7768 39.6836C35.7768 42.5439 33.4581 44.8627 30.5978 44.8627C27.7374 44.8627 25.4187 42.5439 25.4187 39.6836C25.4187 36.8233 27.7374 34.5045 30.5978 34.5045C33.4581 34.5045 35.7768 36.8233 35.7768 39.6836Z" fill="#666666"/>
</svg>
