<svg width="44" height="43" viewBox="0 0 44 43" fill="none" xmlns="http://www.w3.org/2000/svg">
<g clip-path="url(#clip0_7174_84967)">
<path d="M29.1687 32.25C29.6439 32.25 30.0996 32.4388 30.4356 32.7748C30.7716 33.1108 30.9604 33.5665 30.9604 34.0417V41.2083C30.9603 41.6835 30.7715 42.1391 30.4355 42.4751C30.0995 42.811 29.6439 42.9997 29.1687 42.9997C28.6936 42.9997 28.2379 42.811 27.9019 42.4751C27.5659 42.1391 27.3771 41.6835 27.3771 41.2083V34.0417C27.3771 33.5665 27.5658 33.1108 27.9018 32.7748C28.2378 32.4388 28.6935 32.25 29.1687 32.25ZM12.861 19.0508C13.1968 19.3868 13.3855 19.8424 13.3855 20.3175C13.3855 20.7926 13.1968 21.2482 12.861 21.5842L5.96125 28.4857C5.36669 29.0804 4.89508 29.7864 4.57335 30.5633C4.25161 31.3403 4.08606 32.173 4.08615 33.0139C4.08632 34.7122 4.76113 36.3409 5.96215 37.5417C7.16317 38.7425 8.792 39.417 10.4903 39.4168C12.1887 39.4166 13.8174 38.7418 15.0181 37.5408L21.9178 30.6393C22.254 30.3033 22.7099 30.1147 23.1852 30.1149C23.6605 30.115 24.1162 30.304 24.4522 30.6402C24.7881 30.9764 24.9767 31.4323 24.9766 31.9075C24.9764 32.3828 24.7874 32.8385 24.4513 33.1745L17.5515 40.0742C15.6786 41.9471 13.1384 42.9993 10.4897 42.9993C7.84098 42.9993 5.30076 41.9471 3.42784 40.0742C1.55492 38.2013 0.502721 35.6611 0.502721 33.0124C0.502721 30.3636 1.55492 27.8234 3.42784 25.9505L10.3275 19.0508C10.6635 18.7149 11.1192 18.5262 11.5943 18.5262C12.0693 18.5262 12.525 18.7149 12.861 19.0508ZM36.5522 33.5167L41.6208 38.5853C41.9472 38.9232 42.1278 39.3758 42.1237 39.8456C42.1196 40.3154 41.9312 40.7647 41.599 41.0969C41.2668 41.4291 40.8174 41.6175 40.3476 41.6216C39.8779 41.6257 39.4253 41.4451 39.0874 41.1188L34.0188 36.0501C33.8476 35.8848 33.7111 35.6871 33.6172 35.4686C33.5233 35.25 33.4739 35.0149 33.4719 34.777C33.4698 34.5391 33.5151 34.3031 33.6052 34.083C33.6953 33.8628 33.8283 33.6627 33.9966 33.4945C34.1648 33.3263 34.3648 33.1932 34.585 33.1032C34.8052 33.0131 35.0411 32.9677 35.279 32.9698C35.5169 32.9719 35.752 33.0213 35.9706 33.1152C36.1892 33.2091 36.3869 33.3456 36.5522 33.5167ZM41.7104 26.875C42.1855 26.8751 42.6412 27.0639 42.9771 27.3999C43.3131 27.7359 43.5018 28.1915 43.5018 28.6667C43.5018 29.1418 43.3131 29.5975 42.9771 29.9335C42.6412 30.2695 42.1855 30.4583 41.7104 30.4583H34.5437C34.0686 30.4583 33.6129 30.2695 33.277 29.9335C32.9411 29.5975 32.7523 29.1418 32.7523 28.6667C32.7523 28.1915 32.9411 27.7359 33.277 27.3999C33.6129 27.0639 34.0686 26.8751 34.5437 26.875H41.7104ZM40.5763 2.92579C41.5037 3.85315 42.2393 4.9541 42.7412 6.16578C43.2431 7.37746 43.5015 8.67613 43.5015 9.98765C43.5015 11.2992 43.2431 12.5978 42.7412 13.8095C42.2393 15.0212 41.5037 16.1221 40.5763 17.0495L33.6766 23.9492C33.5113 24.1203 33.3136 24.2568 33.095 24.3507C32.8764 24.4446 32.6413 24.494 32.4034 24.4961C32.1655 24.4982 31.9296 24.4529 31.7094 24.3628C31.4892 24.2727 31.2891 24.1396 31.1209 23.9714C30.9527 23.8032 30.8197 23.6031 30.7296 23.383C30.6395 23.1628 30.5942 22.9268 30.5962 22.6889C30.5983 22.4511 30.6477 22.2159 30.7416 21.9974C30.8355 21.7788 30.972 21.5811 31.1431 21.4158L38.0428 14.5143C39.2436 13.3133 39.9181 11.6844 39.9179 9.98612C39.9178 8.28779 39.243 6.65909 38.0419 5.45831C36.8409 4.25753 35.2121 3.58304 33.5138 3.58321C31.8154 3.58337 30.1867 4.25819 28.986 5.45921L22.0863 12.3607C21.7501 12.6967 21.2942 12.8853 20.8189 12.8851C20.3436 12.885 19.8879 12.696 19.5519 12.3598C19.216 12.0236 19.0273 11.5677 19.0275 11.0925C19.0277 10.6172 19.2167 10.1615 19.5528 9.8255L26.4526 2.92579C27.3799 1.99839 28.4809 1.26273 29.6925 0.760823C30.9042 0.258914 32.2029 0.000584812 33.5144 0.000584812C34.8259 0.000584812 36.1246 0.258914 37.3363 0.760823C38.5479 1.26273 39.6489 1.99839 40.5763 2.92579ZM9.46038 12.5417C9.93551 12.5417 10.3912 12.7305 10.7271 13.0665C11.063 13.4025 11.2518 13.8582 11.2518 14.3333C11.2518 14.8085 11.063 15.2641 10.7271 15.6001C10.3912 15.9361 9.93551 16.1249 9.46038 16.125H2.29371C1.81858 16.1249 1.36293 15.9361 1.02699 15.6001C0.691046 15.2641 0.502319 14.8085 0.502319 14.3333C0.502319 13.8582 0.691046 13.4025 1.02699 13.0665C1.36293 12.7305 1.81858 12.5417 2.29371 12.5417H9.46038ZM6.09384 3.05838L11.1625 8.127C11.4888 8.46491 11.6694 8.91749 11.6653 9.38726C11.6613 9.85703 11.4728 10.3064 11.1406 10.6386C10.8084 10.9708 10.3591 11.1592 9.88931 11.1633C9.41954 11.1674 8.96696 10.9868 8.62905 10.6604L3.56042 5.59C3.3893 5.42472 3.2528 5.22702 3.15891 5.00843C3.06501 4.78984 3.01558 4.55474 3.01351 4.31684C3.01145 4.07895 3.05678 3.84302 3.14686 3.62283C3.23695 3.40264 3.36999 3.2026 3.53821 3.03437C3.70644 2.86615 3.90648 2.73311 4.12667 2.64303C4.34686 2.55294 4.58278 2.50761 4.82068 2.50968C5.05858 2.51174 5.29368 2.56117 5.51227 2.65507C5.73086 2.74897 5.92856 2.88546 6.09384 3.05658V3.05838ZM14.8354 0C15.3106 0 15.7663 0.188764 16.1023 0.524767C16.4383 0.86077 16.627 1.31649 16.627 1.79167V8.95833C16.627 9.43351 16.4383 9.88923 16.1023 10.2252C15.7663 10.5612 15.3106 10.75 14.8354 10.75C14.3602 10.75 13.9045 10.5612 13.5685 10.2252C13.2325 9.88923 13.0437 9.43351 13.0437 8.95833V1.79167C13.0437 1.31649 13.2325 0.86077 13.5685 0.524767C13.9045 0.188764 14.3602 0 14.8354 0V0Z" fill="#666666"/>
</g>
<defs>
<clipPath id="clip0_7174_84967">
<rect width="43" height="43" fill="white" transform="translate(0.5)"/>
</clipPath>
</defs>
</svg>
