<svg viewBox="0 0 12 12" fill="none" xmlns="http://www.w3.org/2000/svg">
<path d="M6 0.75C3.10537 0.75 0.75 3.10501 0.75 6C0.75 8.89499 3.10501 11.25 6 11.25C8.89463 11.25 11.25 8.89499 11.25 6C11.25 3.10501 8.89499 0.75 6 0.75ZM8.14163 7.617C8.28788 7.764 8.28749 8.001 8.14088 8.14725C8.06777 8.22 7.97213 8.25675 7.87614 8.25675C7.77976 8.25675 7.68377 8.22 7.61063 8.14651L5.99813 6.52912L4.38038 8.12963C4.30726 8.20164 4.21199 8.23801 4.11675 8.23801C4.02 8.23801 3.92363 8.20087 3.85013 8.12663C3.70462 7.97925 3.70575 7.74225 3.85313 7.59638L5.469 5.99813L3.85912 4.383C3.71287 4.23637 3.71325 3.999 3.85986 3.85275C4.0065 3.70611 4.24348 3.70688 4.39012 3.85349L6.00224 5.47049L7.61998 3.87C7.76698 3.72414 8.00473 3.72563 8.15024 3.87301C8.2961 4.02039 8.29461 4.25775 8.14723 4.40326L6.53138 6.00149L8.14163 7.617Z" />
</svg>
