<svg width="16" height="16" viewBox="0 0 16 16" xmlns="http://www.w3.org/2000/svg">
<path fill-rule="evenodd" clip-rule="evenodd" d="M2.04691 13.2461C1.85165 13.0509 1.85165 12.7343 2.04691 12.539L8.53981 6.04613C8.73507 5.85087 9.05165 5.85087 9.24691 6.04613C9.44217 6.24139 9.44217 6.55798 9.24691 6.75324L2.75402 13.2461C2.55876 13.4414 2.24217 13.4414 2.04691 13.2461Z" />
<path fill-rule="evenodd" clip-rule="evenodd" d="M10.0469 5.24613C9.85165 5.05087 9.85165 4.73429 10.0469 4.53902L10.9398 3.64613C11.1351 3.45087 11.4517 3.45087 11.6469 3.64613C11.8422 3.84139 11.8422 4.15798 11.6469 4.35324L10.754 5.24613C10.5588 5.44139 10.2422 5.44139 10.0469 5.24613Z" />
<path fill-rule="evenodd" clip-rule="evenodd" d="M11.2002 8.29883C11.2002 8.02269 11.4241 7.79883 11.7002 7.79883H13.1002C13.3763 7.79883 13.6002 8.02269 13.6002 8.29883C13.6002 8.57497 13.3763 8.79883 13.1002 8.79883H11.7002C11.4241 8.79883 11.2002 8.57497 11.2002 8.29883Z" />
<path fill-rule="evenodd" clip-rule="evenodd" d="M12.5 7.19922C12.7761 7.19922 13 7.42308 13 7.69922L13 9.09922C13 9.37536 12.7761 9.59922 12.5 9.59922C12.2239 9.59922 12 9.37536 12 9.09922L12 7.69922C12 7.42308 12.2239 7.19922 12.5 7.19922Z" />
<path fill-rule="evenodd" clip-rule="evenodd" d="M3.2002 5.09961C3.2002 4.82347 3.42405 4.59961 3.7002 4.59961H5.1002C5.37634 4.59961 5.6002 4.82347 5.6002 5.09961C5.6002 5.37575 5.37634 5.59961 5.1002 5.59961H3.7002C3.42405 5.59961 3.2002 5.37575 3.2002 5.09961Z" />
<path fill-rule="evenodd" clip-rule="evenodd" d="M4.5 4C4.77614 4 5 4.22386 5 4.5L5 5.9C5 6.17614 4.77614 6.4 4.5 6.4C4.22386 6.4 4 6.17614 4 5.9L4 4.5C4 4.22386 4.22386 4 4.5 4Z" />
<path fill-rule="evenodd" clip-rule="evenodd" d="M7.2002 2.69922C7.2002 2.42308 7.42405 2.19922 7.7002 2.19922H9.1002C9.37634 2.19922 9.6002 2.42308 9.6002 2.69922C9.6002 2.97536 9.37634 3.19922 9.1002 3.19922H7.7002C7.42405 3.19922 7.2002 2.97536 7.2002 2.69922Z" />
<path fill-rule="evenodd" clip-rule="evenodd" d="M8.5 1.59961C8.77614 1.59961 9 1.82347 9 2.09961L9 3.49961C9 3.77575 8.77614 3.99961 8.5 3.99961C8.22386 3.99961 8 3.77575 8 3.49961L8 2.09961C8 1.82347 8.22386 1.59961 8.5 1.59961Z" />
</svg>
