<svg width="33" height="22" viewBox="0 0 33 22" fill="none" xmlns="http://www.w3.org/2000/svg">
<rect y="0.5" width="33" height="21" rx="3" fill="#F1F5FF"/>
<path d="M4.744 6.764V15.5H5.644V14.48C6.064 15.272 6.748 15.668 7.708 15.668C8.608 15.668 9.316 15.332 9.832 14.684C10.288 14.084 10.528 13.316 10.528 12.38C10.528 11.468 10.288 10.724 9.832 10.124C9.328 9.452 8.632 9.128 7.756 9.128C6.868 9.128 6.184 9.56 5.704 10.436V6.764H4.744ZM7.552 9.92C8.224 9.92 8.728 10.16 9.076 10.64C9.388 11.06 9.544 11.636 9.544 12.38C9.544 13.124 9.388 13.712 9.1 14.144C8.764 14.624 8.26 14.876 7.588 14.876C6.964 14.876 6.472 14.636 6.136 14.156C5.824 13.724 5.668 13.16 5.668 12.464V12.344C5.668 11.624 5.836 11.036 6.196 10.592C6.532 10.136 6.988 9.92 7.552 9.92ZM14.3313 9.128C13.4313 9.128 12.7233 9.452 12.1953 10.1C11.6673 10.712 11.4153 11.48 11.4153 12.392C11.4153 13.4 11.6793 14.192 12.2313 14.792C12.7593 15.368 13.4793 15.668 14.3673 15.668C15.1713 15.668 15.8313 15.428 16.3473 14.972C16.7673 14.588 17.0433 14.108 17.1873 13.508H16.2273C16.0713 13.94 15.8673 14.264 15.6033 14.48C15.2913 14.732 14.8713 14.864 14.3673 14.864C13.7793 14.864 13.3113 14.672 12.9753 14.288C12.6393 13.904 12.4593 13.364 12.4113 12.668H17.3073C17.2833 11.588 17.0433 10.736 16.5873 10.136C16.0833 9.464 15.3273 9.128 14.3313 9.128ZM14.3553 9.932C15.5313 9.932 16.1913 10.592 16.3113 11.924H12.4353C12.4953 11.312 12.6873 10.832 13.0233 10.472C13.3593 10.112 13.8033 9.932 14.3553 9.932ZM20.0875 7.292L19.1395 7.688V9.296H17.8915V10.1H19.1395V14.048C19.1395 14.516 19.2355 14.864 19.4395 15.104C19.6555 15.368 20.0275 15.5 20.5315 15.5H21.4675V14.696H20.6755C20.4595 14.696 20.3035 14.636 20.2195 14.54C20.1235 14.444 20.0875 14.276 20.0875 14.048V10.1H21.6235V9.296H20.0875V7.292ZM25.3971 9.128C24.6531 9.128 24.0651 9.272 23.6091 9.56C23.1051 9.872 22.7811 10.364 22.6491 11.012L23.5971 11.084C23.6931 10.688 23.8971 10.388 24.2211 10.196C24.5091 10.004 24.8811 9.92 25.3371 9.92C26.4171 9.92 26.9571 10.436 26.9571 11.48V11.804L25.4691 11.828C24.5331 11.84 23.8131 12.02 23.3091 12.356C22.7331 12.716 22.4571 13.244 22.4571 13.952C22.4571 14.456 22.6491 14.876 23.0331 15.2C23.4051 15.512 23.8971 15.668 24.5211 15.668C25.0971 15.668 25.6131 15.536 26.0691 15.284C26.4531 15.068 26.7771 14.792 27.0171 14.456V15.5H27.9171V11.516C27.9171 10.796 27.7251 10.232 27.3651 9.824C26.9331 9.356 26.2851 9.128 25.3971 9.128ZM26.9571 12.524V13.052C26.9571 13.532 26.7291 13.964 26.2851 14.336C25.8291 14.72 25.3131 14.912 24.7251 14.912C24.3411 14.912 24.0291 14.816 23.7891 14.636C23.5491 14.444 23.4411 14.216 23.4411 13.928C23.4411 13.028 24.1371 12.572 25.5291 12.548L26.9571 12.524Z" fill="#5D88F1"/>
</svg>
