<svg width="12" height="12" viewBox="0 0 12 12" fill="none" xmlns="http://www.w3.org/2000/svg">
<g clip-path="url(#clip0_12774_34711)">
<path d="M3 1H9C9.3 1 9.5 0.8 9.5 0.5C9.5 0.2 9.3 0 9 0H3C2.7 0 2.5 0.2 2.5 0.5C2.5 0.8 2.7 1 3 1ZM10.5 4H1.5C0.9 4 0.5 4.4 0.5 5V11C0.5 11.6 0.9 12 1.5 12H10.5C11.1 12 11.5 11.6 11.5 11V5C11.5 4.4 11.1 4 10.5 4ZM10.5 11H1.5V5H10.5V11ZM2 3H10C10.3 3 10.5 2.8 10.5 2.5C10.5 2.2 10.3 2 10 2H2C1.7 2 1.5 2.2 1.5 2.5C1.5 2.8 1.7 3 2 3Z" />
</g>
<defs>
<clipPath id="clip0_12774_34711">
<rect width="12" height="12" />
</clipPath>
</defs>
</svg>
