<svg width="20" height="21" viewBox="0 0 20 21" fill="none" xmlns="http://www.w3.org/2000/svg">
<path d="M4.62305 2.3916C3.2168 2.3916 2.07422 3.53418 2.07422 4.94043C2.07422 6.12793 2.88672 7.12598 3.98633 7.40918V17.6143C3.98633 17.9639 4.27344 18.251 4.62305 18.251C4.97266 18.251 5.25977 17.9639 5.25977 17.6143V7.41113C6.35938 7.12793 7.17188 6.12988 7.17188 4.94238C7.17188 3.53418 6.03125 2.3916 4.62305 2.3916ZM5.25977 6.04395C5.07227 6.15137 4.85352 6.21582 4.62305 6.21582C4.39062 6.21582 4.17383 6.15332 3.98633 6.04395C3.60547 5.82324 3.34961 5.41113 3.34961 4.94043C3.34961 4.46973 3.60547 4.05957 3.98633 3.83691C4.17383 3.72949 4.39258 3.66504 4.62305 3.66504C4.85547 3.66504 5.07227 3.72754 5.25977 3.83691C5.64062 4.05762 5.89648 4.46973 5.89648 4.94043C5.89844 5.41113 5.64062 5.82324 5.25977 6.04395ZM10.6426 7.87012V3.0459C10.6426 2.69629 10.3555 2.40918 10.0059 2.40918C9.65625 2.40918 9.36914 2.69629 9.36914 3.0459V7.87012C8.26953 8.15332 7.45703 9.15137 7.45703 10.3389C7.45703 11.5264 8.26953 12.5244 9.36914 12.8076V17.6318C9.36914 17.9814 9.65625 18.2686 10.0059 18.2686C10.3555 18.2686 10.6426 17.9814 10.6426 17.6318V12.8076C11.7422 12.5244 12.5547 11.5264 12.5547 10.3389C12.5527 9.15137 11.7402 8.15332 10.6426 7.87012ZM10.6426 11.4424C10.4551 11.5498 10.2363 11.6143 10.0059 11.6143C9.77344 11.6143 9.55664 11.5518 9.36914 11.4424C8.98828 11.2217 8.73242 10.8096 8.73242 10.3389C8.73242 9.86816 8.98828 9.45801 9.36914 9.23535C9.55664 9.12793 9.77539 9.06348 10.0059 9.06348C10.2383 9.06348 10.4551 9.12598 10.6426 9.23535C11.0234 9.45605 11.2793 9.86816 11.2793 10.3389C11.2793 10.8115 11.0215 11.2217 10.6426 11.4424ZM16.0234 13.2334V3.03027C16.0234 2.68066 15.7363 2.39355 15.3867 2.39355C15.0371 2.39355 14.75 2.68066 14.75 3.03027V13.2354C13.6504 13.5186 12.8379 14.5166 12.8379 15.7041C12.8379 17.1104 13.9805 18.2529 15.3867 18.2529C16.793 18.2529 17.9355 17.1104 17.9355 15.7041C17.9355 14.5146 17.1211 13.5166 16.0234 13.2334ZM16.0234 16.8057C15.8359 16.9131 15.6172 16.9775 15.3867 16.9775C15.1543 16.9775 14.9375 16.915 14.75 16.8057C14.3691 16.585 14.1133 16.1729 14.1133 15.7021C14.1133 15.2314 14.3691 14.8213 14.75 14.5986C14.9375 14.4912 15.1562 14.4268 15.3867 14.4268C15.6191 14.4268 15.8359 14.4893 16.0234 14.5986C16.4043 14.8193 16.6602 15.2314 16.6602 15.7021C16.6602 16.1748 16.4043 16.585 16.0234 16.8057Z" fill="#4052EC"/>
</svg>
