<svg width="16" height="16" viewBox="0 0 16 16" fill="none" xmlns="http://www.w3.org/2000/svg">
<path d="M7.99998 14.9016C6.16998 14.9016 4.41494 14.1746 3.12094 12.8806C1.82694 11.5866 1.09998 9.83156 1.09998 8.00156C1.09998 6.17157 1.82694 4.41653 3.12094 3.12253C4.41494 1.82852 6.16998 1.10156 7.99998 1.10156C9.82997 1.10156 11.585 1.82852 12.879 3.12253C14.173 4.41653 14.9 6.17157 14.9 8.00156C14.9 9.83156 14.173 11.5866 12.879 12.8806C11.585 14.1746 9.82997 14.9016 7.99998 14.9016ZM7.99998 13.9016C9.56475 13.9016 11.0654 13.28 12.1719 12.1735C13.2784 11.067 13.9 9.56634 13.9 8.00156C13.9 6.43679 13.2784 4.9361 12.1719 3.82963C11.0654 2.72317 9.56475 2.10156 7.99998 2.10156C6.4352 2.10156 4.93451 2.72317 3.82805 3.82963C2.72158 4.9361 2.09998 6.43679 2.09998 8.00156C2.09998 9.56634 2.72158 11.067 3.82805 12.1735C4.93451 13.28 6.4352 13.9016 7.99998 13.9016Z" />
<path d="M2.84637 3.55486L3.55357 2.84766L13.1536 12.4477L12.4464 13.1549L2.84637 3.55486Z" />
</svg>
