<svg width="16" height="14" viewBox="0 0 16 14"  xmlns="http://www.w3.org/2000/svg">
<path fill-rule="evenodd" clip-rule="evenodd" d="M3.84094 4.95599C3.90833 5.22378 3.74586 5.4955 3.47807 5.56288C2.96571 5.69181 2.51806 6.0034 2.21923 6.4391C1.9204 6.8748 1.79095 7.40463 1.85522 7.92904C1.91948 8.45345 2.17302 8.93635 2.56822 9.287C2.96324 9.63751 3.47261 9.83177 4.0007 9.83333H4.66672C4.94287 9.83333 5.16672 10.0572 5.16672 10.3333C5.16672 10.6095 4.94287 10.8333 4.66672 10.8333H4.00006L3.99873 10.8333C3.22671 10.8313 2.48199 10.5474 1.90452 10.035C1.32704 9.52261 0.956544 8.81697 0.862641 8.05067C0.768737 7.28438 0.957888 6.51016 1.39456 5.87349C1.83122 5.23682 2.48535 4.78151 3.23404 4.59312C3.50184 4.52573 3.77356 4.68819 3.84094 4.95599Z" />
<path fill-rule="evenodd" clip-rule="evenodd" d="M6.24659 0.558115C7.28675 0.367347 8.36054 0.579228 9.25028 1.15081C10.14 1.72239 10.7791 2.61089 11.0381 3.63622C11.1057 3.90395 10.9434 4.17581 10.6757 4.24342C10.408 4.31104 10.1361 4.1488 10.0685 3.88107C9.87171 3.10182 9.38598 2.42656 8.70978 1.99216C8.03358 1.55776 7.2175 1.39673 6.42698 1.54171C5.63645 1.68669 4.93063 2.12684 4.45259 2.77293C3.97772 3.41474 3.76292 4.21208 3.85082 5.00522L3.85185 5.01072C3.85447 5.02442 3.85859 5.0453 3.86422 5.07178C3.87554 5.12504 3.89261 5.19936 3.91533 5.28244C3.96412 5.46089 4.02652 5.6326 4.09042 5.73467C4.23694 5.96874 4.16598 6.27726 3.93192 6.42378C3.69785 6.57031 3.38933 6.49934 3.2428 6.26528C3.09803 6.03402 3.00511 5.74506 2.95073 5.54617C2.92186 5.44059 2.90039 5.34708 2.88607 5.27967C2.87887 5.24582 2.8734 5.21816 2.86962 5.1984L2.86521 5.17479L2.86395 5.16776L2.86368 5.16625L2.8634 5.16469C2.86179 5.15542 2.86036 5.14562 2.85927 5.13622C2.7375 4.08574 3.01971 3.02826 3.64871 2.17814C4.27771 1.32802 5.20642 0.748882 6.24659 0.558115Z" />
<path fill-rule="evenodd" clip-rule="evenodd" d="M10.4366 3.27243C10.963 3.14613 11.5101 3.13274 12.042 3.23314C12.5739 3.33354 13.0785 3.54545 13.5227 3.85493C13.9668 4.1644 14.3403 4.56442 14.6186 5.02866C14.897 5.4929 15.0739 6.01082 15.1377 6.54835C15.2014 7.08588 15.1506 7.63082 14.9886 8.1473C14.8266 8.66378 14.5571 9.14009 14.1977 9.54489C13.8383 9.94968 13.3973 10.2738 12.9037 10.4959C12.41 10.7179 11.8749 10.8329 11.3336 10.8333C11.0575 10.8335 10.8335 10.6098 10.8333 10.3336C10.8331 10.0575 11.0568 9.83348 11.333 9.83329C11.733 9.83302 12.1285 9.74802 12.4934 9.58388C12.8583 9.41974 13.1842 9.18019 13.4499 8.88099C13.7155 8.5818 13.9147 8.22974 14.0345 7.84799C14.1542 7.46624 14.1918 7.06346 14.1446 6.66616C14.0975 6.26886 13.9667 5.88604 13.761 5.54291C13.5553 5.19978 13.2792 4.90411 12.9509 4.67537C12.6227 4.44663 12.2497 4.29 11.8566 4.21579C11.4658 4.14203 11.0639 4.15136 10.677 4.24314L9.79794 4.48241C9.53149 4.55493 9.2567 4.39772 9.18418 4.13127C9.11166 3.86482 9.26887 3.59003 9.53532 3.51751L10.422 3.27618L10.4366 3.27243Z" />
<path fill-rule="evenodd" clip-rule="evenodd" d="M8.31241 13.7237C8.1298 13.8698 7.87033 13.8698 7.68772 13.7237L6.02105 12.3904C5.80542 12.2178 5.77046 11.9032 5.94296 11.6876C6.11547 11.4719 6.43011 11.437 6.64574 11.6095L8.00006 12.6929L9.35438 11.6095C9.57001 11.437 9.88466 11.4719 10.0572 11.6876C10.2297 11.9032 10.1947 12.2178 9.97908 12.3904L8.31241 13.7237Z" fill="white"/>
<path fill-rule="evenodd" clip-rule="evenodd" d="M8 13C7.72386 13 7.5 12.7761 7.5 12.5V7.5C7.5 7.22386 7.72386 7 8 7C8.27614 7 8.5 7.22386 8.5 7.5V12.5C8.5 12.7761 8.27614 13 8 13Z" />
</svg>
