<svg viewBox="0 0 12 12" xmlns="http://www.w3.org/2000/svg">
<path d="M11.9994 4.79277C11.9675 3.2794 11.3135 2.70289 10.7551 2.50471C10.1968 2.30654 9.03233 2.57677 8.39425 2.72091C7.75616 2.86505 5.61861 2.77496 4.67745 2.25249C3.73629 1.73001 2.10919 2.18043 2.10919 2.18043C2.10919 2.18043 -0.538854 3.08122 0.0992275 6.10796C1.12015 9.54904 5.50696 9.1527 8.15497 8.72029C10.803 8.28789 12.0313 6.30614 11.9994 4.79277ZM11.1938 5.71161C10.8189 6.7025 9.58267 7.72043 7.33345 8.01767C5.08423 8.31491 4.02342 8.01767 3.76818 7.90957C3.51295 7.80147 1.1361 7.21595 1.0723 5.19813C1.12015 4.20724 1.4392 3.85594 1.4392 3.85594C1.4392 3.85594 1.92573 2.75695 2.8031 2.96413C3.68047 3.17131 5.31554 3.87395 5.9616 4.01807C6.60765 4.1622 8.30653 4.08115 8.92069 3.80187C9.53485 3.5226 10.3883 3.43253 10.8589 3.82889C11.3294 4.22525 11.5687 4.7207 11.1938 5.71157L11.1938 5.71161Z" />
<path d="M3.23501 5.50781H3.73553C3.97309 5.50781 4.14084 5.51084 4.23877 5.54414C4.33669 5.57747 4.38565 5.67449 4.38565 5.7806V6.37846C4.38565 6.4609 4.34303 6.52665 4.2578 6.57578C4.17253 6.62489 4.03018 6.64944 3.83072 6.64944H3.23499V5.50781H3.23501ZM4.02754 6.33966C4.07418 6.32752 4.09752 6.29665 4.09752 6.24698V5.90177C4.09752 5.86057 4.07715 5.83391 4.03644 5.82176C3.99573 5.80961 3.78784 5.80301 3.74038 5.80195C3.73021 5.80195 3.72042 5.80195 3.71112 5.80195C3.70177 5.80195 3.54193 5.80195 3.53175 5.80195V6.35789C3.60638 6.35789 3.98087 6.35183 4.02755 6.33967L4.02754 6.33966Z" />
<path d="M4.82371 5.51172V6.29978C4.82371 6.32727 4.83645 6.33527 4.86189 6.35112C4.88733 6.36698 5.05178 6.36177 5.08233 6.3628C5.08399 6.3628 5.08527 6.3628 5.08615 6.3628C5.08697 6.3628 5.08826 6.3628 5.08996 6.3628C5.09335 6.3628 5.09673 6.3628 5.10013 6.3628C5.10352 6.3628 5.10607 6.36228 5.10777 6.36122C5.13831 6.35911 5.30276 6.36326 5.32821 6.34636C5.35365 6.32949 5.36639 6.31936 5.36639 6.28872V5.51174H5.67202V6.24434C5.67202 6.3711 5.59804 6.55322 5.50477 6.59971C5.41145 6.64619 5.28504 6.65577 5.1256 6.65577C4.93558 6.65577 4.79223 6.6462 4.69553 6.59971C4.59884 6.55325 4.52319 6.38219 4.52319 6.27763V5.51174H4.82372L4.82371 5.51172Z" />
<path d="M5.77394 5.50393H6.38632C6.52525 5.50393 6.65084 5.52365 6.76301 5.56299C6.87522 5.60237 6.93134 5.69868 6.93134 5.79737C6.93134 5.86058 6.9407 5.94137 6.90776 5.97684C6.87477 6.01235 6.86744 6.00643 6.82829 6.02192C6.81227 6.0275 6.79622 6.0322 6.7802 6.03607C6.76418 6.03996 6.74989 6.04247 6.73745 6.04355C6.83185 6.07239 6.84539 6.10539 6.88727 6.14253C6.92909 6.17969 6.95004 6.23709 6.95004 6.31469C6.95004 6.41894 6.90817 6.51271 6.82448 6.56871C6.74072 6.62472 6.60093 6.65271 6.40502 6.65271H5.77393V5.50391L5.77394 5.50393ZM6.60774 5.9578C6.64757 5.94091 6.66754 5.90394 6.66754 5.84688C6.66754 5.81942 6.65521 5.78411 6.63065 5.76828C6.60604 5.75243 6.57169 5.7445 6.52758 5.7445H6.05666V5.96948C6.15674 5.96948 6.56785 5.9747 6.60773 5.9578H6.60774ZM6.58462 6.40521C6.63636 6.39148 6.66223 6.354 6.66223 6.29272C6.66223 6.23568 6.63423 6.22732 6.57827 6.21307C6.52226 6.1988 6.14829 6.21632 6.05666 6.21105V6.39853C6.15675 6.39853 6.53286 6.41895 6.58463 6.40521H6.58462Z" />
<path d="M7.04626 5.50393H7.65865C7.79758 5.50393 7.92317 5.52365 8.03534 5.56299C8.14755 5.60237 8.20367 5.69868 8.20367 5.79737C8.20367 5.86058 8.21217 5.94137 8.17924 5.97684C8.14626 6.01235 8.1398 6.00643 8.10064 6.02192C8.08462 6.0275 8.06857 6.0322 8.05255 6.03607C8.03653 6.03996 8.02224 6.04247 8.0098 6.04355C8.1042 6.07239 8.11774 6.10539 8.15962 6.14253C8.20144 6.17969 8.22239 6.23709 8.22239 6.31469C8.22239 6.41894 8.18052 6.51271 8.09683 6.56871C8.01307 6.62471 7.87329 6.6527 7.67739 6.6527H7.0463V5.50391L7.04626 5.50393ZM7.88005 5.9578C7.91989 5.94091 7.93985 5.90394 7.93985 5.84688C7.93985 5.81942 7.92753 5.78411 7.90296 5.76828C7.87835 5.75243 7.84401 5.7445 7.7999 5.7445H7.32898V5.96948C7.42906 5.96948 7.84017 5.9747 7.88005 5.9578ZM7.85694 6.40521C7.90868 6.39148 7.93456 6.354 7.93456 6.29272C7.93456 6.23568 7.90656 6.22732 7.85059 6.21307C7.79459 6.1988 7.42062 6.21632 7.32899 6.21105V6.39853C7.42908 6.39853 7.80517 6.41895 7.85694 6.40521Z" />
<path d="M8.3561 5.80359C8.3561 5.69798 8.41037 5.60958 8.51897 5.56575C8.62751 5.52193 8.75901 5.5 8.9134 5.5C8.93377 5.5 8.95452 5.50055 8.97573 5.50158C8.99693 5.50265 9.01772 5.5037 9.03806 5.50473C9.14661 5.51425 9.24546 5.54014 9.33452 5.58237C9.42358 5.62463 9.46813 5.70748 9.46813 5.80359V6.27415C9.46813 6.37873 9.42358 6.4753 9.33452 6.53655C9.24547 6.59782 9.16736 6.65575 8.96379 6.65575C8.75679 6.65575 8.54694 6.6348 8.47061 6.56561C8.39426 6.49645 8.35608 6.36289 8.35608 6.27416V5.8036L8.3561 5.80359ZM8.65665 6.31598C8.65665 6.34557 8.67148 6.38165 8.7012 6.39696C8.73086 6.41229 8.89999 6.4063 8.93562 6.4063C8.93728 6.4063 8.93857 6.4063 8.93944 6.4063C8.94026 6.4063 8.94155 6.4063 8.94325 6.4063C8.97717 6.40526 9.11769 6.41098 9.14657 6.39618C9.17538 6.3814 9.18982 6.34558 9.18982 6.31599V5.87439C9.18982 5.84484 9.17538 5.809 9.14657 5.7942C9.1177 5.77942 8.97717 5.78515 8.94325 5.78407C8.94154 5.78407 8.94026 5.78407 8.93944 5.78407C8.93857 5.78407 8.93727 5.78407 8.93562 5.78407C8.89999 5.78407 8.73084 5.77784 8.7012 5.79263C8.67149 5.80743 8.65665 5.84378 8.65665 5.8744V6.31599V6.31598Z" />
</svg>
