<svg width="16" height="16" stroke-width="0" viewBox="0 0 16 16" fill="none" xmlns="http://www.w3.org/2000/svg">
<path d="M12.9937 7.41973H10.353C9.32034 7.41973 8.4647 6.58237 8.4647 5.53935V2.90976C8.4647 1.88143 9.30558 1.02938 10.353 1.02938H12.9937C14.0263 1.02938 14.882 1.86674 14.882 2.90976V5.53935C14.8672 6.56768 14.0263 7.41973 12.9937 7.41973ZM5.30769 15H3.18335C1.98841 15 1 14.0304 1 12.8258V10.7104C1 9.52046 1.98841 8.5362 3.18335 8.5362H5.30769C6.51739 8.5362 7.49104 9.50577 7.49104 10.7104V12.8258C7.49104 14.0304 6.51739 15 5.30769 15ZM3.18335 9.85834C2.71127 9.85834 2.32771 10.2403 2.32771 10.7104V12.8258C2.32771 13.2959 2.71127 13.6779 3.18335 13.6779H5.30769C5.77977 13.6779 6.16333 13.2959 6.16333 12.8258V10.7104C6.16333 10.2403 5.77977 9.85834 5.30769 9.85834H3.18335ZM5.30769 7.4638H3.18335C1.98841 7.4638 1 6.47954 1 5.28961V3.1595C1 1.96957 1.98841 1 3.18335 1H5.30769C6.51739 1 7.49104 1.96957 7.49104 3.17419V5.28961C7.49104 6.47954 6.51739 7.4638 5.30769 7.4638ZM3.18335 2.30745C2.71127 2.30745 2.32771 2.6894 2.32771 3.1595V5.27492C2.32771 5.74502 2.71127 6.12697 3.18335 6.12697H5.30769C5.77977 6.12697 6.16333 5.74502 6.16333 5.27492V3.1595C6.16333 2.6894 5.77977 2.30745 5.30769 2.30745H3.18335ZM12.8166 14.9265H10.6923C9.48261 14.9265 8.50896 13.957 8.50896 12.7524V10.6369C8.50896 9.43232 9.48261 8.46275 10.6923 8.46275H12.8166C14.0263 8.46275 15 9.43232 15 10.6369V12.7524C15 13.957 14.0116 14.9265 12.8166 14.9265ZM10.6923 9.78489C10.2202 9.78489 9.83667 10.1668 9.83667 10.6369V12.7524C9.83667 13.2225 10.2202 13.6044 10.6923 13.6044H12.8166C13.2887 13.6044 13.6723 13.2225 13.6723 12.7524V10.6369C13.6723 10.1668 13.2887 9.78489 12.8166 9.78489H10.6923Z" />
</svg>
