<svg width="16" height="16" viewBox="0 0 16 16" fill="none" xmlns="http://www.w3.org/2000/svg">
<path fill-rule="evenodd" clip-rule="evenodd" d="M1.1001 2.60001C1.1001 1.77158 1.77167 1.10001 2.6001 1.10001H13.4001C14.2285 1.10001 14.9001 1.77158 14.9001 2.60001V10H13.9001V2.60001C13.9001 2.32386 13.6762 2.10001 13.4001 2.10001H2.6001C2.32396 2.10001 2.1001 2.32386 2.1001 2.60001V13.4C2.1001 13.6761 2.32396 13.9 2.6001 13.9H10.0001V14.9H2.6001C1.77167 14.9 1.1001 14.2284 1.1001 13.4V2.60001Z" fill="#C4C4C4"/>
<path fill-rule="evenodd" clip-rule="evenodd" d="M9.4001 6.60001H6.6001V9.40001H9.4001V6.60001ZM5.6001 5.60001V10.4H10.4001V5.60001H5.6001Z" fill="#C4C4C4"/>
<path d="M12.0001 12H15.0001V15H12.0001V12Z" fill="#C4C4C4"/>
</svg>
