<svg width="12" height="12" viewBox="0 0 12 12" fill="none" xmlns="http://www.w3.org/2000/svg">
<path fill-rule="evenodd" clip-rule="evenodd" d="M6 11C8.76142 11 11 8.76142 11 6C11 3.23858 8.76142 1 6 1C3.23858 1 1 3.23858 1 6C1 8.76142 3.23858 11 6 11ZM6 12C9.31371 12 12 9.31371 12 6C12 2.68629 9.31371 0 6 0C2.68629 0 0 2.68629 0 6C0 9.31371 2.68629 12 6 12Z" fill="#999999"/>
<path d="M6.11867 2.66602C5.44667 2.66602 4.924 2.87135 4.55067 3.28202C4.17733 3.67402 4 4.19668 4 4.85002H4.73733C4.73733 4.39268 4.84 4.03802 5.04533 3.77668C5.26933 3.46868 5.61467 3.31935 6.08133 3.31935C6.47333 3.31935 6.78133 3.42202 6.996 3.64602C7.20133 3.85135 7.31333 4.14068 7.31333 4.51402C7.31333 4.77535 7.22 5.01802 7.03333 5.25135C6.97733 5.32602 6.86533 5.43802 6.716 5.58735C6.212 6.03535 5.904 6.39002 5.77333 6.67002C5.66133 6.90335 5.60533 7.17402 5.60533 7.48202V7.69668H6.352V7.48202C6.352 7.23002 6.408 7.00602 6.52933 6.80068C6.62267 6.63268 6.76267 6.46468 6.968 6.28735C7.37867 5.92335 7.63067 5.68068 7.724 5.56868C7.95733 5.26068 8.07867 4.89668 8.07867 4.47668C8.07867 3.91668 7.90133 3.47802 7.556 3.16068C7.192 2.82468 6.716 2.66602 6.11867 2.66602ZM5.97867 8.35002C5.82 8.35002 5.68933 8.39668 5.57733 8.50868C5.46533 8.61135 5.41867 8.74202 5.41867 8.90068C5.41867 9.05935 5.46533 9.19002 5.57733 9.30202C5.68933 9.40468 5.82 9.46068 5.97867 9.46068C6.13733 9.46068 6.268 9.40468 6.38 9.30202C6.492 9.19935 6.548 9.06868 6.548 8.90068C6.548 8.74202 6.492 8.61135 6.38933 8.50868C6.27733 8.39668 6.13733 8.35002 5.97867 8.35002Z" fill="#999999"/>
</svg>
