<svg width="18" height="18" viewBox="0 0 18 18" fill="none" xmlns="http://www.w3.org/2000/svg">
<path fill-rule="evenodd" clip-rule="evenodd" d="M4.13525 6.76385C4.32412 6.9653 4.64054 6.97551 4.84199 6.78664L7.34199 4.44289C7.54345 4.25403 7.55366 3.93761 7.36479 3.73615C7.17593 3.5347 6.85951 3.52449 6.65805 3.71336L4.15805 6.05711C3.95659 6.24597 3.94639 6.56239 4.13525 6.76385Z" />
<path fill-rule="evenodd" clip-rule="evenodd" d="M7.0274 3.5957C6.75126 3.5957 6.5274 3.81956 6.5274 4.0957L6.5274 10.5233C6.5274 10.7994 6.75126 11.0233 7.0274 11.0233C7.30355 11.0233 7.5274 10.7994 7.5274 10.5233V4.0957C7.5274 3.81956 7.30355 3.5957 7.0274 3.5957Z" />
<path fill-rule="evenodd" clip-rule="evenodd" d="M13.9196 7.75959C13.7308 7.55814 13.4143 7.54793 13.2129 7.73679L10.7129 10.0805C10.5114 10.2694 10.5012 10.5858 10.6901 10.7873C10.8789 10.9887 11.1954 10.9989 11.3968 10.8101L13.8968 8.46633C14.0983 8.27747 14.1085 7.96105 13.9196 7.75959Z" />
<path fill-rule="evenodd" clip-rule="evenodd" d="M11.0275 10.9277C11.3036 10.9277 11.5275 10.7039 11.5275 10.4277V4.00013C11.5275 3.72399 11.3036 3.50013 11.0275 3.50013C10.7513 3.50013 10.5275 3.72399 10.5275 4.00013V10.4277C10.5275 10.7039 10.7513 10.9277 11.0275 10.9277Z" />
<path fill-rule="evenodd" clip-rule="evenodd" d="M3.375 10.75C3.65114 10.75 3.875 10.9739 3.875 11.25V14.125H14.125V11.25C14.125 10.9739 14.3489 10.75 14.625 10.75C14.9011 10.75 15.125 10.9739 15.125 11.25V14.625C15.125 14.9011 14.9011 15.125 14.625 15.125H3.375C3.09886 15.125 2.875 14.9011 2.875 14.625V11.25C2.875 10.9739 3.09886 10.75 3.375 10.75Z" />
</svg>
