<svg width="12" height="12" viewBox="0 0 12 12" xmlns="http://www.w3.org/2000/svg">
<path fill-rule="evenodd" clip-rule="evenodd" d="M10.6 1.39999L1.40002 1.39999L1.40002 10.6L10.6 10.6L10.6 1.39999ZM1.40002 0.399994C0.84774 0.399994 0.400024 0.847708 0.400024 1.39999V10.6C0.400024 11.1523 0.847739 11.6 1.40002 11.6H10.6C11.1523 11.6 11.6 11.1523 11.6 10.6V1.39999C11.6 0.847709 11.1523 0.399994 10.6 0.399994H1.40002ZM4.09998 2.79999C4.37612 2.79999 4.59998 3.02385 4.59998 3.29999V3.7605C4.9587 3.96798 5.20005 4.35581 5.20005 4.80001C5.20005 5.24421 4.9587 5.63203 4.59998 5.83951L4.59998 8.69999C4.59998 8.97613 4.37612 9.19999 4.09998 9.19999C3.82383 9.19999 3.59998 8.97613 3.59998 8.69999L3.59998 5.9317C3.13394 5.76694 2.80005 5.32247 2.80005 4.80001C2.80005 4.27755 3.13394 3.83307 3.59998 3.66831V3.29999C3.59998 3.02385 3.82383 2.79999 4.09998 2.79999ZM8.59998 3.29999C8.59998 3.02385 8.37612 2.79999 8.09998 2.79999C7.82383 2.79999 7.59998 3.02385 7.59998 3.29999L7.59998 6.06831C7.13394 6.23306 6.80005 6.67754 6.80005 7.2C6.80005 7.72246 7.13394 8.16694 7.59998 8.33169V8.69999C7.59998 8.97613 7.82383 9.19999 8.09998 9.19999C8.37612 9.19999 8.59997 8.97613 8.59997 8.69999V8.2395C8.9587 8.03203 9.20005 7.6442 9.20005 7.2C9.20005 6.7558 8.9587 6.36797 8.59997 6.1605L8.59998 3.29999Z" />
</svg>
