<svg width="20" height="20" viewBox="0 0 20 20"  xmlns="http://www.w3.org/2000/svg">
<path d="M17.6562 5.07812H14.375V3.98438C14.375 3.38086 13.8848 2.89062 13.2812 2.89062H6.71875C6.11523 2.89062 5.625 3.38086 5.625 3.98438V5.07812H2.34375C1.74023 5.07812 1.25 5.56836 1.25 6.17188V16.0156C1.25 16.6191 1.74023 17.1094 2.34375 17.1094H17.6562C18.2598 17.1094 18.75 16.6191 18.75 16.0156V6.17188C18.75 5.56836 18.2598 5.07812 17.6562 5.07812ZM6.71875 3.98438H13.2812V5.07812H6.71875V3.98438ZM17.6562 16.0156H2.34375V11.6406H8.35938V12.1875C8.35938 12.791 8.84961 13.2812 9.45312 13.2812H10.5469C11.1504 13.2812 11.6406 12.791 11.6406 12.1875V11.6406H17.6562V16.0156ZM9.45312 12.1875V10H10.5469V12.1875H9.45312ZM11.6406 10.5469V10C11.6406 9.39648 11.1504 8.90625 10.5469 8.90625H9.45312C8.84961 8.90625 8.35938 9.39648 8.35938 10V10.5469H2.34375V6.17188H17.6562V10.5469H11.6406Z" />
</svg>
