<svg width="16" height="16" viewBox="0 0 16 16" xmlns="http://www.w3.org/2000/svg">
<path fill-rule="evenodd" clip-rule="evenodd" d="M3.5 7.36401V13.8658C3.5 14.142 3.72386 14.3658 4 14.3658H6.58972V15.3658H4C3.17157 15.3658 2.5 14.6943 2.5 13.8658V7.36401H3.5ZM12.5 13.8658V7.36401H13.5V13.8658C13.5 14.6943 12.8284 15.3658 12 15.3658H9.66665V14.3658H12C12.2761 14.3658 12.5 14.142 12.5 13.8658Z" />
<path fill-rule="evenodd" clip-rule="evenodd" d="M6 10.864H10V15.364H9V11.864H7V15.364H6V10.864Z" />
<path fill-rule="evenodd" clip-rule="evenodd" d="M8.00437 1.26712L14.3589 8.17426C14.546 8.37757 14.5368 8.69797 14.3384 8.88989C14.14 9.08181 13.8276 9.07259 13.6405 8.86928L7.9952 2.73305L2.35462 8.71579C2.16504 8.91686 1.8525 8.92238 1.65653 8.72811C1.46056 8.53385 1.45538 8.21337 1.64495 8.0123L8.00437 1.26712Z" />
</svg>
