<svg width="16" height="16" viewBox="0 0 16 16" fill="none" xmlns="http://www.w3.org/2000/svg">
<path fill-rule="evenodd" clip-rule="evenodd" d="M2 2H14V14H2V2ZM1 2C1 1.44772 1.44772 1 2 1H14C14.5523 1 15 1.44772 15 2V14C15 14.5523 14.5523 15 14 15H2C1.44772 15 1 14.5523 1 14V2ZM12.9004 4.76457C13.0572 4.56163 13.0254 4.26549 12.8294 4.10314C12.6334 3.94078 12.3473 3.97368 12.1905 4.17663L9.07482 8.20868C8.92754 8.39928 8.66393 8.44166 8.46775 8.30626L7.19038 7.42462C6.56376 6.99213 5.71712 7.16743 5.29937 7.81617L3.07639 11.2683C2.93714 11.4846 2.99358 11.7768 3.20246 11.9209C3.41133 12.0651 3.69354 12.0066 3.83279 11.7904L6.05578 8.33824C6.19503 8.12199 6.47724 8.06356 6.68612 8.20772L7.96348 9.08935C8.55201 9.49555 9.34284 9.36844 9.7847 8.79662L12.9004 4.76457Z" fill="#C4C4C4"/>
</svg>
