<svg width="12" height="14" viewBox="0 0 12 14" xmlns="http://www.w3.org/2000/svg">
<path fill-rule="evenodd" clip-rule="evenodd" d="M11 1.5H1V4.5H11V1.5ZM1 0.5C0.447715 0.5 0 0.947715 0 1.5V5.5H12V1.5C12 0.947715 11.5523 0.5 11 0.5H1Z" />
<path fill-rule="evenodd" clip-rule="evenodd" d="M11 5.5H1V8.5H11V5.5ZM0 4.5V9.5H12V4.5H0Z" />
<path fill-rule="evenodd" clip-rule="evenodd" d="M11 9.5H1L1 12.5H11V9.5ZM0 8.5V12.5C0 13.0523 0.447715 13.5 1 13.5H11C11.5523 13.5 12 13.0523 12 12.5V8.5H0Z" />
<path fill-rule="evenodd" clip-rule="evenodd" d="M8 2.5H10V3.5L8 3.5V2.5Z" />
<path fill-rule="evenodd" clip-rule="evenodd" d="M8 6.5H10V7.5H8V6.5Z" />
<path fill-rule="evenodd" clip-rule="evenodd" d="M8 10.5H10V11.5H8V10.5Z" />
</svg>
