<svg viewBox="0 0 12 12" xmlns="http://www.w3.org/2000/svg">
<g clip-path="url(#clip0_2539_91683)">
<path fill-rule="evenodd" clip-rule="evenodd" d="M11 1H1L1 11H11V1ZM1 0C0.447715 0 0 0.447715 0 1V11C0 11.5523 0.447715 12 1 12H11C11.5523 12 12 11.5523 12 11V1C12 0.447715 11.5523 0 11 0H1Z" />
<path d="M1.5 5.0448H1.9384L2.716 6.8368H2.7288L3.5032 5.0448H3.9416V7.3296H3.5672V5.7552H3.5544L2.8824 7.3296H2.5592L1.8872 5.7552H1.8744V7.3296H1.5V5.0448Z" />
<path d="M5.40503 5C5.75383 5 6.02903 5.112 6.23063 5.3392C6.42263 5.5536 6.51863 5.8384 6.51863 6.1904C6.51863 6.5328 6.42583 6.8112 6.24662 7.0224C6.32982 7.1312 6.41622 7.2464 6.49942 7.368L6.25623 7.5792C6.16983 7.4544 6.08663 7.336 6.00343 7.2272C5.83703 7.3232 5.63543 7.3744 5.40503 7.3744C5.05303 7.3744 4.77783 7.2592 4.57943 7.0352C4.38743 6.8176 4.29463 6.536 4.29463 6.1904C4.29463 5.8416 4.38743 5.56 4.57943 5.3424C4.77783 5.112 5.05303 5 5.40503 5ZM5.40503 5.3296C5.16823 5.3296 4.98583 5.4096 4.85462 5.5696C4.72983 5.7232 4.66902 5.928 4.66902 6.1904C4.66902 6.4496 4.72983 6.6544 4.85462 6.808C4.98263 6.9648 5.16823 7.0448 5.40503 7.0448C5.55543 7.0448 5.68342 7.0128 5.79222 6.952C5.67702 6.8112 5.56822 6.6864 5.46263 6.5744L5.68022 6.3632C5.79222 6.4816 5.90423 6.6064 6.01303 6.7344C6.09623 6.5936 6.14103 6.4112 6.14103 6.1904C6.14103 5.9216 6.07702 5.7104 5.95223 5.5568C5.82422 5.4032 5.64183 5.3296 5.40503 5.3296Z" />
<path d="M6.69587 5.0448H8.56787V5.3648H7.81908V7.3296H7.44467V5.3648H6.69587V5.0448Z" />
<path d="M8.66462 5.0448H10.5366V5.3648H9.78782V7.3296H9.41342V5.3648H8.66462V5.0448Z" />
</g>
<defs>
<clipPath id="clip0_2539_91683">
<rect width="12" height="12" fill="white"/>
</clipPath>
</defs>
</svg>
