<svg viewBox="0 0 12 12"  xmlns="http://www.w3.org/2000/svg">
<path fill-rule="evenodd" clip-rule="evenodd" d="M11 1H1L1 11H11V1ZM1 0C0.447715 0 0 0.447715 0 1V11C0 11.5523 0.447715 12 1 12H11C11.5523 12 12 11.5523 12 11V1C12 0.447715 11.5523 0 11 0H1Z" />
<path d="M2.788 7C2.6588 6.99941 2.52971 6.98513 2.4013 6.9572C2.27948 6.91324 2.17068 6.78035 2.09677 6.58528C2.02287 6.39022 1.98935 6.14745 2.00297 5.90585C2.0152 5.67011 2.07054 5.45104 2.15875 5.28922C2.24695 5.1274 2.36204 5.03377 2.48271 5.02568H3.07366C3.20337 5.02958 3.32724 5.13226 3.4191 5.31204C3.51097 5.49181 3.56364 5.73461 3.566 5.98918C3.56835 6.24374 3.52021 6.49014 3.43174 6.67635C3.34327 6.86256 3.22139 6.97401 3.09183 6.98716C2.99079 6.99572 2.88903 6.98716 2.788 6.98716V7ZM2.788 6.61912H3.07875C3.15965 6.61476 3.2366 6.54956 3.2937 6.43698C3.35079 6.3244 3.38365 6.17306 3.38549 6.01426C3.3875 5.8573 3.35825 5.70499 3.30396 5.58966C3.24968 5.47433 3.17462 5.40506 3.09474 5.39658C2.89267 5.38231 2.68987 5.38231 2.4878 5.39658C2.40804 5.40506 2.3331 5.47412 2.27883 5.58914C2.22456 5.70417 2.19523 5.85612 2.19705 6.01284C2.19851 6.17189 2.2311 6.32374 2.28808 6.43689C2.34506 6.55004 2.42204 6.6158 2.50306 6.62054C2.59901 6.62339 2.69423 6.61912 2.79018 6.61912H2.788ZM8.73165 6.1883C8.74813 6.31385 8.7859 6.42464 8.83875 6.50243C8.8916 6.58021 8.95637 6.62036 9.0224 6.61626H9.69693C9.67004 6.8816 9.61044 6.98573 9.48541 6.98288C9.29726 6.9922 9.10898 6.98221 8.92136 6.95292C8.79874 6.9168 8.68781 6.78998 8.61132 6.59847C8.53482 6.40696 8.49855 6.16528 8.50995 5.92297C8.51984 5.68077 8.57521 5.45441 8.66534 5.28782C8.75546 5.12123 8.8739 5.02628 8.99768 5.0214H9.6824C9.65114 5.28816 9.5959 5.37946 9.4687 5.37946H9.03839C8.97914 5.37431 8.92036 5.40228 8.86889 5.46011C8.81742 5.51794 8.77537 5.60326 8.74764 5.70613C8.7427 5.72574 8.7388 5.7463 8.73601 5.76748C8.7367 5.7834 8.73816 5.79916 8.74037 5.81455H9.63152C9.59808 6.09986 9.54429 6.18402 9.40909 6.18402L8.73165 6.1883ZM4.44309 6.36947L4.79271 6.94009C4.65097 6.98573 4.52595 7.0271 4.41401 6.79743C4.27809 6.52211 4.12326 6.28531 3.95899 6.00713C3.98302 5.99799 4.00729 5.99132 4.03168 5.98716H4.47943C4.50055 5.99087 4.52182 5.98611 4.54197 5.97316C4.56211 5.96022 4.58071 5.93937 4.59662 5.91188C4.61253 5.8844 4.62542 5.85084 4.63452 5.81326C4.64361 5.77568 4.64872 5.73487 4.64952 5.6933C4.64996 5.65162 4.646 5.61022 4.63789 5.57169C4.62979 5.53316 4.61771 5.49834 4.60242 5.4694C4.58713 5.44047 4.56896 5.41805 4.54905 5.40355C4.52913 5.38906 4.50791 5.3828 4.4867 5.38516H3.92919C3.8754 5.38516 3.8645 5.43367 3.8645 5.52782V6.9786H3.68132V5.02282H4.48089C4.69895 5.02282 4.84432 5.28245 4.85159 5.66762C4.85886 6.05278 4.71421 6.33666 4.49179 6.35806L4.44309 6.36947ZM5.33714 6.28673H5.8336L5.57483 5.46648C5.55448 5.52354 5.53776 5.56491 5.52395 5.60913C5.39747 6.00143 5.26664 6.38659 5.14743 6.78602C5.13216 6.85924 5.10433 6.91969 5.06877 6.95694C5.0332 6.99419 4.99212 7.00588 4.95263 6.99001C4.91923 6.98552 4.88572 6.98552 4.85232 6.99001C4.87049 6.92439 4.88139 6.87732 4.8952 6.83452C5.07062 6.29339 5.2475 5.75321 5.42582 5.21398C5.51814 4.92867 5.63298 4.92867 5.72675 5.21398C5.89974 5.7437 6.0725 6.27389 6.24501 6.80456C6.261 6.85307 6.27554 6.90442 6.29952 6.98288C6.23077 6.99556 6.16151 6.99269 6.09309 6.97432C6.0582 6.9572 6.0284 6.86163 6.00878 6.78887C5.99779 6.73921 5.97866 6.69818 5.95442 6.67233C5.93019 6.64648 5.90224 6.63729 5.87503 6.64622C5.78562 6.6562 5.69331 6.62767 5.60536 6.64622C5.45635 6.69329 5.38439 6.55064 5.33714 6.28673ZM7.38257 6.62054C7.33387 6.88588 7.26918 7.02568 7.12453 6.99429C6.97988 6.96291 6.84395 6.99429 6.70294 6.99429C6.57031 6.99335 6.4433 6.88904 6.34986 6.70431C6.25641 6.51958 6.20419 6.26957 6.20467 6.00927C6.20515 5.74897 6.2583 5.49971 6.35243 5.31632C6.44655 5.13293 6.57394 5.03044 6.70657 5.03138H7.28807C7.31279 5.03138 7.33677 5.03138 7.36076 5.03852C7.30625 5.3495 7.27572 5.39372 7.12235 5.39372H6.70948C6.66703 5.39045 6.62467 5.40411 6.58498 5.4339C6.5453 5.46368 6.5091 5.50896 6.47859 5.567C6.44808 5.62504 6.42389 5.69462 6.40748 5.77154C6.39108 5.84847 6.38279 5.93112 6.38314 6.01451C6.38348 6.09789 6.39245 6.18028 6.40949 6.25666C6.42653 6.33305 6.45129 6.40186 6.48228 6.45892C6.51326 6.51598 6.54983 6.5601 6.58976 6.58862C6.62968 6.61713 6.67215 6.62945 6.71457 6.62482H7.27935L7.38257 6.62054ZM7.47415 5.03281H7.66605V6.61484H8.54702C8.50777 6.91298 8.45907 6.98859 8.32096 6.98859H7.62026C7.50468 6.98859 7.47488 6.92867 7.47488 6.70328C7.47343 6.15549 7.47415 5.60342 7.47415 5.03281ZM9.77326 5.24679C9.77402 5.19042 9.78566 5.13672 9.80582 5.09654C9.82598 5.05637 9.85316 5.03271 9.88187 5.03036C9.91058 5.028 9.93867 5.04712 9.96047 5.08386C9.98227 5.12059 9.99616 5.1722 9.99931 5.22825C10.001 5.25857 9.99954 5.28925 9.99495 5.3184C9.99036 5.34754 9.98277 5.37452 9.97264 5.39767C9.96252 5.42081 9.95007 5.43962 9.93609 5.45294C9.9221 5.46625 9.90687 5.47377 9.89134 5.47505C9.87581 5.47632 9.86032 5.47132 9.84581 5.46034C9.83131 5.44937 9.81811 5.43266 9.80704 5.41125C9.79597 5.38985 9.78725 5.3642 9.78144 5.33591C9.77563 5.30762 9.77284 5.27728 9.77326 5.24679Z" />
</svg>
