<svg width="20" height="14" viewBox="0 0 20 14" fill="none" xmlns="http://www.w3.org/2000/svg">
<path d="M3.94668 13.1943L2.10447 7.8671L1.57812 6.09137C2.1922 6.76783 3.94668 8.07004 6.05207 7.8671C8.15746 7.66416 9.0347 2.70902 9.47332 1.01785C10.0874 2.37079 12.263 6.70019 13.9473 7.10607C15.6316 7.51195 17.4562 6.26048 18.158 5.58401C17.9826 7.61342 17.5791 11.723 17.3685 11.9259C16.8422 12.4333 13.9473 13.7016 10.7892 13.9553C8.23672 14.1603 5.17483 13.6171 3.94668 13.1943Z" fill="url(#paint0_linear_136_696)"/>
<ellipse cx="1.84221" cy="6.34293" rx="1.84221" ry="1.77573" fill="url(#paint1_linear_136_696)"/>
<ellipse cx="9.73674" cy="1.77573" rx="1.84221" ry="1.77573" fill="url(#paint2_linear_136_696)"/>
<ellipse cx="18.1586" cy="4.82283" rx="1.84221" ry="1.77573" fill="url(#paint3_linear_136_696)"/>
<mask id="mask0_136_696" style="mask-type:alpha" maskUnits="userSpaceOnUse" x="1" y="2" width="18" height="12">
<path d="M3.95059 13.1916L2.10838 7.86442L1.58203 6.08869C2.1961 6.76515 3.95059 8.06736 6.05598 7.86442C8.16136 7.66148 9.56495 4.2284 10.0036 2.53722C10.6176 3.89016 12.2669 6.69751 13.9512 7.10339C15.6355 7.50927 17.4602 6.2578 18.1619 5.58133C17.9865 7.61074 17.583 11.7203 17.3724 11.9232C16.8461 12.4306 13.9512 13.699 10.7931 13.9526C8.24063 14.1577 5.17873 13.6144 3.95059 13.1916Z" fill="url(#paint4_linear_136_696)"/>
</mask>
<g mask="url(#mask0_136_696)">
<path d="M11.3203 4.5666C12.373 5.5813 13.6581 7.00694 16.3176 6.45437C16.5838 7.35656 12.6362 8.87909 11.3203 4.5666Z" fill="#EABA6E"/>
<path d="M18.161 10.1519C12.4765 13.3989 5.79189 12.5195 3.16016 11.6739C3.16016 11.9276 3.21279 12.0798 3.42333 12.6886C11.0027 14.3122 16.4065 12.1813 18.161 10.9129V10.1519Z" fill="url(#paint5_linear_136_696)" stroke="#DFBE89" stroke-width="0.3"/>
<path d="M8.79688 5.15589C7.74418 6.17059 6.45907 7.59623 3.7996 7.04366C3.53342 7.94585 7.63515 10.6535 8.79688 5.15589Z" fill="#E6CAA1"/>
</g>
<g filter="url(#filter0_dd_136_696)">
<path d="M10.2026 7.82215C10.5705 7.76959 10.8745 7.8202 11.1145 7.97398C11.3575 8.12391 11.5044 8.36449 11.5554 8.69573C11.5975 8.97008 11.5574 9.20491 11.4349 9.40021C11.3158 9.59502 11.1265 9.73661 10.867 9.82497C11.1012 10.0103 11.3142 10.2073 11.5059 10.4159C11.6976 10.6244 11.8875 10.8674 12.0756 11.1448L11.2842 11.2579C11.0722 10.9634 10.8808 10.7223 10.71 10.5347C10.5393 10.3471 10.3262 10.1604 10.0706 9.97464L9.6957 10.0282L9.91483 11.4535L9.05574 11.5762L8.51562 8.06313L10.2026 7.82215ZM10.3723 9.34171C10.5494 9.31642 10.6795 9.25167 10.7628 9.14745C10.8461 9.04323 10.8777 8.92587 10.8577 8.79539C10.8371 8.66156 10.7698 8.55833 10.6558 8.48572C10.5447 8.40927 10.4024 8.38344 10.2288 8.40823L9.46345 8.51756L9.60696 9.45104L10.3723 9.34171Z" fill="url(#paint6_linear_136_696)"/>
</g>
<defs>
<filter id="filter0_dd_136_696" x="8.01562" y="7.80207" width="4.55994" height="3.77415" filterUnits="userSpaceOnUse" color-interpolation-filters="sRGB">
<feFlood flood-opacity="0" result="BackgroundImageFix"/>
<feColorMatrix in="SourceAlpha" type="matrix" values="0 0 0 0 0 0 0 0 0 0 0 0 0 0 0 0 0 0 127 0" result="hardAlpha"/>
<feOffset dx="0.5"/>
<feComposite in2="hardAlpha" operator="out"/>
<feColorMatrix type="matrix" values="0 0 0 0 0.976471 0 0 0 0 0.886275 0 0 0 0 0.788235 0 0 0 1 0"/>
<feBlend mode="normal" in2="BackgroundImageFix" result="effect1_dropShadow_136_696"/>
<feColorMatrix in="SourceAlpha" type="matrix" values="0 0 0 0 0 0 0 0 0 0 0 0 0 0 0 0 0 0 127 0" result="hardAlpha"/>
<feOffset dx="-0.5"/>
<feComposite in2="hardAlpha" operator="out"/>
<feColorMatrix type="matrix" values="0 0 0 0 0.766667 0 0 0 0 0.559572 0 0 0 0 0.245972 0 0 0 1 0"/>
<feBlend mode="normal" in2="effect1_dropShadow_136_696" result="effect2_dropShadow_136_696"/>
<feBlend mode="normal" in="SourceGraphic" in2="effect2_dropShadow_136_696" result="shape"/>
</filter>
<linearGradient id="paint0_linear_136_696" x1="3.42034" y1="9.13548" x2="20.5238" y2="9.95442" gradientUnits="userSpaceOnUse">
<stop offset="0.00520833" stop-color="#EBDBC2"/>
<stop offset="0.123705" stop-color="#D5AD72"/>
<stop offset="1" stop-color="#FFF5E4"/>
</linearGradient>
<linearGradient id="paint1_linear_136_696" x1="1.05269" y1="7.35763" x2="2.55823" y2="5.27509" gradientUnits="userSpaceOnUse">
<stop stop-color="#E1C093"/>
<stop offset="1" stop-color="#F0E5D2"/>
</linearGradient>
<linearGradient id="paint2_linear_136_696" x1="8.94722" y1="2.79043" x2="10.4528" y2="0.707892" gradientUnits="userSpaceOnUse">
<stop stop-color="#E1C093"/>
<stop offset="1" stop-color="#F0E5D2"/>
</linearGradient>
<linearGradient id="paint3_linear_136_696" x1="17.3691" y1="5.83754" x2="18.8746" y2="3.755" gradientUnits="userSpaceOnUse">
<stop stop-color="#E1C093"/>
<stop offset="1" stop-color="#F0E5D2"/>
</linearGradient>
<linearGradient id="paint4_linear_136_696" x1="0.266165" y1="9.38647" x2="20.5295" y2="9.9325" gradientUnits="userSpaceOnUse">
<stop offset="1" stop-color="#FFF5E4"/>
</linearGradient>
<linearGradient id="paint5_linear_136_696" x1="4.21285" y1="12.435" x2="17.3573" y2="10.7986" gradientUnits="userSpaceOnUse">
<stop stop-color="#DEBB87"/>
<stop offset="1" stop-color="#EDD4AC"/>
</linearGradient>
<linearGradient id="paint6_linear_136_696" x1="9.07399" y1="9.2298" x2="12.0679" y2="9.0159" gradientUnits="userSpaceOnUse">
<stop stop-color="#F0C78A"/>
<stop offset="1" stop-color="#F9D18F"/>
</linearGradient>
</defs>
</svg>
