<svg width="14" height="14" viewBox="0 0 14 14" xmlns="http://www.w3.org/2000/svg">
<path d="M11.4741 4.09822H7.26318C7.12371 4.09822 6.98995 4.15632 6.89133 4.25974C6.79271 4.36316 6.7373 4.50343 6.7373 4.64968C6.7373 4.79594 6.79271 4.93621 6.89133 5.03963C6.98995 5.14305 7.12371 5.20115 7.26318 5.20115H11.4741C11.6136 5.20115 11.7474 5.14305 11.846 5.03963C11.9446 4.93621 12 4.79594 12 4.64968C12 4.50343 11.9446 4.36316 11.846 4.25974C11.7474 4.15632 11.6136 4.09822 11.4741 4.09822V4.09822ZM11.4741 8.51617H7.26318C7.12371 8.51617 6.98995 8.57427 6.89133 8.67769C6.79271 8.78111 6.7373 8.92137 6.7373 9.06763C6.7373 9.21389 6.79271 9.35416 6.89133 9.45758C6.98995 9.56099 7.12371 9.6191 7.26318 9.6191H11.4741C11.6136 9.6191 11.7474 9.56099 11.846 9.45758C11.9446 9.35416 12 9.21389 12 9.06763C12 8.92137 11.9446 8.78111 11.846 8.67769C11.7474 8.57427 11.6136 8.51617 11.4741 8.51617V8.51617ZM4.105 7.13663C3.08754 7.13663 2.26295 8.00159 2.26295 9.06832C2.26295 10.135 3.08777 11 4.105 11C5.12224 11 5.94706 10.135 5.94706 9.06832C5.94706 8.00159 5.12247 7.13663 4.105 7.13663ZM4.66398 9.65474C4.53464 9.79024 4.36449 9.87453 4.18254 9.89324C4.00058 9.91195 3.81807 9.86392 3.66609 9.75734C3.51411 9.65076 3.40208 9.49222 3.34907 9.30873C3.29606 9.12524 3.30535 8.92815 3.37537 8.75105C3.44539 8.57394 3.5718 8.42777 3.73307 8.33743C3.89433 8.2471 4.08047 8.2182 4.25978 8.25565C4.43909 8.29309 4.60047 8.39458 4.71643 8.54281C4.83239 8.69104 4.89575 8.87684 4.89572 9.06857C4.89598 9.1775 4.87564 9.2854 4.83586 9.38603C4.79608 9.48666 4.73766 9.57801 4.66398 9.6548V9.65474ZM5.31226 3.15886L3.57859 4.97682L2.89774 4.26279C2.79912 4.15936 2.66536 4.10126 2.52589 4.10126C2.38641 4.10126 2.25265 4.15936 2.15403 4.26279C2.05541 4.36621 2 4.50648 2 4.65274C2 4.799 2.05541 4.93927 2.15403 5.04269L3.20673 6.14668C3.25557 6.19789 3.31354 6.23851 3.37734 6.26622C3.44115 6.29394 3.50953 6.3082 3.57859 6.3082C3.64765 6.3082 3.71604 6.29394 3.77984 6.26622C3.84364 6.23851 3.90162 6.19789 3.95045 6.14668L6.05592 3.93876C6.15344 3.83511 6.2079 3.69522 6.20744 3.54961C6.20697 3.404 6.15161 3.2645 6.05343 3.16154C5.95525 3.05857 5.82222 3.0005 5.68337 3C5.54452 2.9995 5.41112 3.05661 5.31226 3.15886V3.15886Z" />
<path fill-rule="evenodd" clip-rule="evenodd" d="M13 1H1V13H13V1ZM1 0C0.447715 0 0 0.447716 0 1V13C0 13.5523 0.447716 14 1 14H13C13.5523 14 14 13.5523 14 13V1C14 0.447715 13.5523 0 13 0H1Z" />
</svg>
