<svg width="16" height="16" stroke-width="0" viewBox="0 0 16 16" fill="none" xmlns="http://www.w3.org/2000/svg">
<path d="M11.0806 2.0872V3.51416H4.93346V2.0872H11.0806ZM11.3608 1H4.65325C4.1895 1 3.81262 1.36557 3.81262 1.8154V3.78596C3.81262 4.23579 4.1895 4.60136 4.65325 4.60136H11.3608C11.8245 4.60136 12.2014 4.23579 12.2014 3.78596V1.8154C12.2014 1.36557 11.8245 1 11.3608 1ZM4.94572 10.3499C4.42453 10.3499 4.00001 9.93817 4.00001 9.43262C4.00001 8.92707 4.42453 8.51529 4.94572 8.51529C5.46691 8.51529 5.89143 8.92707 5.89143 9.43262C5.89143 9.93817 5.46691 10.3499 4.94572 10.3499ZM4.94572 9.26274C4.84905 9.26274 4.77059 9.33885 4.77059 9.43262C4.77059 9.52639 4.84905 9.60249 4.94572 9.60249C5.04239 9.60249 5.12085 9.52639 5.12085 9.43262C5.12085 9.33885 5.04239 9.26274 4.94572 9.26274ZM4.94572 13C4.42453 13 4.00001 12.5882 4.00001 12.0827C4.00001 11.5771 4.42453 11.1653 4.94572 11.1653C5.46691 11.1653 5.89143 11.5771 5.89143 12.0827C5.89143 12.5882 5.46691 13 4.94572 13ZM4.94572 11.9128C4.84905 11.9128 4.77059 11.9889 4.77059 12.0827C4.77059 12.1764 4.84905 12.2525 4.94572 12.2525C5.04239 12.2525 5.12085 12.1764 5.12085 12.0827C5.12085 11.9889 5.04239 11.9128 4.94572 11.9128ZM9.75833 9.96942H7.4466C7.13697 9.96942 6.88618 9.72616 6.88618 9.42582C6.88618 9.12548 7.13697 8.88222 7.4466 8.88222H9.75833C10.068 8.88222 10.3188 9.12548 10.3188 9.42582C10.3188 9.72616 10.068 9.96942 9.75833 9.96942ZM11.4396 12.6602H7.4466C7.13697 12.6602 6.88618 12.417 6.88618 12.1166C6.88618 11.8163 7.13697 11.573 7.4466 11.573H11.4396C11.7492 11.573 12 11.8163 12 12.1166C12 12.417 11.7492 12.6602 11.4396 12.6602ZM11.4396 7.36014H7.4466C7.13697 7.36014 6.88618 7.11687 6.88618 6.81653C6.88618 6.51619 7.13697 6.27293 7.4466 6.27293H11.4396C11.7492 6.27293 12 6.51619 12 6.81653C12 7.11687 11.7492 7.36014 11.4396 7.36014Z" fill="#999999"/>
<path d="M12.8732 3.1219V13.8781H3.12676V3.1219H4.78873V3.24811C4.78873 3.86796 5.29296 4.37001 5.91549 4.37001H10.0845C10.707 4.37001 11.2113 3.86796 11.2113 3.24811V3.1219H12.8732ZM13.1549 2H10.0845V3.24811H5.91549V2H2.84507C2.37887 2 2 2.37724 2 2.84142V14.1586C2 14.6228 2.37887 15 2.84507 15H13.1549C13.6211 15 14 14.6228 14 14.1586V2.84142C14 2.37724 13.6211 2 13.1549 2Z" fill="#999999"/>
<path d="M4.66873 7.71251C4.50935 7.71251 4.34998 7.65157 4.2281 7.53126L3.66873 6.97501C3.42342 6.73126 3.42185 6.33595 3.6656 6.09064C3.90935 5.84532 4.30467 5.84376 4.54998 6.08751L4.66873 6.20626L5.48123 5.40001C5.72654 5.15626 6.12185 5.15782 6.3656 5.40314C6.60935 5.64845 6.60779 6.04376 6.36248 6.28751L5.10935 7.53126C4.98748 7.65157 4.8281 7.71251 4.66873 7.71251Z" fill="#999999"/>
</svg>
