<svg width="16" height="16" viewBox="0 0 16 16" fill="none" xmlns="http://www.w3.org/2000/svg">
<path d="M8.56244 8.17968V2.43749C8.56244 2.19588 8.36449 2 8.12288 2C7.88127 2 7.68332 2.19588 7.68332 2.43749V8.18052C6.93261 8.37535 6.37343 9.06008 6.37343 9.87495C6.37343 10.691 6.93152 11.3766 7.68717 11.5703C7.68475 11.5884 7.68347 11.6067 7.68332 11.625V13.8125C7.68332 14.0541 7.88127 14.25 8.12288 14.25C8.36449 14.25 8.56244 14.0541 8.56244 13.8125V11.625C8.56209 11.607 8.56064 11.589 8.55809 11.5712C9.31537 11.3785 9.87603 10.692 9.87603 9.87505C9.87618 9.05894 9.31809 8.37343 8.56244 8.17968ZM8.7432 10.4936C8.60006 10.6368 8.41171 10.7259 8.21024 10.7457C8.00878 10.7656 7.80666 10.7149 7.63834 10.6025C7.47001 10.49 7.34589 10.3227 7.28712 10.1289C7.22835 9.93521 7.23857 9.72711 7.31604 9.54007C7.39351 9.35304 7.53343 9.19866 7.71196 9.10322C7.8905 9.00779 8.0966 8.97721 8.29515 9.0167C8.4937 9.05619 8.67242 9.16331 8.80085 9.31979C8.92928 9.47628 8.99948 9.67246 8.99948 9.8749C8.99981 9.98986 8.97732 10.1038 8.93333 10.21C8.88934 10.3162 8.82472 10.4126 8.7432 10.4936ZM4.18259 3.80472C4.18506 3.78658 4.18639 3.7683 4.18659 3.74999V2.43749C4.18659 2.32156 4.14054 2.21039 4.05857 2.12842C3.9766 2.04645 3.86542 2.0004 3.7495 2.0004C3.63358 2.0004 3.5224 2.04645 3.44043 2.12842C3.35846 2.21039 3.31241 2.32156 3.31241 2.43749V3.74999C3.31207 3.76853 3.31289 3.78707 3.31488 3.80551C2.55923 3.99911 2 4.68463 2 5.50083C2 6.31703 2.55933 7.00225 3.31498 7.1961C3.31304 7.21397 3.3122 7.23195 3.31246 7.24993V13.8125C3.31246 13.8699 3.32376 13.9267 3.34573 13.9797C3.3677 14.0328 3.39989 14.081 3.44048 14.1215C3.48107 14.1621 3.52925 14.1943 3.58228 14.2163C3.63531 14.2383 3.69215 14.2496 3.74955 14.2496C3.80695 14.2496 3.86379 14.2383 3.91682 14.2163C3.96985 14.1943 4.01803 14.1621 4.05862 14.1215C4.09921 14.081 4.1314 14.0328 4.15337 13.9797C4.17533 13.9267 4.18664 13.8699 4.18664 13.8125V7.24998C4.18644 7.23222 4.18517 7.21449 4.18284 7.19689C4.94007 7.00427 5.50014 6.31777 5.50014 5.50083C5.50014 4.68389 4.93992 3.99723 4.18259 3.80472ZM4.36819 6.11957C4.22505 6.26272 4.0367 6.35181 3.83523 6.37165C3.63377 6.3915 3.43165 6.34087 3.26333 6.22841C3.095 6.11594 2.97088 5.94859 2.91211 5.75487C2.85334 5.56114 2.86356 5.35304 2.94103 5.166C3.0185 4.97897 3.15842 4.82459 3.33695 4.72915C3.51549 4.63372 3.72159 4.60314 3.92014 4.64263C4.11869 4.68212 4.29741 4.78924 4.42584 4.94572C4.55427 5.10221 4.62447 5.29839 4.62447 5.50083C4.62479 5.61578 4.6023 5.72966 4.55831 5.83587C4.51432 5.94208 4.4497 6.03851 4.36819 6.11957ZM14.2495 5.50083C14.2495 4.68359 13.6883 3.99723 12.9308 3.80472C12.9327 3.78654 12.9335 3.76827 12.9332 3.74999V2.43749C12.9332 2.32156 12.8871 2.21039 12.8051 2.12842C12.7232 2.04645 12.612 2.0004 12.4961 2.0004C12.3801 2.0004 12.269 2.04645 12.187 2.12842C12.105 2.21039 12.059 2.32156 12.059 2.43749V3.74999C12.0592 3.76857 12.0605 3.78711 12.0631 3.80551C11.3074 3.99911 10.749 4.68463 10.749 5.50083C10.749 6.31703 11.3071 7.00249 12.0627 7.19615C12.0603 7.21427 12.059 7.23253 12.0589 7.25082V13.8125C12.0589 13.9284 12.1049 14.0396 12.1869 14.1215C12.2689 14.2035 12.38 14.2496 12.496 14.2496C12.6119 14.2496 12.7231 14.2035 12.805 14.1215C12.887 14.0396 12.9331 13.9284 12.9331 13.8125V7.25082C12.9334 7.23283 12.9326 7.21484 12.9308 7.19694C13.6883 7.00437 14.2495 6.31801 14.2495 5.50083ZM13.1182 6.11952C12.975 6.26265 12.7867 6.35171 12.5852 6.37153C12.3838 6.39136 12.1817 6.34072 12.0133 6.22824C11.845 6.11576 11.7209 5.94841 11.6622 5.75469C11.6035 5.56097 11.6137 5.35288 11.6912 5.16587C11.7687 4.97885 11.9086 4.82449 12.0871 4.72908C12.2657 4.63367 12.4717 4.60311 12.6703 4.64262C12.8688 4.68213 13.0475 4.78925 13.1759 4.94574C13.3043 5.10223 13.3745 5.2984 13.3745 5.50083C13.3748 5.61578 13.3523 5.72965 13.3083 5.83585C13.2643 5.94205 13.1997 6.03847 13.1182 6.11952Z" fill="#C4C4C4"/>
</svg>
