<svg width="16" height="16" viewBox="0 0 16 16" fill="none" xmlns="http://www.w3.org/2000/svg">
<path fill-rule="evenodd" clip-rule="evenodd" d="M2 3.6257C2 3.15231 2.38376 2.76855 2.85714 2.76855H13.1429C13.6162 2.76855 14 3.15231 14 3.6257V7.05427C14 7.52766 13.6162 7.91141 13.1429 7.91141H11.8571C11.6205 7.91141 11.4286 7.71953 11.4286 7.48284C11.4286 7.24615 11.6205 7.05427 11.8571 7.05427H13.1429V3.6257L2.85714 3.6257V7.05427H4.14286C4.37955 7.05427 4.57143 7.24615 4.57143 7.48284C4.57143 7.71953 4.37955 7.91141 4.14286 7.91141H2.85714C2.38376 7.91141 2 7.52766 2 7.05427V3.6257Z" fill="white"/>
<path fill-rule="evenodd" clip-rule="evenodd" d="M10.1429 6.6257H5.85714L5.85714 13.4828H10.1429V6.6257ZM5.85714 5.76855C5.38376 5.76855 5 6.15231 5 6.6257V13.4828C5 13.9562 5.38376 14.34 5.85714 14.34H10.1429C10.6162 14.34 11 13.9562 11 13.4828V6.6257C11 6.15231 10.6162 5.76855 10.1429 5.76855H5.85714Z" fill="white"/>
<path fill-rule="evenodd" clip-rule="evenodd" d="M6.21436 9.19727C6.21436 8.92112 6.43821 8.69727 6.71436 8.69727H9.28578C9.56193 8.69727 9.78578 8.92112 9.78578 9.19727C9.78578 9.47341 9.56193 9.69727 9.28578 9.69727H6.71436C6.43821 9.69727 6.21436 9.47341 6.21436 9.19727Z" fill="white"/>
<path fill-rule="evenodd" clip-rule="evenodd" d="M6.28564 10.9115C6.28564 10.6748 6.47752 10.4829 6.71422 10.4829H9.28564C9.52234 10.4829 9.71422 10.6748 9.71422 10.9115C9.71422 11.1482 9.52234 11.3401 9.28564 11.3401H6.71422C6.47752 11.3401 6.28564 11.1482 6.28564 10.9115Z" fill="white"/>
</svg>
