<svg width="16" height="16" stroke-width="0" viewBox="0 0 16 16" fill="none" xmlns="http://www.w3.org/2000/svg">
<path d="M11.0806 2.0872V3.51416H4.93346V2.0872H11.0806ZM11.3608 1H4.65325C4.1895 1 3.81262 1.36557 3.81262 1.8154V3.78596C3.81262 4.23579 4.1895 4.60136 4.65325 4.60136H11.3608C11.8245 4.60136 12.2014 4.23579 12.2014 3.78596V1.8154C12.2014 1.36557 11.8245 1 11.3608 1Z" />
<path d="M12.8732 3.1219V13.8781H3.12676V3.1219H4.78873V3.24811C4.78873 3.86796 5.29296 4.37001 5.91549 4.37001H10.0845C10.707 4.37001 11.2113 3.86796 11.2113 3.24811V3.1219H12.8732ZM13.1549 2H10.0845V3.24811H5.91549V2H2.84507C2.37887 2 2 2.37724 2 2.84142V14.1586C2 14.6228 2.37887 15 2.84507 15H13.1549C13.6211 15 14 14.6228 14 14.1586V2.84142C14 2.37724 13.6211 2 13.1549 2Z" />
<path d="M7.85617 10.6782C7.66086 10.8735 7.3443 10.8735 7.14914 10.6782L5.64648 9.17553C5.45117 8.98021 5.45117 8.66365 5.64648 8.4685C5.8418 8.27318 6.15836 8.27318 6.35352 8.4685L7.85617 9.97115C8.05148 10.1663 8.05148 10.4829 7.85617 10.6782Z" />
<path d="M10.688 7.14646C10.8834 7.34178 10.8834 7.65834 10.688 7.8535L7.85961 10.6821C7.6643 10.8774 7.34773 10.8774 7.15258 10.6821C6.95727 10.4868 6.95727 10.1702 7.15258 9.97506L9.98102 7.14662C10.1762 6.95115 10.4927 6.95115 10.688 7.14646Z" />
</svg>
