<svg width="14" height="14" viewBox="0 0 14 14"  xmlns="http://www.w3.org/2000/svg">
<path fill-rule="evenodd" clip-rule="evenodd" d="M2.09998 1.80078C2.09998 1.52464 2.32384 1.30078 2.59998 1.30078H11.4C11.6761 1.30078 11.9 1.52464 11.9 1.80078C11.9 2.07692 11.6761 2.30078 11.4 2.30078H10.5V2.63079V2.96942C10.5 4.61063 9.49957 6.07234 7.99878 6.67811C9.50388 7.28585 10.5 8.74985 10.5 10.3867V11.3682V11.6982H11.3999C11.6761 11.6982 11.8999 11.922 11.8999 12.1982C11.8999 12.4743 11.6761 12.6982 11.3999 12.6982L2.59991 12.6982C2.32377 12.6982 2.09991 12.4743 2.09991 12.1982C2.09991 11.922 2.32377 11.6982 2.59991 11.6982H3.49997L3.49997 11.3681V10.3867C3.49997 8.74985 4.49606 7.28585 6.00116 6.67811C4.50037 6.07234 3.49997 4.61063 3.49997 2.96942V2.63079V2.30078H2.59998C2.32384 2.30078 2.09998 2.07692 2.09998 1.80078ZM4.49997 2.63079H9.49997V2.96942C9.49997 4.28733 8.63986 5.4509 7.37993 5.83747L6.99997 5.95404L6.62001 5.83747C5.36008 5.4509 4.49997 4.28733 4.49997 2.96942V2.63079ZM9.49997 11.3682H4.49997V10.3867C4.49997 9.10714 5.31158 7.9684 6.52114 7.5509L6.99997 7.38562L7.4788 7.5509C8.68836 7.9684 9.49997 9.10714 9.49997 10.3867V11.3682Z" />
</svg>
