<svg width="16" height="16" viewBox="0 0 16 16" xmlns="http://www.w3.org/2000/svg">
<path d="M5.06663 2.13331C5.20503 2.13269 5.33825 2.18589 5.43814 2.28167C5.53804 2.37746 5.59679 2.50832 5.60198 2.64662C5.60717 2.78492 5.5584 2.91982 5.46597 3.02283C5.37354 3.12584 5.24469 3.18888 5.10663 3.19864L5.06663 3.19997H3.19997V13.8666H12.8V3.19997H11.0666C10.9282 3.20059 10.795 3.14739 10.6951 3.05161C10.5952 2.95582 10.5365 2.82496 10.5313 2.68666C10.5261 2.54836 10.5749 2.41345 10.6673 2.31045C10.7597 2.20744 10.8886 2.1444 11.0266 2.13464L11.0666 2.13331H12.8C13.0736 2.13331 13.3368 2.23849 13.5351 2.4271C13.7334 2.61571 13.8516 2.87332 13.8653 3.14664L13.8666 3.19997V13.8666C13.8666 14.1403 13.7615 14.4035 13.5728 14.6018C13.3842 14.8001 13.1266 14.9183 12.8533 14.932L12.8 14.9333H3.19997C2.9263 14.9333 2.66311 14.8281 2.46482 14.6395C2.26653 14.4509 2.14832 14.1933 2.13463 13.92L2.1333 13.8666V3.19997C2.1333 2.92631 2.23848 2.66311 2.42709 2.46482C2.6157 2.26653 2.87331 2.14832 3.14663 2.13464L3.19997 2.13331H5.06663Z" />
<path d="M9.86654 1.06665H6.1332C5.25187 1.06665 4.5332 1.78532 4.5332 2.66665C4.5332 3.54798 5.25187 4.26665 6.1332 4.26665H9.86654C10.7479 4.26665 11.4665 3.54798 11.4665 2.66665C11.4665 1.78532 10.7479 1.06665 9.86654 1.06665V1.06665ZM6.1332 2.13332H9.86654C10.1585 2.13332 10.3999 2.37465 10.3999 2.66665C10.3999 2.95865 10.1585 3.19998 9.86654 3.19998H6.1332C5.8412 3.19998 5.59987 2.95865 5.59987 2.66665C5.59987 2.37465 5.8412 2.13332 6.1332 2.13332Z" />
<path d="M10.5561 6.55617L11.3102 7.31031L7.84352 10.777C7.74351 10.877 7.60788 10.9331 7.46645 10.9331C7.32503 10.9331 7.1894 10.877 7.08939 10.777L4.95605 8.64364L5.71019 7.88951L7.46645 9.64524L10.5561 6.55591V6.55617Z" />
</svg>
