<svg width="16" height="16" viewBox="0 0 16 16" fill="none" xmlns="http://www.w3.org/2000/svg">
<path fill-rule="evenodd" clip-rule="evenodd" d="M13 3H3L3 10H13V3ZM3 2C2.44772 2 2 2.44772 2 3V10C2 10.5523 2.44772 11 3 11H13C13.5523 11 14 10.5523 14 10V3C14 2.44772 13.5523 2 13 2H3Z" fill="#F3F3F3"/>
<path fill-rule="evenodd" clip-rule="evenodd" d="M7.5 14V11H8.5V14H7.5Z" fill="#F3F3F3"/>
<path fill-rule="evenodd" clip-rule="evenodd" d="M4 13.5C4 13.2239 4.22386 13 4.5 13L11.5 13C11.7761 13 12 13.2239 12 13.5C12 13.7761 11.7761 14 11.5 14L4.5 14C4.22386 14 4 13.7761 4 13.5Z" fill="#F3F3F3"/>
<path fill-rule="evenodd" clip-rule="evenodd" d="M5 5.5C5 5.22386 5.22386 5 5.5 5H10.5C10.7761 5 11 5.22386 11 5.5C11 5.77614 10.7761 6 10.5 6H5.5C5.22386 6 5 5.77614 5 5.5Z" fill="#F3F3F3"/>
<path fill-rule="evenodd" clip-rule="evenodd" d="M5 7.5C5 7.22386 5.22386 7 5.5 7H10.5C10.7761 7 11 7.22386 11 7.5C11 7.77614 10.7761 8 10.5 8H5.5C5.22386 8 5 7.77614 5 7.5Z" fill="#F3F3F3"/>
</svg>
