<svg width="32" height="32" viewBox="0 0 32 32" fill="none" xmlns="http://www.w3.org/2000/svg">
<g clip-path="url(#clip0_6401_194715)">
<path d="M18.5 10.5H5.5C3.846 10.5 2.5 11.846 2.5 13.5V26.5C2.5 28.154 3.846 29.5 5.5 29.5H18.5C20.154 29.5 21.5 28.154 21.5 26.5V13.5C21.5 11.846 20.154 10.5 18.5 10.5ZM19.5 26.5C19.5 26.7652 19.3946 27.0196 19.2071 27.2071C19.0196 27.3946 18.7652 27.5 18.5 27.5H5.5C4.949 27.5 4.5 27.052 4.5 26.5V13.5C4.5 12.949 4.949 12.5 5.5 12.5H18.5C19.052 12.5 19.5 12.949 19.5 13.5V26.5Z" />
<path d="M22.5 6.5H9.5C9.23478 6.5 8.98043 6.60536 8.79289 6.79289C8.60536 6.98043 8.5 7.23478 8.5 7.5C8.5 7.76522 8.60536 8.01957 8.79289 8.20711C8.98043 8.39464 9.23478 8.5 9.5 8.5H22.5C23.052 8.5 23.5 8.949 23.5 9.5V22.5C23.5 22.7652 23.6054 23.0196 23.7929 23.2071C23.9804 23.3946 24.2348 23.5 24.5 23.5C24.7652 23.5 25.0196 23.3946 25.2071 23.2071C25.3946 23.0196 25.5 22.7652 25.5 22.5V9.5C25.5 7.846 24.154 6.5 22.5 6.5ZM16.5 23.5H7.5C7.23478 23.5 6.98043 23.6054 6.79289 23.7929C6.60536 23.9804 6.5 24.2348 6.5 24.5C6.5 24.7652 6.60536 25.0196 6.79289 25.2071C6.98043 25.3946 7.23478 25.5 7.5 25.5H16.5C16.7652 25.5 17.0196 25.3946 17.2071 25.2071C17.3946 25.0196 17.5 24.7652 17.5 24.5C17.5 24.2348 17.3946 23.9804 17.2071 23.7929C17.0196 23.6054 16.7652 23.5 16.5 23.5Z" />
<path d="M26.5 2.5H13.5C13.2348 2.5 12.9804 2.60536 12.7929 2.79289C12.6054 2.98043 12.5 3.23478 12.5 3.5C12.5 3.76522 12.6054 4.01957 12.7929 4.20711C12.9804 4.39464 13.2348 4.5 13.5 4.5H26.5C27.052 4.5 27.5 4.949 27.5 5.5V18.5C27.5 18.7652 27.6054 19.0196 27.7929 19.2071C27.9804 19.3946 28.2348 19.5 28.5 19.5C28.7652 19.5 29.0196 19.3946 29.2071 19.2071C29.3946 19.0196 29.5 18.7652 29.5 18.5V5.5C29.5 3.846 28.154 2.5 26.5 2.5Z" />
</g>
<defs>
<clipPath id="clip0_6401_194715">
<rect width="32" height="32" fill="white"/>
</clipPath>
</defs>
</svg>
