<svg viewBox="0 0 16 16" xmlns="http://www.w3.org/2000/svg">
<g clip-path="url(#clip0_8281_34501)">
<path d="M2.75 5.34766H9.25C10.0231 5.34766 10.6523 5.97693 10.6523 6.75V13.25C10.6523 14.0231 10.0231 14.6523 9.25 14.6523H2.75C1.97693 14.6523 1.34766 14.0231 1.34766 13.25V6.75C1.34766 5.97693 1.97693 5.34766 2.75 5.34766ZM9.67261 13.6726C9.78469 13.5605 9.84766 13.4085 9.84766 13.25V6.75C9.84766 6.42063 9.58 6.15234 9.25 6.15234H2.75C2.42057 6.15234 2.15234 6.42057 2.15234 6.75V13.25C2.15234 13.58 2.42063 13.8477 2.75 13.8477H9.25C9.40851 13.8477 9.56052 13.7847 9.67261 13.6726Z" />
<path d="M4.75 3.34766H11.25C12.0231 3.34766 12.6523 3.97693 12.6523 4.75V11.25C12.6523 11.3567 12.61 11.459 12.5345 11.5345C12.459 11.61 12.3567 11.6523 12.25 11.6523C12.1433 11.6523 12.041 11.61 11.9655 11.5345C11.89 11.459 11.8477 11.3567 11.8477 11.25V4.75C11.8477 4.42063 11.58 4.15234 11.25 4.15234H4.75C4.64329 4.15234 4.54095 4.10995 4.4655 4.0345C4.39005 3.95905 4.34766 3.85671 4.34766 3.75C4.34766 3.64329 4.39005 3.54095 4.4655 3.4655C4.54095 3.39005 4.64329 3.34766 4.75 3.34766ZM3.75 11.8477H8.25C8.35671 11.8477 8.45905 11.89 8.5345 11.9655C8.60995 12.041 8.65234 12.1433 8.65234 12.25C8.65234 12.3567 8.60995 12.459 8.5345 12.5345C8.45905 12.61 8.35671 12.6523 8.25 12.6523H3.75C3.64329 12.6523 3.54095 12.61 3.4655 12.5345C3.39005 12.459 3.34766 12.3567 3.34766 12.25C3.34766 12.1433 3.39005 12.041 3.4655 11.9655C3.54095 11.89 3.64329 11.8477 3.75 11.8477Z" />
<path d="M13.25 1.25H6.75C6.61739 1.25 6.49021 1.30268 6.39645 1.39645C6.30268 1.49021 6.25 1.61739 6.25 1.75C6.25 1.88261 6.30268 2.00979 6.39645 2.10355C6.49021 2.19732 6.61739 2.25 6.75 2.25H13.25C13.526 2.25 13.75 2.4745 13.75 2.75V9.25C13.75 9.38261 13.8027 9.50979 13.8964 9.60355C13.9902 9.69732 14.1174 9.75 14.25 9.75C14.3826 9.75 14.5098 9.69732 14.6036 9.60355C14.6973 9.50979 14.75 9.38261 14.75 9.25V2.75C14.75 1.923 14.077 1.25 13.25 1.25Z" />
</g>
<defs>
<clipPath id="clip0_8281_34501">
<rect width="16" height="16" />
</clipPath>
</defs>
</svg>
