<svg width="16" height="16" stroke-width="0" viewBox="0 0 16 16" fill="none" xmlns="http://www.w3.org/2000/svg">
<path d="M9.25 5.25H2.75C1.923 5.25 1.25 5.923 1.25 6.75V13.25C1.25 14.077 1.923 14.75 2.75 14.75H9.25C10.077 14.75 10.75 14.077 10.75 13.25V6.75C10.75 5.923 10.077 5.25 9.25 5.25ZM9.75 13.25C9.75 13.3826 9.69732 13.5098 9.60355 13.6036C9.50979 13.6973 9.38261 13.75 9.25 13.75H2.75C2.4745 13.75 2.25 13.526 2.25 13.25V6.75C2.25 6.4745 2.4745 6.25 2.75 6.25H9.25C9.526 6.25 9.75 6.4745 9.75 6.75V13.25Z" />
<path d="M11.25 3.25H4.75C4.61739 3.25 4.49021 3.30268 4.39645 3.39645C4.30268 3.49021 4.25 3.61739 4.25 3.75C4.25 3.88261 4.30268 4.00979 4.39645 4.10355C4.49021 4.19732 4.61739 4.25 4.75 4.25H11.25C11.526 4.25 11.75 4.4745 11.75 4.75V11.25C11.75 11.3826 11.8027 11.5098 11.8964 11.6036C11.9902 11.6973 12.1174 11.75 12.25 11.75C12.3826 11.75 12.5098 11.6973 12.6036 11.6036C12.6973 11.5098 12.75 11.3826 12.75 11.25V4.75C12.75 3.923 12.077 3.25 11.25 3.25ZM8.25 11.75H3.75C3.61739 11.75 3.49021 11.8027 3.39645 11.8964C3.30268 11.9902 3.25 12.1174 3.25 12.25C3.25 12.3826 3.30268 12.5098 3.39645 12.6036C3.49021 12.6973 3.61739 12.75 3.75 12.75H8.25C8.38261 12.75 8.50979 12.6973 8.60355 12.6036C8.69732 12.5098 8.75 12.3826 8.75 12.25C8.75 12.1174 8.69732 11.9902 8.60355 11.8964C8.50979 11.8027 8.38261 11.75 8.25 11.75Z" />
<path d="M13.25 1.25H6.75C6.61739 1.25 6.49021 1.30268 6.39645 1.39645C6.30268 1.49021 6.25 1.61739 6.25 1.75C6.25 1.88261 6.30268 2.00979 6.39645 2.10355C6.49021 2.19732 6.61739 2.25 6.75 2.25H13.25C13.526 2.25 13.75 2.4745 13.75 2.75V9.25C13.75 9.38261 13.8027 9.50979 13.8964 9.60355C13.9902 9.69732 14.1174 9.75 14.25 9.75C14.3826 9.75 14.5098 9.69732 14.6036 9.60355C14.6973 9.50979 14.75 9.38261 14.75 9.25V2.75C14.75 1.923 14.077 1.25 13.25 1.25Z" />
</svg>
