<svg viewBox="0 0 14 14" xmlns="http://www.w3.org/2000/svg">
<path d="M8.25 4.25H1.75C0.923 4.25 0.25 4.923 0.25 5.75V12.25C0.25 13.077 0.923 13.75 1.75 13.75H8.25C9.077 13.75 9.75 13.077 9.75 12.25V5.75C9.75 4.923 9.077 4.25 8.25 4.25ZM8.75 12.25C8.75 12.3826 8.69732 12.5098 8.60355 12.6036C8.50979 12.6973 8.38261 12.75 8.25 12.75H1.75C1.4745 12.75 1.25 12.526 1.25 12.25V5.75C1.25 5.4745 1.4745 5.25 1.75 5.25H8.25C8.526 5.25 8.75 5.4745 8.75 5.75V12.25Z" />
<path d="M10.25 2.25H3.75C3.61739 2.25 3.49021 2.30268 3.39645 2.39645C3.30268 2.49021 3.25 2.61739 3.25 2.75C3.25 2.88261 3.30268 3.00979 3.39645 3.10355C3.49021 3.19732 3.61739 3.25 3.75 3.25H10.25C10.526 3.25 10.75 3.4745 10.75 3.75V10.25C10.75 10.3826 10.8027 10.5098 10.8964 10.6036C10.9902 10.6973 11.1174 10.75 11.25 10.75C11.3826 10.75 11.5098 10.6973 11.6036 10.6036C11.6973 10.5098 11.75 10.3826 11.75 10.25V3.75C11.75 2.923 11.077 2.25 10.25 2.25ZM7.25 10.75H2.75C2.61739 10.75 2.49021 10.8027 2.39645 10.8964C2.30268 10.9902 2.25 11.1174 2.25 11.25C2.25 11.3826 2.30268 11.5098 2.39645 11.6036C2.49021 11.6973 2.61739 11.75 2.75 11.75H7.25C7.38261 11.75 7.50979 11.6973 7.60355 11.6036C7.69732 11.5098 7.75 11.3826 7.75 11.25C7.75 11.1174 7.69732 10.9902 7.60355 10.8964C7.50979 10.8027 7.38261 10.75 7.25 10.75Z" />
<path d="M12.25 0.25H5.75C5.61739 0.25 5.49021 0.302678 5.39645 0.396447C5.30268 0.490215 5.25 0.617392 5.25 0.75C5.25 0.882608 5.30268 1.00979 5.39645 1.10355C5.49021 1.19732 5.61739 1.25 5.75 1.25H12.25C12.526 1.25 12.75 1.4745 12.75 1.75V8.25C12.75 8.38261 12.8027 8.50979 12.8964 8.60355C12.9902 8.69732 13.1174 8.75 13.25 8.75C13.3826 8.75 13.5098 8.69732 13.6036 8.60355C13.6973 8.50979 13.75 8.38261 13.75 8.25V1.75C13.75 0.923 13.077 0.25 12.25 0.25Z" />
</svg>
