<svg width="16" height="17" viewBox="0 0 16 17" xmlns="http://www.w3.org/2000/svg">
<g clip-path="url(#clip0_15118_173016)">
<path fill-rule="evenodd" clip-rule="evenodd" d="M14 3.5H2V13.5H14V3.5ZM2 2.5C1.44772 2.5 1 2.94772 1 3.5V13.5C1 14.0523 1.44772 14.5 2 14.5H14C14.5523 14.5 15 14.0523 15 13.5V3.5C15 2.94772 14.5523 2.5 14 2.5H2Z" />
<path fill-rule="evenodd" clip-rule="evenodd" d="M9.31369 -6.5L9.44975 -6.63606L9.58582 -6.5H11L10.1569 -7.34317C9.76634 -7.73369 9.13317 -7.73369 8.74265 -7.34317L7.89948 -6.5H9.31369ZM3.41421 3.5H2L7.3855 8.8855C7.77602 9.27603 8.40919 9.27603 8.79971 8.8855L14.1852 3.5H12.771L8.09261 8.1784L3.41421 3.5Z" />
</g>
<defs>
<clipPath id="clip0_15118_173016">
<rect width="16" height="16" transform="translate(0 0.5)"/>
</clipPath>
</defs>
</svg>
