<svg viewBox="0 0 12 12" xmlns="http://www.w3.org/2000/svg">
<g clip-path="url(#clip0_2445_92347)">
<path d="M0.395996 7.40484C0.395996 8.40084 2.904 9.20484 6 9.20484C9.084 9.20484 11.592 8.40084 11.604 7.40484V5.97684C10.452 6.80484 8.22 7.20084 6 7.20084C3.78 7.20084 1.548 6.80484 0.395996 5.96484V7.40484Z" />
<path d="M11.604 8.75997C10.452 9.59997 8.22 9.99597 6 9.99597C3.78 9.99597 1.548 9.59997 0.395996 8.75997V10.392C0.707996 11.304 3.12 12 6 12C8.88 12 11.292 11.304 11.604 10.404V8.75997ZM0.395996 4.59597C0.395996 5.59197 2.904 6.39597 6 6.39597C9.084 6.39597 11.592 5.59197 11.604 4.59597V3.16797C10.452 4.00797 8.22 4.40397 6 4.40397C3.78 4.40397 1.548 4.00797 0.395996 3.16797V4.59597Z" />
<path d="M0.395996 1.8C0.395996 2.27739 0.986416 2.73523 2.03737 3.07279C3.08832 3.41036 4.51372 3.6 6 3.6C7.48627 3.6 8.91167 3.41036 9.96262 3.07279C11.0136 2.73523 11.604 2.27739 11.604 1.8C11.604 1.32261 11.0136 0.864773 9.96262 0.527208C8.91167 0.189642 7.48627 0 6 0C4.51372 0 3.08832 0.189642 2.03737 0.527208C0.986416 0.864773 0.395996 1.32261 0.395996 1.8Z" />
</g>
<defs>
<clipPath id="clip0_2445_92347">
<rect width="12" height="12" />
</clipPath>
</defs>
</svg>
