<svg width="16" height="16" viewBox="0 0 16 16"  xmlns="http://www.w3.org/2000/svg">
<path fill-rule="evenodd" clip-rule="evenodd" d="M1.53437 13.2281L4.70781 10.0547H4.70937L1.53125 6.87813V6.87656L2.37656 6.03125C2.63438 5.77344 3.02031 5.69688 3.35625 5.83594L5.49531 6.72188H5.49687L9.625 3.53906V3.5375L8.52031 2.43281V2.43125L9.15469 1.79688C9.16537 1.7862 9.17624 1.77584 9.18731 1.76582C9.20146 1.75299 9.21591 1.7407 9.23065 1.72894C9.57985 1.45025 10.0875 1.46916 10.4152 1.78567C10.419 1.78936 10.4228 1.7931 10.4266 1.79688L11.0609 2.43118L11.0641 2.42812L13.6047 4.97031L13.6016 4.97344L14.2359 5.60781C14.2386 5.61047 14.2412 5.61314 14.2439 5.61583C14.5635 5.94341 14.5835 6.45332 14.3039 6.80372C14.2946 6.81534 14.285 6.82678 14.2751 6.83803C14.2626 6.85222 14.2495 6.86612 14.2359 6.87969L13.6016 7.51406H13.6L12.4937 6.40938H12.4922L9.30937 10.5359V10.5375L10.1953 12.6781C10.3344 13.0141 10.2578 13.4 10 13.6578L9.15469 14.5031H9.15312L5.97969 11.3266H5.97813L2.80625 14.4984H1.53437V13.2281ZM7.1216 11.0547H7.12443L2.94486 6.87717L3.03625 6.78578L5.29642 7.72188H5.83762L10.625 4.03077V3.40953L11.061 3.84557L11.064 3.84266L12.1906 4.97004L12.1873 4.97338L12.6233 5.40938H12.0006L8.30937 10.1951V10.7363L9.24549 12.9981L9.15425 13.0893L7.1216 11.0547ZM9.27135 13.0606C9.27138 13.0607 9.27131 13.0605 9.27135 13.0606Z" />
</svg>
