<svg width="13" height="13" viewBox="0 0 13 13" fill="none" xmlns="http://www.w3.org/2000/svg">
<g clip-path="url(#clip0_2653_85993)">
<path d="M5.43348 11.5799C5.33488 11.5687 5.24824 11.5086 5.20791 11.4232L4.66864 10.2779C4.45352 9.82202 3.97849 9.53674 3.45564 9.53674C3.40784 9.53674 3.35855 9.53953 3.30925 9.54373L1.97974 9.67938C1.88115 9.68917 1.78255 9.65001 1.7228 9.57449C1.45839 9.24586 1.23581 8.88646 1.06402 8.50887C1.02369 8.42217 1.03564 8.32148 1.09539 8.24736L1.88563 7.23628C2.22921 6.79717 2.22921 6.20702 1.88563 5.76791L1.09539 4.75683C1.03713 4.68131 1.02518 4.58202 1.06402 4.49532C1.23581 4.11774 1.45839 3.75974 1.7228 3.4297C1.78255 3.35558 1.88115 3.31503 1.97974 3.32482L3.30925 3.46047C3.88736 3.5192 4.4341 3.22413 4.66864 2.72628L5.20791 1.58095C5.24824 1.49564 5.33488 1.43551 5.43348 1.42432C5.65008 1.40055 5.87117 1.38796 6.09226 1.38796C6.31185 1.38796 6.53294 1.40055 6.75103 1.42432C6.84963 1.43551 6.93627 1.49564 6.9766 1.58095L7.51588 2.72628C7.75041 3.22413 8.29715 3.5192 8.87526 3.46047L10.2048 3.32482C10.3034 3.31503 10.402 3.35558 10.4617 3.4297C10.7261 3.75834 10.9487 4.11774 11.1205 4.49532C11.1593 4.58202 11.1474 4.68271 11.0891 4.75683L10.2974 5.76511C9.95381 6.20423 9.95381 6.79437 10.2974 7.23349L10.5185 7.51737H11.8151L11.1414 6.65593C11.0682 6.56223 11.0682 6.43637 11.1414 6.34407L11.9316 5.33299C12.208 4.98058 12.2648 4.5107 12.081 4.10795C11.8749 3.65765 11.612 3.23112 11.2968 2.83816C11.0159 2.48994 10.5543 2.30115 10.0912 2.3487L8.76173 2.48435C8.63924 2.49693 8.52272 2.434 8.47342 2.32772L7.93415 1.18239C7.74593 0.782433 7.3396 0.501345 6.87652 0.449602C6.61808 0.420235 6.35517 0.40625 6.09375 0.40625C5.83233 0.40625 5.56942 0.420235 5.31098 0.449602C4.8464 0.501345 4.44157 0.782433 4.25335 1.18239L3.71408 2.32772C3.66478 2.434 3.54826 2.49693 3.42577 2.48435L2.09626 2.3487C1.63317 2.30115 1.17158 2.48854 0.890737 2.83816C0.575539 3.23112 0.311131 3.65765 0.106476 4.10795C-0.0772652 4.5107 -0.0204996 4.98058 0.255859 5.33299L1.0461 6.34407C1.11929 6.43777 1.11929 6.56363 1.0461 6.65593L0.255859 7.66701C-0.0204996 8.01942 -0.0772652 8.4893 0.106476 8.89205C0.312625 9.34235 0.575539 9.76888 0.890737 10.1618C1.14319 10.4751 1.54055 10.6583 1.95434 10.6583C2.00215 10.6583 2.04846 10.6555 2.09626 10.6513L3.42577 10.5157C3.54826 10.5031 3.66478 10.566 3.71408 10.6723L4.25335 11.8176C4.44157 12.2176 4.84789 12.4987 5.31098 12.5504C5.56942 12.5798 5.83233 12.5938 6.09375 12.5938C6.17143 12.5938 6.24911 12.5924 6.32679 12.5896V11.612C6.24911 11.6148 6.17143 11.6162 6.09375 11.6162C5.87117 11.6162 5.65008 11.6036 5.43348 11.5799V11.5799Z" />
<path d="M4.80471 6.5C4.80471 5.78965 5.38233 5.21202 6.09269 5.21202C6.80304 5.21202 7.38067 5.78965 7.38067 6.5C7.38067 6.80686 7.27342 7.08825 7.09398 7.3091H7.95617C8.06448 7.06064 8.125 6.78775 8.125 6.5C8.125 5.37979 7.21396 4.46875 6.09375 4.46875C4.97354 4.46875 4.0625 5.37979 4.0625 6.5C4.0625 7.62021 4.97354 8.53125 6.09375 8.53125C6.14366 8.53125 6.19356 8.52913 6.24347 8.52594V7.77949C6.19462 7.78479 6.14472 7.78798 6.09375 7.78798C5.38233 7.78798 4.80471 7.21035 4.80471 6.5V6.5Z" />
<path d="M12.4403 7.71875H7.05966C6.75105 7.71875 6.5 7.9618 6.5 8.26059C6.5 8.55937 6.75105 8.80243 7.05966 8.80243H12.4403C12.749 8.80243 13 8.55937 13 8.26059C13 7.9618 12.749 7.71875 12.4403 7.71875ZM12.4403 9.61364H7.05966C6.75105 9.61364 6.5 9.85669 6.5 10.1555C6.5 10.4543 6.75105 10.6973 7.05966 10.6973H12.4403C12.749 10.6973 13 10.4543 13 10.1555C13 9.85669 12.749 9.61364 12.4403 9.61364ZM12.4403 11.5101H7.05966C6.75105 11.5101 6.5 11.7531 6.5 12.0519C6.5 12.3507 6.75105 12.5938 7.05966 12.5938H12.4403C12.749 12.5938 13 12.3507 13 12.0519C13 11.7516 12.749 11.5101 12.4403 11.5101Z" />
</g>
<defs>
<clipPath id="clip0_2653_85993">
<rect width="13" height="13" fill="white" transform="matrix(-1 0 0 1 13 0)"/>
</clipPath>
</defs>
</svg>
