<svg  viewBox="0 0 12 12"  xmlns="http://www.w3.org/2000/svg">
<g clip-path="url(#clip0_3094_37006)">
<path fill-rule="evenodd" clip-rule="evenodd" d="M11.1429 0.857143H0.857143V11.1429H11.1429V0.857143ZM0.857143 0C0.383756 0 0 0.383756 0 0.857143V11.1429C0 11.6162 0.383756 12 0.857143 12H11.1429C11.6162 12 12 11.6162 12 11.1429V0.857143C12 0.383756 11.6162 0 11.1429 0H0.857143Z" />
<path d="M1.71423 3.52477V4.21788H2.73878V8.47356H3.25106V4.21788H4.27561V3.52477H1.71423Z" />
<path d="M6.0061 3.42773C5.50697 3.42773 5.12604 3.68418 4.86334 4.21095C4.63128 4.6684 4.51744 5.2714 4.51744 6.00609C4.51744 6.75465 4.6269 7.35072 4.8502 7.79431C5.10415 8.30721 5.49383 8.57059 6.01486 8.57059C6.352 8.57059 6.64097 8.41811 6.88179 8.11314C7.14011 7.78738 7.30212 7.33686 7.37217 6.75465H6.87303C6.81173 7.12893 6.70665 7.4131 6.55778 7.60024C6.41768 7.76659 6.23378 7.85669 6.01048 7.85669C5.66897 7.85669 5.41502 7.68341 5.25302 7.35072C5.10415 7.03882 5.02972 6.5883 5.02972 6.00609C5.02972 5.43775 5.10415 4.99416 5.2574 4.67533C5.42378 4.31491 5.66897 4.14164 5.99735 4.14164C6.21627 4.14164 6.39578 4.21095 6.53589 4.36343C6.68038 4.51591 6.77671 4.75157 6.82925 5.07733H7.32839C7.28022 4.57829 7.14449 4.17629 6.91681 3.88519C6.68038 3.58022 6.37389 3.42773 6.0061 3.42773Z" />
<path d="M7.85564 3.52477V8.47356H8.36792V6.57444H9.1429C9.90474 6.57444 10.2857 6.06154 10.2857 5.04267C10.2857 4.03074 9.90474 3.52477 9.15165 3.52477H7.85564ZM8.36792 4.21788H9.11225C9.33555 4.21788 9.50192 4.28026 9.60701 4.41195C9.71209 4.53671 9.76901 4.74464 9.76901 5.04267C9.76901 5.34071 9.71647 5.55557 9.61139 5.68726C9.5063 5.81202 9.33992 5.88133 9.11225 5.88133H8.36792V4.21788Z" />
</g>
<defs>
<clipPath id="clip0_3094_37006">
<rect width="12" height="12" />
</clipPath>
</defs>
</svg>
