<svg width="12" height="12" viewBox="0 0 12 12" fill="none" xmlns="http://www.w3.org/2000/svg">
<path d="M7.5 2.14286C7.5 3.08324 6.7965 3.78572 6 3.78572C5.2035 3.78572 4.5 3.08324 4.5 2.14286C4.5 1.20248 5.2035 0.5 6 0.5C6.7965 0.5 7.5 1.20248 7.5 2.14286Z" stroke="#C4C4C4"/>
<path d="M10.7 2.57143C10.7 3.27512 10.1756 3.78572 9.6 3.78572C9.02442 3.78572 8.5 3.27512 8.5 2.57143C8.5 1.86775 9.02442 1.35715 9.6 1.35715C10.1756 1.35715 10.7 1.86775 10.7 2.57143Z" stroke="#C4C4C4"/>
<path d="M1.3 2.57143C1.3 3.27512 1.82442 3.78572 2.4 3.78572C2.97558 3.78572 3.5 3.27512 3.5 2.57143C3.5 1.86775 2.97558 1.35715 2.4 1.35715C1.82442 1.35715 1.3 1.86775 1.3 2.57143Z" stroke="#C4C4C4"/>
<mask id="path-4-inside-1_1610_40891" fill="white">
<path d="M3.19922 7.08571C3.19922 5.53931 4.45282 4.28571 5.99922 4.28571V4.28571C7.54562 4.28571 8.79922 5.53931 8.79922 7.08571V11.6143C8.79922 11.8273 8.62653 12 8.41351 12H3.58493C3.37191 12 3.19922 11.8273 3.19922 11.6143V7.08571Z"/>
</mask>
<path d="M7.79922 7.08571V11.6143H9.79922V7.08571H7.79922ZM8.41351 11H3.58493V13H8.41351V11ZM4.19922 11.6143V7.08571H2.19922V11.6143H4.19922ZM3.58493 11C3.92419 11 4.19922 11.275 4.19922 11.6143H2.19922C2.19922 12.3796 2.81962 13 3.58493 13V11ZM7.79922 11.6143C7.79922 11.275 8.07425 11 8.41351 11V13C9.17882 13 9.79922 12.3796 9.79922 11.6143H7.79922ZM5.99922 5.28571C6.99333 5.28571 7.79922 6.09159 7.79922 7.08571H9.79922C9.79922 4.98703 8.0979 3.28571 5.99922 3.28571V5.28571ZM5.99922 3.28571C3.90054 3.28571 2.19922 4.98702 2.19922 7.08571H4.19922C4.19922 6.09159 5.00511 5.28571 5.99922 5.28571V3.28571Z" fill="#C4C4C4" mask="url(#path-4-inside-1_1610_40891)"/>
<path fill-rule="evenodd" clip-rule="evenodd" d="M9.59952 12L11.6139 12C11.8269 12 11.9996 11.8273 11.9996 11.6143V7.08571C11.9996 5.53931 10.746 4.28571 9.19956 4.28571C8.89603 4.28571 8.60378 4.334 8.33008 4.42333C8.75538 4.59029 9.10961 4.89873 9.33485 5.29071C10.2658 5.35988 10.9996 6.1371 10.9996 7.08571V11H9.59952V12Z" fill="#C4C4C4"/>
<path fill-rule="evenodd" clip-rule="evenodd" d="M2.40048 12L0.386147 12C0.173123 12 0.000432908 11.8273 0.000432908 11.6143V7.08571C0.000432908 5.53931 1.25404 4.28571 2.80044 4.28571C3.10397 4.28571 3.39622 4.334 3.66992 4.42333C3.24462 4.59029 2.89039 4.89873 2.66515 5.29071C1.73423 5.35988 1.00043 6.1371 1.00043 7.08571V11H2.40048V12Z" fill="#C4C4C4"/>
</svg>
