<svg width="12" height="12" viewBox="0 0 12 12" fill="none" xmlns="http://www.w3.org/2000/svg">
<g clip-path="url(#clip0_11319_4536)">
<path d="M6.9375 3.9375H2.0625C1.44225 3.9375 0.9375 4.44225 0.9375 5.0625V9.9375C0.9375 10.5577 1.44225 11.0625 2.0625 11.0625H6.9375C7.55775 11.0625 8.0625 10.5577 8.0625 9.9375V5.0625C8.0625 4.44225 7.55775 3.9375 6.9375 3.9375ZM7.3125 9.9375C7.3125 10.037 7.27299 10.1323 7.20267 10.2027C7.13234 10.273 7.03696 10.3125 6.9375 10.3125H2.0625C1.85587 10.3125 1.6875 10.1445 1.6875 9.9375V5.0625C1.6875 4.85587 1.85587 4.6875 2.0625 4.6875H6.9375C7.1445 4.6875 7.3125 4.85587 7.3125 5.0625V9.9375Z" />
<path d="M8.4375 2.4375H3.5625C3.46304 2.4375 3.36766 2.47701 3.29734 2.54734C3.22701 2.61766 3.1875 2.71304 3.1875 2.8125C3.1875 2.91196 3.22701 3.00734 3.29734 3.07766C3.36766 3.14799 3.46304 3.1875 3.5625 3.1875H8.4375C8.6445 3.1875 8.8125 3.35587 8.8125 3.5625V8.4375C8.8125 8.53696 8.85201 8.63234 8.92233 8.70267C8.99266 8.77299 9.08804 8.8125 9.1875 8.8125C9.28696 8.8125 9.38234 8.77299 9.45267 8.70267C9.52299 8.63234 9.5625 8.53696 9.5625 8.4375V3.5625C9.5625 2.94225 9.05775 2.4375 8.4375 2.4375ZM6.1875 8.8125H2.8125C2.71304 8.8125 2.61766 8.85201 2.54734 8.92233C2.47701 8.99266 2.4375 9.08804 2.4375 9.1875C2.4375 9.28696 2.47701 9.38234 2.54734 9.45267C2.61766 9.52299 2.71304 9.5625 2.8125 9.5625H6.1875C6.28696 9.5625 6.38234 9.52299 6.45267 9.45267C6.52299 9.38234 6.5625 9.28696 6.5625 9.1875C6.5625 9.08804 6.52299 8.99266 6.45267 8.92233C6.38234 8.85201 6.28696 8.8125 6.1875 8.8125Z" />
<path d="M9.9375 0.9375H5.0625C4.96304 0.9375 4.86766 0.977009 4.79734 1.04733C4.72701 1.11766 4.6875 1.21304 4.6875 1.3125C4.6875 1.41196 4.72701 1.50734 4.79734 1.57766C4.86766 1.64799 4.96304 1.6875 5.0625 1.6875H9.9375C10.1445 1.6875 10.3125 1.85587 10.3125 2.0625V6.9375C10.3125 7.03696 10.352 7.13234 10.4223 7.20267C10.4927 7.27299 10.588 7.3125 10.6875 7.3125C10.787 7.3125 10.8823 7.27299 10.9527 7.20267C11.023 7.13234 11.0625 7.03696 11.0625 6.9375V2.0625C11.0625 1.44225 10.5578 0.9375 9.9375 0.9375Z" />
</g>
<defs>
<clipPath id="clip0_11319_4536">
<rect width="12" height="12" />
</clipPath>
</defs>
</svg>
