<svg width="16" height="16" viewBox="0 0 16 16" fill="none" xmlns="http://www.w3.org/2000/svg">
<path d="M2.76934 12.3079H6.46165V13.5386H1.53857V2.46173H6.46165V3.6925H2.76934V12.3079ZM9.53857 12.3079H10.7693V13.5386H9.53857V12.3079ZM11.3847 12.3079H12.6155V13.5386H11.3847V12.3079ZM13.2309 13.5386V12.3079H14.4617V13.5386H13.2309ZM13.2309 9.23096V8.00019H14.4617V9.23096H13.2309ZM13.2309 11.0771V9.84634H14.4617V11.0771H13.2309ZM13.2309 7.3848V6.15403H14.4617V7.3848H13.2309ZM13.2309 5.53865V4.30788H14.4617V5.53865H13.2309ZM13.2309 3.6925V2.46173H14.4617V3.6925H13.2309ZM12.6155 3.6925H11.3847V2.46173H12.6155V3.6925ZM10.7693 3.6925H9.53857V2.46173H10.7693V3.6925ZM7.69242 1.23096H8.92319V14.7694H7.69242V1.23096Z" />
</svg>
