<svg width="16" height="17" viewBox="0 0 16 17" fill="none" xmlns="http://www.w3.org/2000/svg">
<path d="M8.1422 6.38643C8.47657 6.6333 8.98439 6.4833 9.27501 6.05361C9.56564 5.62393 9.5297 5.07393 9.19532 4.82705C8.86095 4.58174 8.35314 4.73018 8.06251 5.16143C7.77189 5.58955 7.80782 6.13799 8.1422 6.38643ZM8.65158 11.0958C8.65158 11.0958 7.77032 11.6474 7.98907 10.9505C7.98907 10.9505 8.05939 10.6458 8.30001 10.0067C8.4922 9.4958 8.80626 8.77393 9.19064 7.81299C9.19064 7.81299 9.3922 7.32861 8.54845 7.4208C8.18439 7.45986 7.73751 7.62549 7.36876 7.81299C6.88595 8.0583 6.51407 8.3458 6.39532 8.45205L6.68439 8.62705C6.68439 8.62705 8.31876 7.40674 7.90626 8.42393C7.49376 9.43955 6.8297 10.938 6.85001 11.5474C6.87032 12.1567 7.98907 11.7958 7.98907 11.7958C7.98907 11.7958 8.28908 11.6661 8.63126 11.4755C9.08283 11.2239 9.6047 10.8786 9.6047 10.8786L9.33595 10.6896L8.65158 11.0958ZM7.99845 1.89893C4.46407 1.89893 1.59845 4.76455 1.59845 8.29893C1.59845 11.8333 4.46407 14.6989 7.99845 14.6989C11.5328 14.6989 14.3984 11.8333 14.3984 8.29893C14.3984 4.76455 11.5328 1.89893 7.99845 1.89893ZM11.9719 12.2724C10.911 13.3333 9.50001 13.9177 7.99845 13.9177C6.49689 13.9177 5.08595 13.3333 4.02501 12.2724C2.96407 11.2114 2.3797 9.80049 2.3797 8.29893C2.3797 6.79736 2.96407 5.38643 4.02501 4.32549C5.08595 3.26455 6.49689 2.68018 7.99845 2.68018C9.49845 2.68018 10.9094 3.26455 11.9719 4.32549C13.0344 5.38643 13.6172 6.79893 13.6172 8.29893C13.6172 9.80049 13.0328 11.2114 11.9719 12.2724Z" />
</svg>
