<svg viewBox="0 0 32 11" fill="none" xmlns="http://www.w3.org/2000/svg">
<path d="M0.07 0.00399935L3.626 10H5.6L9.156 0.00399935H7.378L4.634 8.152H4.592L1.848 0.00399935H0.07ZM10.2085 0.00399935V6.206C10.2085 7.508 10.5725 8.502 11.3145 9.202C12.0145 9.86 13.0365 10.196 14.3665 10.196C15.6825 10.196 16.7045 9.86 17.4325 9.188C18.1605 8.502 18.5245 7.508 18.5245 6.206V0.00399935H16.8865V6.234C16.8865 7.102 16.6765 7.732 16.2845 8.152C15.8785 8.558 15.2345 8.768 14.3665 8.768C13.4845 8.768 12.8405 8.558 12.4485 8.152C12.0425 7.732 11.8465 7.102 11.8465 6.234V0.00399935H10.2085ZM20.4898 0.00399935V10H22.1278V3.112H22.1838L25.1238 10H26.5378L29.4778 3.112H29.5338V10H31.1718V0.00399935H29.2538L25.8658 7.844H25.8098L22.4078 0.00399935H20.4898Z" />
</svg>
