<svg width="161" height="102" viewBox="0 0 161 102" fill="none" xmlns="http://www.w3.org/2000/svg">
<rect width="161" height="102" rx="10" fill="#C4C4C4"/>
<path d="M20.32 29.728V37.68H21.968V27.136C22.576 25.968 23.088 24.752 23.472 23.472L21.968 22.768C21.232 25.392 20.08 27.664 18.544 29.616L19.056 31.28C19.504 30.768 19.92 30.256 20.32 29.728ZM23.024 25.36V26.96H25.728C24.976 29.648 23.808 31.872 22.208 33.616L23.072 35.056C24.864 33.008 26.176 30.416 26.976 27.264V32.96H24.832V34.56H26.976V37.68H28.624V34.56H30.832V32.96H28.624V27.248C29.344 30.048 30.592 32.592 32.352 34.864L33.44 33.488C31.76 31.568 30.56 29.392 29.856 26.96H32.8V25.36H28.624V22.832H26.976V25.36H23.024ZM42.464 27.984V28.848H47.056V27.92C47.536 28.432 48.08 28.912 48.688 29.392L49.6 28C47.68 26.528 46.32 24.816 45.536 22.864H44.064C43.12 24.992 41.776 26.72 40.016 28.048L40.896 29.392C41.44 28.976 41.968 28.512 42.464 27.984ZM46.56 27.344H43.024C43.68 26.512 44.272 25.568 44.8 24.496C45.248 25.52 45.824 26.464 46.56 27.344ZM40.48 35.568V37.168H49.376V35.568H47.184C47.776 33.92 48.272 32.048 48.688 29.968L47.088 29.552C46.656 31.904 46.16 33.904 45.616 35.568H40.48ZM42.336 30.016L40.912 30.512C41.424 31.888 41.856 33.344 42.208 34.864L43.632 34.528C43.248 32.832 42.816 31.328 42.336 30.016ZM44.8 29.52L43.376 29.984C43.792 31.328 44.144 32.736 44.416 34.192L45.84 33.856C45.536 32.224 45.184 30.768 44.8 29.52ZM38.528 24.944L37.856 30.032H36.432L37.04 25.872L35.52 25.792L34.768 31.504H38.784C38.784 33.664 38.704 34.96 38.56 35.408C38.416 35.84 38 36.064 37.312 36.064C37.088 36.064 36.704 36.016 36.144 35.936L36.592 37.408C36.96 37.44 37.312 37.472 37.664 37.472C38.752 37.472 39.472 37.168 39.808 36.592C40.144 36.016 40.32 33.824 40.32 30.032H39.424L40.176 23.44H34.832V24.944H38.528ZM38.176 32.48C37.104 32.832 35.856 33.12 34.432 33.344L34.64 34.912C35.952 34.672 37.136 34.352 38.176 33.968V32.48ZM54.368 23.04V27.088H53.184V23.344H51.536V29.248C51.52 32.48 51.184 34.848 50.544 36.32L51.808 37.424C52.448 36.176 52.88 34.384 53.072 32.08H54.576V37.6H56.208V36.384L57.328 37.6C58.368 35.744 58.928 33.248 58.992 30.128V28.944H59.28C59.568 30.944 60.112 32.64 60.896 34.048C60.16 34.912 59.248 35.648 58.176 36.24L58.96 37.744C60.08 37.136 61.04 36.384 61.872 35.456C62.624 36.4 63.552 37.152 64.64 37.728L65.472 36.24C64.464 35.744 63.6 35.04 62.896 34.112C63.824 32.656 64.448 30.88 64.8 28.8V27.376H58.992V25.392C61.232 25.296 63.28 24.976 65.104 24.432L64.304 22.944C62.288 23.584 60.016 23.92 57.472 23.968V30.128C57.408 32.752 56.992 34.832 56.208 36.336V30.496H53.152C53.168 30.096 53.184 29.68 53.184 29.248V28.736H56.704V27.088H56V23.04H54.368ZM60.784 28.944H63.2C62.96 30.272 62.544 31.472 61.936 32.56C61.424 31.52 61.04 30.32 60.784 28.944Z" fill="#666666"/>
<mask id="mask0_3102_87556" style="mask-type:alpha" maskUnits="userSpaceOnUse" x="0" y="0" width="161" height="102">
<rect width="161" height="102" rx="10" fill="#F5DFB4"/>
</mask>
<g mask="url(#mask0_3102_87556)">
<g filter="url(#filter0_d_3102_87556)">
<path d="M96 -8C97.3214 -0.68277 105.514 15.5594 127.713 21.9903C149.912 28.4213 161.154 47.343 164 56" stroke="#747474" stroke-width="3"/>
</g>
<g filter="url(#filter1_f_3102_87556)">
<path d="M130.941 56C145.341 24.8 166.608 5.66667 175.441 0L185.941 115L37.441 119C14.2743 110.833 -25.159 95 2.44097 97C36.941 99.5 112.941 95 130.941 56Z" fill="#8E8E8E"/>
</g>
</g>
<defs>
<filter id="filter0_d_3102_87556" x="90.5239" y="-8.26562" width="78.9011" height="72.7344" filterUnits="userSpaceOnUse" color-interpolation-filters="sRGB">
<feFlood flood-opacity="0" result="BackgroundImageFix"/>
<feColorMatrix in="SourceAlpha" type="matrix" values="0 0 0 0 0 0 0 0 0 0 0 0 0 0 0 0 0 0 127 0" result="hardAlpha"/>
<feOffset dy="4"/>
<feGaussianBlur stdDeviation="2"/>
<feComposite in2="hardAlpha" operator="out"/>
<feColorMatrix type="matrix" values="0 0 0 0 0 0 0 0 0 0 0 0 0 0 0 0 0 0 0.25 0"/>
<feBlend mode="normal" in2="BackgroundImageFix" result="effect1_dropShadow_3102_87556"/>
<feBlend mode="normal" in="SourceGraphic" in2="effect1_dropShadow_3102_87556" result="shape"/>
</filter>
<filter id="filter1_f_3102_87556" x="-32" y="-25" width="242.941" height="169" filterUnits="userSpaceOnUse" color-interpolation-filters="sRGB">
<feFlood flood-opacity="0" result="BackgroundImageFix"/>
<feBlend mode="normal" in="SourceGraphic" in2="BackgroundImageFix" result="shape"/>
<feGaussianBlur stdDeviation="12.5" result="effect1_foregroundBlur_3102_87556"/>
</filter>
</defs>
</svg>
