<svg viewBox="0 0 12 12"  xmlns="http://www.w3.org/2000/svg">
<g clip-path="url(#clip0_3147_98308)">
<path d="M1.5 3.88486L2.7953 8.86514H3.34727L4.24515 4.8578L5.12831 8.86514H5.68765L6.98295 3.88486H6.3353L5.40062 7.9211L4.51746 3.88486H3.96549L3.08233 7.9211L2.14765 3.88486H1.5Z" />
<path d="M8.822 3.75C8.39514 3.75 8.04187 3.87523 7.77693 4.12569C7.4899 4.37615 7.35007 4.70367 7.35007 5.12752C7.35007 5.55138 7.4899 5.86927 7.78429 6.10046C7.96092 6.25459 8.27738 6.39908 8.72632 6.54358C9.13846 6.67844 9.41077 6.7844 9.53588 6.86147C9.77139 7.0156 9.89651 7.22752 9.89651 7.50688C9.89651 8.0656 9.5506 8.35459 8.87352 8.35459C8.54969 8.35459 8.30682 8.27752 8.14491 8.12339C7.983 7.95 7.8726 7.67064 7.82844 7.27569H7.25439C7.34271 8.42202 7.88732 9 8.88823 9C9.96274 9 10.5 8.47982 10.5 7.45872C10.5 7.02523 10.3454 6.68807 10.0437 6.43761C9.84499 6.27385 9.52116 6.11972 9.06487 5.97523C8.68216 5.84037 8.41722 5.7344 8.27738 5.64771C8.05659 5.50321 7.95356 5.32018 7.95356 5.10826C7.95356 4.8867 8.03451 4.7133 8.19643 4.58807C8.34362 4.45321 8.54969 4.39541 8.81464 4.39541C9.11638 4.39541 9.35189 4.47248 9.51381 4.62661C9.661 4.76147 9.75667 4.99266 9.80819 5.30092H10.3822C10.2792 4.26055 9.76403 3.75 8.822 3.75Z" />
<path fill-rule="evenodd" clip-rule="evenodd" d="M11.25 0.75H0.75V11.25H11.25V0.75ZM0.75 0C0.335786 0 0 0.335786 0 0.75V11.25C0 11.6642 0.335786 12 0.75 12H11.25C11.6642 12 12 11.6642 12 11.25V0.75C12 0.335786 11.6642 0 11.25 0H0.75Z" />
</g>
<defs>
<clipPath id="clip0_3147_98308">
<rect width="12" height="12" />
</clipPath>
</defs>
</svg>
