<svg viewBox="0 0 45 50" fill="none" xmlns="http://www.w3.org/2000/svg">
<path d="M38.5097 18.2159L37.0493 19.0472L35.5909 19.8785L34.1304 20.7099L32.6721 21.5412L31.2116 22.3725L29.7511 23.2038L28.2928 24.0352L26.8344 24.8665L25.3846 25.6978L23.9242 26.5418L22.9512 27.0946C22.8035 27.179 22.6809 27.3002 22.5957 27.4461C22.5105 27.592 22.4657 27.7575 22.4658 27.9259V42.3411C22.4659 42.5092 22.5108 42.6744 22.596 42.82C22.6813 42.9655 22.8038 43.0864 22.9514 43.1704C23.099 43.2545 23.2663 43.2987 23.4367 43.2987C23.6071 43.2987 23.7745 43.2544 23.922 43.1703L25.3846 42.3285L26.843 41.4971L28.3035 40.6658L29.764 39.8345L31.2223 39.0032L32.6828 38.1719L34.1411 37.3405L35.6016 36.5092L37.06 35.6779L38.5204 34.8339L39.4934 34.2811C39.6408 34.1969 39.7632 34.076 39.8483 33.9305C39.9335 33.785 39.9785 33.6199 39.9788 33.4519V25.6873C39.9787 25.5191 39.9338 25.354 39.8486 25.2084C39.7633 25.0629 39.6408 24.942 39.4932 24.8579C39.3456 24.7739 39.1783 24.7297 39.0079 24.7297C38.8375 24.7297 38.6701 24.774 38.5226 24.858V24.858L37.0621 25.6894L35.6037 26.5207L34.1433 27.352L32.6849 28.1833L31.7098 28.7382C31.5625 28.8225 31.4401 28.9434 31.3549 29.0889C31.2697 29.2344 31.2247 29.3994 31.2244 29.5675V30.6773C31.2245 30.8454 31.2694 31.0106 31.3546 31.1561C31.4399 31.3017 31.5624 31.4226 31.71 31.5066C31.8576 31.5906 32.025 31.6349 32.1953 31.6348C32.3657 31.6348 32.5331 31.5906 32.6806 31.5065L34.1411 30.6752L35.6016 29.8439C35.7492 29.7598 35.9165 29.7155 36.0869 29.7155C36.2573 29.7155 36.4247 29.7597 36.5722 29.8438C36.7198 29.9278 36.8424 30.0487 36.9276 30.1942C37.0128 30.3398 37.0577 30.505 37.0578 30.6731V30.6731V31.785C37.058 31.9532 37.0132 32.1183 36.9279 32.2639C36.8427 32.4095 36.7201 32.5304 36.5724 32.6142L35.5995 33.1692L34.139 34.0131L32.6785 34.8445L31.2202 35.6758L29.7618 36.5071L28.3013 37.3384L26.8344 38.1719C26.6869 38.2559 26.5195 38.3002 26.3491 38.3002C26.1787 38.3002 26.0114 38.256 25.8638 38.172C25.7162 38.0879 25.5937 37.967 25.5084 37.8215C25.4232 37.6759 25.3783 37.5108 25.3782 37.3426V29.578C25.3785 29.41 25.4235 29.2449 25.5087 29.0994C25.5939 28.9539 25.7163 28.833 25.8636 28.7488L26.8387 28.1939L28.2971 27.3626L29.7575 26.5186L31.2159 25.6894L32.6764 24.858L34.1304 24.0352L35.5909 23.1912L37.0493 22.362L38.5097 21.5285L39.4827 20.9757C39.6301 20.8915 39.7525 20.7706 39.8376 20.6251C39.9228 20.4796 39.9678 20.3146 39.9681 20.1465V19.0472C39.968 18.8791 39.9231 18.714 39.8379 18.5684C39.7526 18.4228 39.6301 18.302 39.4825 18.2179C39.335 18.1339 39.1676 18.0897 38.9972 18.0897C38.8268 18.0897 38.6594 18.134 38.5119 18.218L38.5097 18.2159Z" fill="#4052EC" fill-opacity="0.2"/>
<path fill-rule="evenodd" clip-rule="evenodd" d="M28.7839 19.2689C29.0948 19.3771 29.4233 19.433 29.7556 19.433C30.2683 19.433 30.772 19.2999 31.2161 19.0469L32.6744 18.2156L34.1349 17.3842L35.5954 16.5529L37.0537 15.7216C37.2021 15.6375 37.3254 15.5162 37.4111 15.3701C37.4968 15.2239 37.5419 15.0581 37.5419 14.8892C37.5419 14.7204 37.4968 14.5545 37.4111 14.4084C37.3254 14.2622 37.2021 14.141 37.0537 14.0568L35.5954 13.2255L34.1349 12.3942L32.6766 11.5629L31.2118 10.7421L29.7513 9.89813L28.293 9.06681L26.8325 8.23549L25.3849 7.40627L23.9244 6.57495L22.4553 7.40416L20.9949 8.24815L19.5365 9.07736L18.076 9.89813L16.6177 10.7421L15.1593 11.5734L13.6989 12.4048L12.2384 13.2361L10.78 14.0674V17.3842L12.2405 16.5529L13.6989 15.7216L15.1593 14.8903L16.6177 14.059L18.0782 13.2255L19.5386 14.059L20.997 14.8882L22.4553 15.7216L23.9158 16.5529L24.8192 17.0642C27.0997 18.5137 25.2351 19.6213 25.2351 19.6213L22.4553 21.6194V23.7293L22.466 24.8139C22.466 24.8139 23.1332 24.3644 26.3578 22.3051C28.0762 21.2077 28.6359 20.0815 28.7839 19.2689ZM23.9158 9.89813L22.4553 10.7421L20.9949 11.5629L22.4553 12.3942L23.9244 13.2255L25.3849 14.059L26.8475 14.8987L28.3058 15.73C28.7491 15.9831 29.2521 16.1163 29.7642 16.1163C30.2762 16.1163 30.7793 15.9831 31.2225 15.73C31.3704 15.6458 31.4932 15.5246 31.5785 15.3787C31.6639 15.2327 31.7088 15.0672 31.7088 14.8987C31.7088 14.7302 31.6639 14.5647 31.5785 14.4188C31.4932 14.2729 31.3704 14.1517 31.2225 14.0674L29.7642 13.2361L28.3037 12.4048L26.8432 11.5734L25.3849 10.7421L23.9158 9.89813Z" fill="#4052EC" fill-opacity="0.2"/>
<path fill-rule="evenodd" clip-rule="evenodd" d="M41.216 12.7972L23.7446 2.8439C22.9731 2.40439 22.0269 2.40439 21.2554 2.8439L3.78398 12.7972C2.99898 13.2444 2.51427 14.0784 2.51427 14.9818V34.7726C2.51427 35.676 2.99898 36.51 3.78398 36.9572L21.2554 46.9105C22.0269 47.35 22.9731 47.35 23.7446 46.9105L41.216 36.9572C42.001 36.51 42.4857 35.676 42.4857 34.7726V14.9818C42.4857 14.0784 42.001 13.2444 41.216 12.7972ZM24.9891 0.659271C23.4461 -0.219757 21.5539 -0.219757 20.0109 0.659272L2.53942 10.6126C0.969427 11.507 0 13.1749 0 14.9818V34.7726C0 36.5795 0.969428 38.2475 2.53942 39.1419L20.0109 49.0951C21.5539 49.9742 23.4461 49.9742 24.9891 49.0951L42.4606 39.1419C44.0306 38.2475 45 36.5795 45 34.7726V14.9818C45 13.1749 44.0306 11.507 42.4606 10.6126L24.9891 0.659271Z" fill="url(#paint0_linear_227_29993)"/>
<path d="M9.70547 32.5283C9.5516 27.3677 8.11645 25.6383 6.87469 24.4729C9.89313 25.3418 15.5585 26.1671 15.0367 30.7623C14.3736 36.603 16.7596 39.4808 18.5334 41.2291C14.1826 40.4512 9.83728 36.9488 9.70547 32.5283Z" fill="#4052EC" fill-opacity="0.2"/>
<defs>
<linearGradient id="paint0_linear_227_29993" x1="44.493" y1="24.758" x2="19.5063" y2="24.758" gradientUnits="userSpaceOnUse">
<stop stop-color="#4052EC" stop-opacity="0.1"/>
<stop offset="1" stop-color="#4052EC" stop-opacity="0"/>
</linearGradient>
</defs>
</svg>
