<svg width="125" height="158" viewBox="0 0 125 158" fill="none" xmlns="http://www.w3.org/2000/svg">
<path fill-rule="evenodd" clip-rule="evenodd" d="M41.6681 74.736C41.9449 74.3532 42.0577 73.9003 41.9886 73.4618C41.9195 73.0232 41.6684 72.5988 41.3021 72.334C40.9358 72.0691 40.4541 71.9638 40.016 72.0357C39.5779 72.1076 39.1833 72.3567 38.9065 72.7395L32.3331 81.8319C32.0563 82.2147 31.9435 82.6675 32.0126 83.1061C32.0817 83.5447 32.3327 83.969 32.6991 84.2339C33.0654 84.4987 33.5471 84.604 33.9852 84.5322C34.4233 84.4603 34.8179 84.2112 35.0947 83.8284L41.6681 74.736ZM49.3601 76.927C49.8678 76.1316 49.633 75.0722 48.8386 74.5651C48.0441 74.0579 46.9843 74.291 46.4766 75.0863L36.5127 90.6954C36.005 91.4908 36.2398 92.5503 37.0343 93.0574C37.8287 93.5645 38.8885 93.3314 39.3962 92.5361L49.3601 76.927ZM54.7888 79.3258C55.6018 79.8026 55.8805 80.8453 55.3902 81.6813L49.2085 92.222C48.7183 93.058 47.6722 93.3237 46.8592 92.8469C46.0462 92.3701 45.7674 91.3274 46.2577 90.4914L52.4394 79.9507C52.9296 79.1147 53.9758 78.849 54.7888 79.3258Z" fill="#1A1A1D"/>
<path d="M58.0042 66.2352C62.0834 66.2352 65.3903 62.9283 65.3903 58.849C65.3903 54.7698 62.0834 51.4629 58.0042 51.4629C53.9249 51.4629 50.618 54.7698 50.618 58.849C50.618 62.9283 53.9249 66.2352 58.0042 66.2352Z" fill="#1A1A1D"/>
<path fill-rule="evenodd" clip-rule="evenodd" d="M76.5047 88.4333C94.6578 82.5351 107.78 65.4802 107.78 45.3603C107.78 20.3527 87.5076 0.0800781 62.5 0.0800781C37.4924 0.0800781 17.2197 20.3527 17.2197 45.3603C17.2197 49.7429 17.8424 53.9801 19.004 57.9882L64.5185 35.373C68.1924 33.5475 72.5457 36.0234 72.8547 40.1142L76.5047 88.4333Z" fill="#1A1A1D"/>
<path fill-rule="evenodd" clip-rule="evenodd" d="M103.284 45.3603C103.284 67.8849 85.0247 86.1447 62.5001 86.1447C60.8271 86.1447 59.1776 86.0439 57.5573 85.8482L55.1346 90.0445C57.5317 90.4367 59.9921 90.6406 62.5001 90.6406C87.5077 90.6406 107.78 70.3679 107.78 45.3603C107.78 20.3527 87.5077 0.0800781 62.5001 0.0800781C37.4925 0.0800781 17.2198 20.3527 17.2198 45.3603C17.2198 58.3816 22.7161 70.119 31.5153 78.3794L33.8312 74.3682C26.3508 66.9747 21.7158 56.7088 21.7158 45.3603C21.7158 22.8358 39.9755 4.57599 62.5001 4.57599C85.0247 4.57599 103.284 22.8358 103.284 45.3603Z" fill="#1A1A1D"/>
<path d="M102.194 125.163L102.193 125.163L102.206 125.169C103.09 125.58 103.389 126.06 103.389 126.574C103.389 126.833 103.328 127.04 103.221 127.211C103.112 127.384 102.938 127.547 102.671 127.69C102.125 127.983 101.241 128.161 99.9619 128.161C98.778 128.161 98.0187 127.943 97.5811 127.643C97.2716 127.384 97.0044 126.988 96.8108 126.408C96.604 125.789 96.0392 125.259 95.2988 125.259H93.5955C92.7353 125.259 91.973 126.017 92.1751 126.948C92.5497 128.672 93.4091 130.005 94.7697 130.896C96.1165 131.777 97.9059 132.193 100.093 132.193C102.673 132.193 104.701 131.74 106.096 130.757C107.522 129.751 108.218 128.241 108.218 126.313C108.218 124.633 107.436 123.273 105.963 122.34C104.969 121.671 103.46 121.134 101.554 120.675C99.8531 120.252 98.7759 119.934 98.2568 119.721C97.3891 119.35 97.2219 118.985 97.2219 118.78C97.2219 118.522 97.2735 118.339 97.3555 118.202C97.4365 118.066 97.5696 117.939 97.7958 117.826L97.813 117.817L97.8294 117.807C98.2 117.586 98.8387 117.454 99.7983 117.454C100.918 117.454 101.648 117.618 102.08 117.896L102.08 117.896L102.087 117.901C102.352 118.066 102.601 118.356 102.813 118.798C103.066 119.325 103.594 119.77 104.267 119.77H106.046C106.912 119.77 107.694 118.991 107.447 118.045C107.042 116.502 106.183 115.327 104.878 114.549C103.588 113.78 101.901 113.422 99.8638 113.422C97.7106 113.422 95.9302 113.856 94.5422 114.845C93.0902 115.79 92.3928 117.156 92.3928 118.878C92.3928 120.528 93.1448 121.824 94.59 122.725C95.4856 123.296 96.9642 123.799 98.9667 124.257C99.8156 124.452 100.51 124.621 101.055 124.773C101.608 124.927 101.978 125.055 102.194 125.163Z" fill="#1A1A1D" stroke="#1A1A1D"/>
<path d="M56.1365 110.393C56.1365 109.84 56.5842 109.393 57.1365 109.393H61.591V131.943C61.591 132.495 61.1433 132.943 60.591 132.943H57.1365C56.5842 132.943 56.1365 132.495 56.1365 131.943V110.393Z" fill="#1A1A1D"/>
<path d="M27.9547 115.762C27.9547 115.209 28.4024 114.762 28.9547 114.762H33.4093V137.312C33.4093 137.864 32.9615 138.312 32.4093 138.312H28.9547C28.4024 138.312 27.9547 137.864 27.9547 137.312V115.762Z" fill="#1A1A1D"/>
<path d="M110.773 120.262C110.221 120.262 109.773 119.814 109.773 119.262L109.773 115.827C109.773 115.275 110.221 114.827 110.773 114.827L121.5 114.827C122.052 114.827 122.5 115.275 122.5 115.827L122.5 119.262C122.5 119.814 122.052 120.262 121.5 120.262L110.773 120.262Z" fill="#1A1A1D"/>
<path d="M113.409 112.205C113.409 111.653 113.857 111.205 114.409 111.205H117.864C118.416 111.205 118.864 111.653 118.864 112.205V132.944H117.409C115.2 132.944 113.409 131.153 113.409 128.944V112.205Z" fill="#1A1A1D"/>
<rect x="47.0455" y="117.479" width="5.45455" height="15.3983" rx="1" fill="#1A1A1D"/>
<rect x="47.0455" y="109.326" width="5.45455" height="5.43469" rx="1" fill="#1A1A1D"/>
<path fill-rule="evenodd" clip-rule="evenodd" d="M66.163 109.393H61.5911V113.921H65.2374C66.7381 113.921 67.9547 115.138 67.9547 116.639C67.9547 118.14 66.7381 119.356 65.2374 119.356H61.5911V123.885H66.163C70.165 123.885 73.4092 120.641 73.4092 116.639C73.4092 112.637 70.165 109.393 66.163 109.393Z" fill="#1A1A1D"/>
<path fill-rule="evenodd" clip-rule="evenodd" d="M37.9811 114.762H33.4092V119.291H37.0555C38.5562 119.291 39.7728 120.507 39.7728 122.008C39.7728 123.509 38.5562 124.725 37.0555 124.725H33.4092V129.254H37.9811C41.9831 129.254 45.2274 126.01 45.2274 122.008C45.2274 118.006 41.9831 114.762 37.9811 114.762Z" fill="#1A1A1D"/>
<path fill-rule="evenodd" clip-rule="evenodd" d="M82.0455 132.943C86.8153 132.943 90.6819 128.723 90.6819 123.518C90.6819 118.313 86.8153 114.094 82.0455 114.094C77.2758 114.094 73.4092 118.313 73.4092 123.518C73.4092 128.723 77.2758 132.943 82.0455 132.943ZM82.0455 128.026C84.0897 128.026 85.7468 126.008 85.7468 123.518C85.7468 121.029 84.0897 119.011 82.0455 119.011C80.0014 119.011 78.3442 121.029 78.3442 123.518C78.3442 126.008 80.0014 128.026 82.0455 128.026Z" fill="#1A1A1D"/>
<path d="M118.864 127.508H121.5C122.052 127.508 122.5 127.956 122.5 128.508V131.943C122.5 132.495 122.052 132.943 121.5 132.943H118.864V127.508Z" fill="#1A1A1D"/>
<path d="M11.6701 110.57C11.8776 110.058 12.4613 109.81 12.9736 110.017L17.0456 111.656L9.10914 132.547C8.96138 132.936 8.58802 133.193 8.17162 133.193L3.9823 133.193C3.27321 133.193 2.79031 132.477 3.05648 131.821L11.6701 110.57Z" fill="#1A1A1D"/>
<path d="M12.5001 109.779H17.9547L18.8638 112.044H12.5001V109.779Z" fill="#1A1A1D"/>
<path d="M18.7474 110.519C18.5574 110.027 18.0172 109.766 17.5134 109.923L13.4092 111.204L21.1861 132.535C21.3303 132.931 21.707 133.194 22.1283 133.194L26.0448 133.194C26.7467 133.194 27.2294 132.491 26.9768 131.837L18.7474 110.519Z" fill="#1A1A1D"/>
<rect x="8.86377" y="123.885" width="13.6364" height="4.52891" fill="#1A1A1D"/>
<path d="M0.991331 143.916V145.438H6.93728V146.385H2.26435V152.874H6.65784C6.53364 153.417 6.33182 153.898 6.0679 154.302C5.30719 153.914 4.60858 153.479 3.98759 152.998L2.74562 153.852C3.41318 154.411 4.14284 154.908 4.9346 155.342C3.94102 155.917 2.4817 156.258 0.556641 156.351L1.27078 157.842C3.66157 157.578 5.43139 157.019 6.54916 156.15C8.83129 157.143 11.5171 157.718 14.6065 157.857L15.0256 156.289C12.1691 156.196 9.70067 155.761 7.58931 154.954C7.91533 154.395 8.16373 153.697 8.31897 152.874H13.2558V146.385H8.55185V145.438H14.5133V143.916H0.991331ZM11.6568 151.461H8.50527L8.55185 150.576V150.281H11.6568V151.461ZM6.89071 151.461H3.87892V150.281H6.93728V150.576C6.93728 150.871 6.92175 151.166 6.89071 151.461ZM3.87892 148.962V147.782H6.93728V148.962H3.87892ZM8.55185 147.782H11.6568V148.962H8.55185V147.782Z" fill="#1A1A1D"/>
<path d="M23.5797 144.258V145.531H25.5824V146.369H27.0262V145.531H29.8206V146.105H31.28V145.531H33.2671V144.258H31.28V143.388H29.8206V144.258H27.0262V143.404H25.5824V144.258H23.5797ZM24.0765 148.185V149.365H27.6782V149.815H24.4802V154.147H27.6782V154.659H23.9368V155.855H27.6782V156.305H23.409V157.578H33.2361V156.305H29.1841V155.855H32.8324V154.659H29.1841V154.147H32.4443V149.815H29.1841V149.365H33.1119V148.185H29.1841V147.642C30.5348 147.549 31.7302 147.44 32.7548 147.285L32.0717 146.152C29.9448 146.447 27.3367 146.602 24.2628 146.602L24.6664 147.751C25.7221 147.751 26.7312 147.735 27.6782 147.704V148.185H24.0765ZM30.9539 153.06H29.1841V152.501H30.9539V153.06ZM27.6782 153.06H25.9705V152.501H27.6782V153.06ZM25.9705 151.461V150.902H27.6782V151.461H25.9705ZM29.1841 150.902H30.9539V151.461H29.1841V150.902ZM19.2794 146.493C19.2483 147.953 19.062 149.35 18.736 150.685L19.9625 151.026C20.273 149.629 20.4437 148.139 20.4748 146.586L19.2794 146.493ZM23.2382 146.043L22.3067 146.353V143.466H20.7232V157.749H22.3067V146.835C22.5861 147.999 22.819 149.21 23.0208 150.468L24.1541 150.188C23.8747 148.636 23.5797 147.254 23.2382 146.043Z" fill="#1A1A1D"/>
<path d="M43.5444 143.357V146.012H38.0487V153.588H39.6788V152.734H43.5444V157.919H45.2211V152.734H49.1023V153.588H50.7324V146.012H45.2211V143.357H43.5444ZM39.6788 151.151V147.595H43.5444V151.151H39.6788ZM45.2211 151.151V147.595H49.1023V151.151H45.2211Z" fill="#1A1A1D"/>
<path d="M58.8518 146.447V147.906H61.8791V149.676H59.3486V151.104H61.8791V153.138H58.4326V154.597H66.9867V153.138H65.5274L66.2881 152.796C66.0397 152.222 65.7292 151.694 65.3877 151.213L64.0991 151.632C64.4096 152.067 64.6891 152.563 64.9374 153.138H63.5247V151.104H66.0552V149.676H63.5247V147.906H66.5365V146.447H58.8518ZM69.2843 143.978H56.1194V157.78H57.765V157.205H67.6387V157.78H69.2843V143.978ZM57.765 155.684V145.5H67.6387V155.684H57.765Z" fill="#1A1A1D"/>
<path d="M80.3224 143.916V148.698H87.293V143.916H80.3224ZM85.725 147.269H81.9059V145.344H85.725V147.269ZM79.9032 149.815V151.275H82.8995V152.734H80.2603V154.178H82.8995V155.761H79.3133V157.283H88.1158V155.761H84.5451V154.178H87.2619V152.734H84.5451V151.275H87.7432V149.815H79.9032ZM74.097 147.518V149.055H76.0065C75.5097 150.545 74.7335 151.88 73.6934 153.06L74.4075 154.877C75.1216 153.836 75.7116 152.703 76.1928 151.461V157.733H77.7298V151.213C78.0558 151.709 78.4439 152.33 78.8941 153.076L79.8101 151.694C79.1115 150.949 78.4129 150.281 77.7298 149.66V149.055H79.422V147.518H77.7298V145.531C78.4439 145.406 79.1425 145.251 79.8101 145.065L79.2357 143.544C77.7298 144.009 76.0221 144.304 74.1125 144.459L74.4385 145.981C75.0285 145.919 75.6184 145.857 76.1928 145.779V147.518H74.097Z" fill="#1A1A1D"/>
<path d="M100.225 143.326L98.5794 143.606C98.7657 143.901 98.952 144.211 99.1072 144.553H93.3631V149.521C93.3321 152.594 92.9129 154.985 92.1056 156.708L93.3321 157.811C94.3722 155.73 94.9156 152.967 94.9777 149.521V146.043H106.249V144.553H100.768C100.582 144.102 100.411 143.699 100.225 143.326ZM98.6725 148.636L97.71 149.567C98.7036 150.064 99.5575 150.53 100.272 150.995H95.3813V152.486H99.7593V155.808C99.7593 156.212 99.573 156.413 99.2159 156.413C98.5484 156.413 97.8497 156.367 97.1046 156.305L97.4461 157.826H99.7593C100.83 157.826 101.374 157.283 101.374 156.196V152.486H104.277C103.796 153.2 103.268 153.79 102.709 154.287L103.92 155.249C104.681 154.473 105.379 153.464 106.031 152.253V150.995H102.057L102.243 150.809C102.104 150.7 101.964 150.592 101.824 150.499C102.88 149.815 103.858 149.008 104.774 148.061V146.912H96.2817V148.279H102.724C102.057 148.806 101.358 149.288 100.613 149.707C100.023 149.35 99.3867 148.993 98.6725 148.636Z" fill="#1A1A1D"/>
<path d="M123.062 148.962H112.272V155.125H113.887V150.436H121.447V154.877H123.062V148.962ZM113.188 143.854V148.092H122.146V143.854H113.188ZM120.578 146.695H114.756V145.282H120.578V146.695ZM116.976 151.166C116.867 152.998 116.464 154.302 115.765 155.047C114.958 155.824 113.312 156.274 110.828 156.398L111.465 157.873C114.508 157.593 116.402 156.957 117.178 155.994C117.923 155.234 118.404 153.681 118.622 151.321L116.976 151.166ZM118.932 154.644L118.125 155.839C119.988 156.336 121.804 157.019 123.574 157.888L124.443 156.538C122.767 155.792 120.935 155.171 118.932 154.644Z" fill="#1A1A1D"/>
</svg>
