<svg width="84" height="84" viewBox="0 0 84 84" fill="none" xmlns="http://www.w3.org/2000/svg">
<g opacity="0.5">
<path d="M1.25373 32.8125C1.25373 27.0491 1.25471 22.8019 1.52897 19.4451C1.80204 16.1029 2.33976 13.7539 3.3523 11.7666C5.19825 8.14375 8.14375 5.19825 11.7666 3.3523C13.7539 2.33976 16.1029 1.80204 19.4451 1.52897C22.8019 1.25471 27.0491 1.25373 32.8125 1.25373H51.1875C56.9509 1.25373 61.1981 1.25471 64.5549 1.52897C67.8971 1.80204 70.2461 2.33976 72.2334 3.3523C75.8562 5.19825 78.8018 8.14375 80.6477 11.7666C81.6602 13.7539 82.198 16.1029 82.471 19.4451C82.7453 22.8019 82.7463 27.0491 82.7463 32.8125V51.1875C82.7463 56.9509 82.7453 61.1981 82.471 64.5549C82.198 67.8971 81.6602 70.2461 80.6477 72.2334C78.8018 75.8562 75.8562 78.8018 72.2334 80.6477C70.2461 81.6602 67.8971 82.198 64.5549 82.471C61.1981 82.7453 56.9509 82.7463 51.1875 82.7463H32.8125C27.0491 82.7463 22.8019 82.7453 19.4451 82.471C16.1029 82.198 13.7539 81.6602 11.7666 80.6477C8.14375 78.8018 5.19825 75.8562 3.3523 72.2334C2.33976 70.2461 1.80204 67.8971 1.52897 64.5549C1.25471 61.1981 1.25373 56.9509 1.25373 51.1875V32.8125Z" fill="#363636" fill-opacity="0.1" stroke="#4A4A4A" stroke-width="2.50746"/>
<path fill-rule="evenodd" clip-rule="evenodd" d="M32.2451 59.8232C31.7461 59.5047 31.0805 59.651 30.7616 60.1506L24.5038 69.9539C24.185 70.4534 24.3324 71.1188 24.8314 71.4373C25.3303 71.7558 25.9959 71.6094 26.3148 71.1099L32.5726 61.3066C32.5929 61.2748 32.6113 61.2423 32.6279 61.2093C32.8713 60.7237 32.7123 60.1214 32.2451 59.8232ZM34.767 62.9026C34.6658 62.984 34.5771 63.0854 34.5066 63.2056L30.6241 69.8257C30.3162 70.3507 30.4913 71.0056 31.0019 71.3051C31.5125 71.6045 32.1695 71.4376 32.4774 70.9126L36.3599 64.2925C36.6678 63.7674 36.4927 63.1125 35.9821 62.8131C35.5884 62.5822 35.1076 62.6286 34.767 62.9026ZM27.7416 59.9305C27.8214 59.8201 27.8795 59.7004 27.9148 59.5766C27.9564 59.4308 27.9664 59.2792 27.9429 59.1302C27.8995 58.8547 27.7418 58.5882 27.5118 58.4219C27.2817 58.2555 26.9792 58.1894 26.704 58.2345C26.4288 58.2797 26.181 58.4361 26.0072 58.6766L25.3883 59.5327L21.8788 64.3871C21.7049 64.6275 21.6341 64.9119 21.6775 65.1873C21.7209 65.4628 21.8785 65.7293 22.1086 65.8956C22.3387 66.062 22.6412 66.1281 22.9164 66.083C23.1915 66.0378 23.4394 65.8814 23.6132 65.641L27.7416 59.9305ZM26.8744 59.3035L26.8687 59.2994L26.8744 59.3035Z" fill="#4A4A4A"/>
<path fill-rule="evenodd" clip-rule="evenodd" d="M38.0012 51.8838C39.0673 51.8838 39.9316 51.0195 39.9316 49.9533C39.9316 48.8872 39.0673 48.0229 38.0012 48.0229C36.935 48.0229 36.0707 48.8872 36.0707 49.9533C36.0707 51.0195 36.935 51.8838 38.0012 51.8838ZM42.6401 49.9533C42.6401 52.5153 40.5632 54.5922 38.0012 54.5922C35.4392 54.5922 33.3623 52.5153 33.3623 49.9533C33.3623 47.3914 35.4392 45.3145 38.0012 45.3145C40.5632 45.3145 42.6401 47.3914 42.6401 49.9533Z" fill="#4A4A4A"/>
<path fill-rule="evenodd" clip-rule="evenodd" d="M47.3284 38.1859L49.6208 68.5333C50.5214 68.2407 51.4022 67.9044 52.2609 67.5268C62.2724 63.1247 69.2634 53.1194 69.2634 41.4813C69.2634 25.7752 56.5311 13.043 40.8251 13.043C25.119 13.043 12.3867 25.7752 12.3867 41.4813C12.3867 43.2661 12.5511 45.0126 12.8657 46.7063C13.0362 47.6244 13.2508 48.527 13.5072 49.4118L42.0928 35.2082C44.4002 34.0617 47.1343 35.6167 47.3284 38.1859ZM15.3986 45.4477L40.8876 32.7827C44.9164 30.7809 49.6902 33.496 50.0291 37.9819L52.0431 64.6443C60.6351 60.4754 66.555 51.6669 66.555 41.4813C66.555 27.2711 55.0353 15.7514 40.8251 15.7514C26.6148 15.7514 15.0951 27.2711 15.0951 41.4813C15.0951 42.8314 15.1989 44.1559 15.3986 45.4477Z" fill="#4A4A4A"/>
<path fill-rule="evenodd" clip-rule="evenodd" d="M19.4082 60.1918C15.036 55.1912 12.3867 48.6456 12.3867 41.4813C12.3867 25.7752 25.119 13.043 40.8251 13.043C56.5311 13.043 69.2634 25.7752 69.2634 41.4813C69.2634 57.1874 56.5311 69.9197 40.8251 69.9197C40.259 69.9197 39.6969 69.9031 39.139 69.8705C38.1445 69.8124 37.1638 69.7031 36.1993 69.5453L37.721 66.9098C38.7385 67.0327 39.7744 67.096 40.8251 67.096C54.9717 67.096 66.4397 55.6279 66.4397 41.4813C66.4397 27.3347 54.9717 15.8666 40.8251 15.8666C26.6785 15.8666 15.2104 27.3347 15.2104 41.4813C15.2104 48.6088 18.1215 55.0564 22.8196 59.6999L21.3651 62.2191C20.6801 61.576 20.0269 60.8994 19.4082 60.1918Z" fill="#4A4A4A"/>
</g>
</svg>
