<svg width="17" height="17" viewBox="0 0 17 17" fill="none" xmlns="http://www.w3.org/2000/svg">
<path d="M3.83116 9.57174C3.62174 9.73188 3.41232 9.96594 3.35072 10.2739C3.26449 10.6804 3.33841 11.1978 3.72029 11.6043C4.20072 12.0848 4.92754 12.2203 5.24783 12.2449C6.09783 12.3065 7.00942 11.8754 7.69928 11.4072C7.97029 11.2225 8.42609 10.8406 8.86957 10.2493C7.88406 9.7442 6.65217 9.17754 5.34638 9.22681C4.65652 9.25145 4.17609 9.38696 3.83116 9.57174ZM16.3225 11.8261C16.7536 10.8036 17 9.68261 17 8.5C17 3.81884 13.1812 0 8.5 0C3.81884 0 0 3.81884 0 8.5C0 13.1812 3.81884 17 8.5 17C11.3333 17 13.8341 15.608 15.3862 13.4768C13.9203 12.7623 11.5181 11.5551 10.0275 10.8406C9.32536 11.6536 8.27826 12.4543 7.09565 12.7993C6.35652 13.021 5.67899 13.1072 4.98913 12.9594C4.28696 12.8116 3.78188 12.4913 3.48623 12.171C3.33841 11.9986 3.16594 11.8014 3.03043 11.5428C3.04275 11.5551 3.04275 11.5797 3.04275 11.592C3.04275 11.592 2.96884 11.4688 2.91957 11.2717C2.89493 11.1732 2.87029 11.0746 2.85797 10.9761C2.84565 10.9022 2.84565 10.8283 2.85797 10.7667C2.84565 10.6435 2.85797 10.508 2.88261 10.3725C2.95652 10.0275 3.09203 9.64565 3.47391 9.28841C4.28696 8.48768 5.38333 8.45072 5.95 8.45072C6.78768 8.46304 8.2413 8.82029 9.47319 9.26377C9.81812 8.53696 10.0399 7.77319 10.1754 7.24348H5.06304V6.68913H7.68696V5.58043H4.52101V5.01377H7.68696V3.90507C7.68696 3.75725 7.72391 3.63406 7.95797 3.63406H9.20217V5.01377H12.6391V5.56812H9.20217V6.67681H11.9493C11.9493 6.67681 11.6659 8.21667 10.8159 9.73188C12.7254 10.4094 15.4232 11.4688 16.3225 11.8261Z" fill="#999999"/>
</svg>
