<svg viewBox="0 0 11 11" fill="none" xmlns="http://www.w3.org/2000/svg">
<path d="M0.354535 1.06149C0.159273 0.866223 0.159273 0.549641 0.354535 0.354379C0.549797 0.159117 0.86638 0.159117 1.06164 0.354379L10.254 9.54677C10.4493 9.74203 10.4493 10.0586 10.254 10.2539C10.0588 10.4491 9.74218 10.4491 9.54692 10.2539L0.354535 1.06149Z" fill="none"/>
<path d="M9.54587 0.353478C9.74113 0.158216 10.0577 0.158216 10.253 0.353478C10.4482 0.54874 10.4482 0.865323 10.253 1.06058L1.06058 10.253C0.865322 10.4482 0.54874 10.4482 0.353478 10.253C0.158216 10.0577 0.158216 9.74113 0.353478 9.54587L9.54587 0.353478Z" fill="none"/>
</svg>
