<svg viewBox="0 0 12 12" fill="none" xmlns="http://www.w3.org/2000/svg">
<path fill-rule="evenodd" clip-rule="evenodd" d="M6 12C9.31371 12 12 9.31371 12 6C12 2.68629 9.31371 0 6 0C2.68629 0 0 2.68629 0 6C0 9.31371 2.68629 12 6 12ZM3.37464 3.37505C3.16754 3.58216 3.16753 3.91794 3.37464 4.12504L5.24937 5.99978L3.37408 7.87507C3.16697 8.08218 3.16697 8.41796 3.37408 8.62506C3.58118 8.83217 3.91696 8.83217 4.12407 8.62506L5.99936 6.74977L7.87458 8.62498C8.08168 8.83209 8.41747 8.83209 8.62457 8.62498C8.83167 8.41788 8.83167 8.0821 8.62457 7.875L6.74935 5.99978L8.62401 4.12512C8.83111 3.91802 8.83111 3.58224 8.62401 3.37513C8.4169 3.16803 8.08112 3.16803 7.87402 3.37513L5.99936 5.24979L4.12463 3.37505C3.91753 3.16795 3.58174 3.16795 3.37464 3.37505Z" fill="white"/>
</svg>
