<svg width="262" height="266" viewBox="0 0 262 266" fill="none" xmlns="http://www.w3.org/2000/svg">
<g opacity="0.05">
<path d="M264.642 25.7965L255.246 31.9652L245.864 38.1338L236.469 44.3025L227.087 50.4711L217.691 56.6398L208.296 62.8084L198.914 68.9771L189.532 75.1457L180.206 81.3144L170.81 87.577L164.551 91.679C163.601 92.3051 162.812 93.2047 162.264 94.2875C161.716 95.3702 161.428 96.598 161.428 97.8476V204.813C161.429 206.06 161.717 207.286 162.266 208.366C162.814 209.446 163.603 210.343 164.552 210.966C165.501 211.59 166.578 211.918 167.674 211.918C168.77 211.918 169.847 211.589 170.796 210.966L180.206 204.719L189.587 198.55L198.983 192.381L208.378 186.213L217.76 180.044L227.156 173.875L236.538 167.707L245.933 161.538L255.315 155.369L264.71 149.107L270.97 145.005C271.918 144.38 272.705 143.483 273.253 142.403C273.801 141.323 274.09 140.099 274.092 138.852V81.2361C274.092 79.9886 273.803 78.7632 273.255 77.683C272.706 76.6029 271.918 75.7059 270.969 75.0824C270.019 74.4589 268.942 74.1307 267.846 74.1308C266.75 74.1309 265.673 74.4594 264.724 75.0831L255.329 81.2517L245.947 87.4204L236.551 93.5891L227.17 99.7577L220.897 103.875C219.949 104.5 219.161 105.397 218.613 106.477C218.065 107.557 217.776 108.781 217.774 110.028V118.264C217.774 119.511 218.063 120.737 218.612 121.817C219.16 122.897 219.948 123.794 220.898 124.417C221.847 125.041 222.924 125.369 224.02 125.369C225.116 125.369 226.193 125.04 227.142 124.417L236.538 118.248L245.933 112.079C246.882 111.456 247.959 111.127 249.055 111.127C250.151 111.127 251.228 111.455 252.177 112.079C253.127 112.702 253.915 113.599 254.464 114.679C255.012 115.759 255.301 116.985 255.301 118.232V126.483C255.302 127.731 255.014 128.957 254.466 130.037C253.917 131.117 253.128 132.014 252.178 132.636L245.919 136.754L236.524 143.017L227.128 149.185L217.746 155.354L208.365 161.523L198.969 167.691L189.532 173.875C188.583 174.499 187.506 174.828 186.41 174.828C185.314 174.828 184.237 174.5 183.288 173.876C182.339 173.253 181.55 172.356 181.002 171.276C180.454 170.195 180.165 168.97 180.164 167.722V110.107C180.166 108.86 180.455 107.635 181.003 106.555C181.551 105.476 182.339 104.578 183.287 103.954L189.56 99.836L198.942 93.6673L208.337 87.4047L217.719 81.2517L227.115 75.0831L236.469 68.9771L245.864 62.7145L255.246 56.5615L264.642 50.3772L270.901 46.2752C271.849 45.6503 272.636 44.7532 273.184 43.6734C273.732 42.5937 274.022 41.3691 274.023 40.1222V31.9652C274.023 30.7177 273.734 29.4923 273.186 28.4121C272.638 27.3319 271.849 26.435 270.9 25.8115C269.95 25.1879 268.874 24.8597 267.778 24.8599C266.681 24.86 265.605 25.1884 264.655 25.8122L264.642 25.7965Z" fill="white"/>
<path d="M184.334 22.3665L198.929 31.9639C201.786 33.841 205.026 34.8292 208.325 34.8292C211.623 34.8292 214.863 33.841 217.72 31.9639L227.102 25.7952L236.497 19.6266L245.893 13.4579L255.275 7.28928C256.229 6.66502 257.022 5.76529 257.574 4.68087C258.125 3.59646 258.415 2.36571 258.415 1.1128C258.415 -0.14011 258.125 -1.37086 257.574 -2.45528C257.022 -3.53969 256.229 -4.43942 255.275 -5.06368L245.893 -11.2323L236.497 -17.401L227.116 -23.5696L217.693 -29.66L208.297 -35.9226L198.915 -42.0912L189.52 -48.2599L180.207 -54.4129L170.811 -60.5815L161.36 -54.4285L151.965 -48.166L142.583 -42.013L133.188 -35.9226L123.806 -29.66L114.424 -23.4914L105.028 -17.3227L95.6329 -11.154L86.2511 -4.9854V19.6266L95.6466 13.4579L105.028 7.28928L114.424 1.12064L123.806 -5.04802L133.201 -11.2323L142.597 -5.04802L151.979 1.10498L161.36 7.28928L170.756 13.4579L180.207 19.6266M161.36 -29.66L170.756 -35.9226L180.207 -29.66L189.588 -23.4914L198.984 -17.3227L208.38 -11.154L217.761 -4.9854C218.713 -4.36008 219.502 -3.46083 220.052 -2.37803C220.601 -1.29522 220.89 -0.0669975 220.89 1.18325C220.89 2.4335 220.601 3.66174 220.052 4.74454C219.502 5.82735 218.713 6.72659 217.761 7.35191C214.91 9.22931 211.674 10.2178 208.38 10.2178C205.085 10.2178 201.849 9.22931 198.998 7.35191L189.616 1.18325L180.207 -5.04802L170.811 -11.2323L161.36 -17.401L151.965 -23.5696L161.36 -29.66Z" fill="white"/>
<path d="M161.361 66.7087V51.0522L179.244 36.2255C179.244 36.2255 192.863 26.8942 173.329 15.1049C179.148 10.1575 175.131 6.50952 175.131 6.50952L201.708 24.8276C201.708 24.8276 207.211 40.8598 186.466 56.1406C165.722 71.4213 161.43 74.7561 161.43 74.7561L161.361 66.7087Z" fill="white"/>
<path d="M145.723 -92.5697C155.39 -98.9218 167.907 -98.9218 177.574 -92.5697L283.32 -23.0835C291.481 -17.7212 296.395 -8.61219 296.395 1.15244V149.3C296.395 159.065 291.481 168.174 283.32 173.536L177.574 243.022C167.907 249.374 155.39 249.374 145.723 243.022L39.9761 173.536C31.8156 168.174 26.9016 159.065 26.9016 149.3V1.15244C26.9016 -8.61217 31.8156 -17.7212 39.9762 -23.0835L145.723 -92.5697Z" stroke="url(#paint0_linear_89_40125)" stroke-width="20"/>
<path d="M79.3389 131.999C78.349 93.7063 69.1164 80.8733 61.1279 72.2259C80.5461 78.673 116.993 84.797 113.636 118.895C109.37 162.235 124.719 183.589 136.13 196.561C108.141 190.789 80.1868 164.801 79.3389 131.999Z" fill="#4052EC"/>
</g>
<defs>
<linearGradient id="paint0_linear_89_40125" x1="303.133" y1="74.3414" x2="142.389" y2="74.3414" gradientUnits="userSpaceOnUse">
<stop stop-color="white"/>
<stop offset="1" stop-color="white" stop-opacity="0"/>
</linearGradient>
</defs>
</svg>
