<svg viewBox="0 0 1920 1080" fill="none" xmlns="http://www.w3.org/2000/svg">
<g clip-path="url(#clip0_1617_40909)">
<rect fill="#1A1A1D"/>
<g opacity="0.03" clip-path="url(#clip1_1617_40909)">
<path d="M462.505 506.036C463.012 501.182 464.482 496.477 466.829 492.193C469.176 487.909 472.354 484.132 476.178 481.08C479.701 477.879 483.841 475.424 488.346 473.863C492.85 472.303 497.627 471.671 502.384 472.005H518.336L492.13 668.254H465.924C461.165 668.055 456.67 666.021 453.39 662.582C451.683 660.803 450.471 658.612 449.871 656.226C449.272 653.839 449.307 651.338 449.972 648.969L451.111 636.491C441.134 646.277 429.58 654.329 416.929 660.313C406.73 665.602 395.387 668.328 383.887 668.254C373.353 668.453 362.887 666.523 353.123 662.582C345.831 658.855 339.571 653.401 334.893 646.7C330.391 639.494 327.658 631.332 326.917 622.878C326.225 611.524 326.606 600.13 328.056 588.846L338.311 511.708C339.865 500.597 345.559 490.473 354.262 483.348C362.889 476.135 373.762 472.126 385.026 472.005H395.281L380.469 580.906C379.047 587.998 378.663 595.258 379.329 602.459C380.469 606.997 381.608 611.534 382.747 614.937C384.483 618.367 387.279 621.15 390.723 622.878C394.481 625.199 398.836 626.382 403.257 626.281C410.623 626.108 417.768 623.737 423.766 619.475C432.375 613.441 440.387 606.604 447.693 599.056L462.505 506.036Z" fill="white"/>
<path d="M617.466 542.337L602.653 647.835C601.477 653.992 598.269 659.581 593.538 663.716C591.41 665.697 588.897 667.222 586.153 668.198C583.409 669.174 580.494 669.579 577.587 669.388H549.102L573.029 498.096C573.434 494.542 574.55 491.104 576.311 487.987C578.072 484.87 580.443 482.135 583.284 479.945C588.676 475.376 595.575 472.952 602.653 473.139H619.744L616.326 503.767C626.416 494.628 637.499 486.637 649.369 479.945C659.522 474.534 670.897 471.8 682.411 472.005C692.577 471.795 702.673 473.728 712.036 477.677C719.231 481.104 725.197 486.647 729.127 493.558C733.629 500.764 736.361 508.926 737.103 517.38C738.383 528.341 737.999 539.431 735.963 550.277L722.29 669.388H672.157L684.69 558.218C685.578 551.449 685.959 544.624 685.83 537.799C684.69 533.262 683.551 528.724 682.411 525.321C680.676 521.892 677.88 519.108 674.436 517.38C670.009 515.983 665.405 515.219 660.763 515.111C653.396 515.285 646.251 517.656 640.254 521.918C632.042 528.011 624.414 534.846 617.466 542.337V542.337Z" fill="white"/>
<path d="M841.927 542.337L827.114 647.835C825.938 653.992 822.73 659.581 817.999 663.716C815.871 665.697 813.357 667.222 810.614 668.198C807.87 669.174 804.955 669.579 802.048 669.388H773.562L797.49 498.096C797.895 494.542 799.011 491.104 800.772 487.987C802.533 484.87 804.904 482.135 807.745 479.945C813.137 475.376 820.036 472.952 827.114 473.139H844.205L839.648 503.767C849.737 494.628 860.82 486.637 872.69 479.945C882.843 474.534 894.218 471.8 905.733 472.005C915.899 471.795 925.994 473.728 935.357 477.677C942.553 481.104 948.518 486.647 952.448 493.558C956.95 500.764 959.683 508.926 960.424 517.38C961.705 528.341 961.321 539.431 959.285 550.277L945.612 669.388H895.478L908.012 558.218C908.9 551.449 909.281 544.624 909.151 537.799C908.012 533.262 906.872 528.724 905.733 525.321C903.997 521.892 901.201 519.108 897.757 517.38C893.999 515.059 889.645 513.877 885.224 513.977C877.857 514.15 870.712 516.522 864.715 520.783C856.545 527.341 848.924 534.549 841.927 542.337V542.337Z" fill="white"/>
<path d="M1755.73 683H1412.77C1374.03 683 1347.82 650.103 1354.66 610.399L1378.58 468.601C1382.26 448.966 1392.46 431.131 1407.55 417.964C1422.63 404.797 1441.73 397.061 1461.76 396H1804.72C1843.46 396 1869.67 428.897 1862.83 468.601L1838.9 610.399C1835.56 630.186 1825.45 648.216 1810.3 661.444C1795.14 674.672 1775.87 682.286 1755.73 683Z" fill="url(#paint0_linear_1617_40909)"/>
<path d="M1781.93 493.104C1788.99 501.354 1794.34 510.915 1797.66 521.235C1800.99 531.554 1802.22 542.428 1801.3 553.226C1801.13 580.984 1790.57 607.68 1771.68 628.096C1762.98 637.409 1752.38 644.76 1740.58 649.651C1728.79 654.543 1716.08 656.863 1703.31 656.456C1692.65 656.864 1682.02 654.943 1672.18 650.827C1662.34 646.712 1653.52 640.502 1646.34 632.633C1638.96 624.556 1633.32 615.047 1629.79 604.702C1626.26 594.357 1624.92 583.398 1625.84 572.511C1626.46 545.182 1636.98 518.998 1655.46 498.776C1664.4 489.378 1675.18 481.911 1687.13 476.837C1699.09 471.763 1711.97 469.191 1724.96 469.282C1735.63 468.904 1746.24 470.839 1756.08 474.953C1765.92 479.066 1774.74 485.259 1781.93 493.104V493.104ZM1744.33 598.602C1754.9 586.74 1760.6 571.35 1760.28 555.495C1761.34 543.614 1757.66 531.795 1750.03 522.598C1746.48 518.207 1741.96 514.694 1736.82 512.332C1731.68 509.971 1726.06 508.825 1720.41 508.985C1713.45 509.029 1706.59 510.572 1700.3 513.51C1694.01 516.448 1688.43 520.709 1683.94 526.001C1673.4 537.424 1667.68 552.459 1667.99 567.973C1666.99 580.197 1670.65 592.348 1678.25 602.005C1681.67 606.181 1686.03 609.489 1690.98 611.659C1695.93 613.828 1701.33 614.796 1706.73 614.483C1713.84 615.302 1721.05 614.27 1727.64 611.486C1734.23 608.702 1739.98 604.263 1744.33 598.602V598.602Z" fill="white"/>
<path d="M68.2747 667.119H71.6929C73.1451 667.076 74.5561 666.629 75.765 665.826C76.9738 665.024 77.9317 663.899 78.5293 662.581L192.469 515.111L137.778 513.976L187.912 396H127.523C124.171 396.042 120.898 397.022 118.077 398.827C115.257 400.632 113.002 403.19 111.572 406.21L56.8807 538.933C56.1605 540.58 55.8747 542.383 56.0503 544.17C56.2259 545.958 56.8571 547.672 57.8841 549.149C58.9111 550.626 60.2999 551.817 61.9189 552.61C63.5378 553.403 65.3333 553.771 67.1353 553.68H103.596L61.4383 655.775C60.7327 656.939 60.359 658.273 60.3573 659.633C60.3557 660.993 60.7262 662.328 61.429 663.494C62.1318 664.66 63.1404 665.614 64.3465 666.252C65.5526 666.891 66.9106 667.19 68.2747 667.119V667.119Z" fill="url(#paint1_linear_1617_40909)"/>
<path d="M315.525 437.972C313.607 429.61 309.7 421.829 304.131 415.284C299.896 410.185 294.398 406.274 288.179 403.94C278.692 399.051 268.09 396.705 257.416 397.134H201.585L185.633 434.569H206.143C211.486 434.293 216.844 434.674 222.094 435.703C225.512 435.703 228.931 436.837 232.349 436.837C236.383 437.552 240.21 439.142 243.557 441.495C246.905 443.847 249.691 446.905 251.719 450.45C255.35 457.854 256.16 466.319 253.997 474.272C253.315 480.278 251.374 486.075 248.3 491.288C245.199 496.361 241.359 500.948 236.906 504.901C231.934 508.878 226.071 511.602 219.815 512.841C214.94 514.227 209.996 515.363 205.003 516.244L175.379 555.948C182.113 557.343 188.627 559.632 194.749 562.754C199.263 564.761 203.186 567.885 206.143 571.829C209.698 575.783 212.412 580.414 214.118 585.442C216.755 591.739 219.038 598.177 220.955 604.727L238.046 669.387H289.319C290.963 669.595 292.63 669.265 294.069 668.446C295.508 667.627 296.64 666.365 297.295 664.849C299.23 662.243 300.049 658.98 299.573 655.774L282.482 595.652C280.204 588.845 277.925 583.173 275.646 577.501C273.367 571.829 271.088 567.292 268.81 562.754C266.709 558.624 263.568 555.106 259.694 552.545C256.38 549.27 252.526 546.584 248.3 544.604C257.042 541.733 265.447 537.93 273.367 533.26C280.534 528.888 287.053 523.543 292.737 517.379C298.341 510.908 302.949 503.644 306.41 495.825C309.884 487.483 312.184 478.703 313.246 469.735C316.678 459.506 317.461 448.582 315.525 437.972V437.972Z" fill="white"/>
<path d="M1318.88 469.735C1321.65 469.951 1324.39 470.407 1327.08 471.096C1332.76 472.634 1338.26 474.763 1343.49 477.449C1341.9 480.285 1340.07 484.028 1337.79 488.792C1335.52 493.557 1333.35 498.094 1331.07 502.859C1328.79 507.623 1326.06 513.409 1322.98 520.101L1317.63 518.06C1316.15 517.492 1314.66 517.152 1313.07 516.698C1310.23 516.065 1307.31 515.836 1304.41 516.018C1301.19 516.015 1297.99 516.552 1294.95 517.606C1291.65 518.938 1288.51 520.651 1285.61 522.711C1281.87 525.648 1278.33 528.832 1275.01 532.239C1270.62 536.894 1266.47 541.779 1262.59 546.873L1250.4 632.973C1249.07 642.295 1244.42 650.83 1237.3 657.022C1230.31 663.13 1221.3 666.444 1212.01 666.324H1196.28L1219.98 497.414C1220.98 491 1224.2 485.138 1229.1 480.852C1233.91 476.563 1240.18 474.252 1246.64 474.386H1265.67L1261.57 502.632C1266.4 496.877 1271.53 491.387 1276.95 486.183C1281.1 482.447 1285.56 479.069 1290.28 476.087C1297.13 471.852 1305.01 469.575 1313.07 469.508L1318.88 469.735Z" fill="white"/>
<path d="M1108.55 631.385C1111.02 630.994 1113.45 630.426 1115.84 629.684C1121.38 628.279 1127.23 628.882 1132.36 631.385C1137.52 633.914 1141.57 638.23 1143.76 643.523L1148.65 654.867C1147.29 655.661 1145.35 656.569 1142.84 657.703L1132.7 661.673C1129 663.135 1125.19 664.311 1121.31 665.19C1114.48 666.954 1107.56 668.317 1100.57 669.274C1092.53 670.429 1084.42 670.998 1076.3 670.975C1062.65 671.263 1049.05 669.229 1036.08 664.963C1025.69 661.615 1016.4 655.541 1009.19 647.38C1002.05 638.69 997.339 628.284 995.519 617.205C991.851 588.472 996.146 559.286 1007.94 532.807C1013.26 521.004 1020.71 510.276 1029.93 501.158C1038.81 492.476 1049.35 485.65 1060.92 481.079C1073.21 476.574 1086.22 474.345 1099.32 474.5C1111.78 474.16 1124.18 476.32 1135.78 480.852C1144.86 484.612 1152.74 490.77 1158.57 498.662C1164.45 506.643 1168.35 515.893 1169.96 525.66C1171.61 536.945 1171.61 548.407 1169.96 559.692L1169.16 567.406C1168.67 572.371 1166.55 577.035 1163.12 580.678C1160.01 583.499 1155.94 585.039 1151.73 584.989H1044.74C1043.73 591.682 1043.73 598.488 1044.74 605.181C1045.52 610.755 1047.59 616.074 1050.78 620.722C1054.33 625.11 1059.08 628.38 1064.45 630.138C1071.26 632.685 1078.49 633.88 1085.76 633.654C1093.41 633.641 1101.04 632.881 1108.55 631.385V631.385ZM1054.2 535.87C1051.86 541.414 1050.14 547.196 1049.07 553.113H1122.79C1125.45 542.16 1124.12 530.621 1119.03 520.556C1116.08 516.535 1112.11 513.366 1107.52 511.373C1102.94 509.38 1097.91 508.634 1092.94 509.212C1087.17 509.17 1081.45 510.37 1076.19 512.728C1071.42 515.057 1067.13 518.25 1063.54 522.144C1059.76 526.231 1056.61 530.857 1054.2 535.87V535.87Z" fill="white"/>
<path d="M1579.12 424.36C1592.33 428.539 1605.06 434.13 1617.06 441.035L1612.16 453.4C1611 456.314 1609.25 458.957 1607.02 461.164C1604.78 463.37 1602.11 465.091 1599.17 466.219C1593.37 468.607 1586.86 468.607 1581.06 466.219C1577.33 464.763 1573.53 463.513 1569.66 462.475C1560.79 460.064 1551.62 458.918 1542.43 459.072C1531.75 458.963 1521.14 460.928 1511.21 464.857C1501.85 468.613 1493.31 474.12 1486.03 481.079C1478.3 488.34 1472.04 497.003 1467.57 506.603C1462.56 516.864 1459.21 527.853 1457.66 539.16C1455.7 550.686 1455.7 562.459 1457.66 573.985C1459.43 583.15 1463.33 591.775 1469.05 599.169C1474.42 605.977 1481.55 611.194 1489.68 614.256C1498.77 617.874 1508.49 619.648 1518.28 619.474C1523.56 619.44 1528.82 618.909 1534 617.886C1539.36 616.771 1544.56 615.019 1549.5 612.668L1558.84 559.579H1515.31L1519.76 538.706C1520.64 534.611 1522.89 530.934 1526.14 528.27C1529.36 525.655 1533.38 524.215 1537.53 524.186H1597.81C1599.51 524.144 1601.21 524.414 1602.82 524.98C1604.26 525.761 1605.51 526.864 1606.46 528.201C1607.41 529.539 1608.03 531.076 1608.29 532.694C1608.63 534.797 1608.63 536.942 1608.29 539.046L1592.56 641.141C1588.35 642.843 1584.59 644.204 1581.17 645.338L1571.03 649.082C1567.84 650.216 1564.19 651.237 1559.64 652.372C1555.08 653.506 1551.43 654.3 1548.24 654.867C1542.07 656.107 1535.83 657.016 1529.56 657.59C1523.17 657.59 1516.79 658.384 1510.53 658.384C1494.03 658.738 1477.61 656.046 1462.1 650.443C1448.97 645.971 1437.27 638.114 1428.18 627.672C1419.09 617.23 1412.95 604.577 1410.37 591.001C1407.04 574.867 1406.65 558.266 1409.23 541.996C1411.49 524.316 1416.81 507.16 1424.96 491.289C1432.32 476.802 1442.42 463.862 1454.7 453.173C1465.64 443.492 1478.21 435.811 1491.84 430.485H1492.64L1495.94 429.124C1510.77 423.319 1526.62 420.541 1542.54 420.957C1547.71 420.957 1553.75 421.183 1560.66 421.637C1566.88 422.041 1573.05 422.951 1579.12 424.36Z" fill="white"/>
</g>
<rect x="866" y="513" width="189" height="54" rx="5" fill="#BFBFBF"/>
<rect x="-3622.5" y="-9008.5" width="15818" height="24502" rx="449.5" stroke="black" stroke-width="67"/>
<path d="M931.875 542.675V544.275H936.55V548.425H938.225V544.275H941.85V542.675H938.225V539.6H941.15V538.025H938.225V534.65H936.55V538.025H933.975C934.75 536.575 935.45 534.875 936.1 532.975H941.375V531.4H936.6C936.825 530.625 937.05 529.8 937.25 528.95L935.65 528.575C935.4 529.55 935.15 530.5 934.9 531.4H931.925V532.975H934.425C933.725 535.025 932.95 536.725 932.1 538.1L932.45 539.6H936.55V542.675H931.875ZM928.375 529.1L927.05 529.925C928.15 531.4 929.025 532.75 929.675 534L931.025 533.05C930.425 531.925 929.525 530.6 928.375 529.1ZM938.275 549.425C937.325 549.425 936.375 549.4 935.425 549.375C934.45 549.325 933.6 549.15 932.9 548.875C932.125 548.5 931.475 548 930.975 547.35C930.9 547.25 930.8 547.175 930.7 547.075V536.975H927.025V538.575H929.05V547C928.35 547.425 927.475 548.45 926.425 550.1L927.5 551.45C928.6 549.475 929.375 548.5 929.8 548.5C930.025 548.5 930.3 548.675 930.625 549.05C931.225 549.75 931.95 550.275 932.825 550.575C933.7 550.85 934.725 551 935.875 551.025C936.625 551.05 937.4 551.075 938.15 551.075H941.525L942 549.375C940.825 549.4 939.575 549.425 938.275 549.425ZM921.675 528.65C921.125 531.675 920.2 534.45 918.95 536.95L920.375 537.85C921.1 536.45 921.75 534.875 922.3 533.15H926.6V531.45H922.825C923.025 530.65 923.225 529.85 923.4 529L921.675 528.65ZM921.125 536.425V538.05H922.4V541.175H919.625V542.85H922.4V548.625C922.4 548.975 922.2 549.25 921.825 549.425L922.5 550.925C924.05 550.375 925.4 549.65 926.6 548.8L926.3 547.25C925.55 547.85 924.825 548.325 924.125 548.675V542.85H926.875V541.175H924.125V538.05H926.175V536.425H921.125ZM956.225 532.8L954.75 533.5C955.275 534.4 955.775 535.4 956.275 536.5H952.45V538.225H966.4V536.5H962.35C962.925 535.5 963.45 534.375 963.925 533.125L962.225 532.525C961.725 533.925 961.15 535.25 960.45 536.5H958C957.45 535.15 956.875 533.925 956.225 532.8ZM959.525 528.425L957.65 528.725C957.95 529.35 958.25 530.05 958.525 530.8H953.025V532.45H965.95V530.8H960.35C960.075 529.925 959.8 529.125 959.525 528.425ZM947.05 551.275C948.525 551.275 949.275 550.55 949.275 549.1V541.7C949.975 541.375 950.675 541.025 951.375 540.65V538.825C950.675 539.2 949.975 539.55 949.275 539.9V535.1H951.35V533.375H949.275V528.65H947.425V533.375H944.375V535.1H947.425V540.675C946.275 541.125 945.1 541.5 943.925 541.8L944.375 543.6C945.4 543.275 946.425 542.9 947.425 542.5V548.65C947.425 549.3 947.075 549.625 946.425 549.625C945.825 549.625 945.175 549.575 944.5 549.525L944.875 551.275H947.05ZM957.325 538.925C957.05 539.625 956.75 540.325 956.4 541.075H952.125V542.825H955.475C954.95 543.775 954.35 544.75 953.675 545.775C955.425 546.475 957.05 547.15 958.575 547.85C957.025 548.75 954.775 549.45 951.875 549.975L952.575 551.6C956.175 550.9 958.8 549.925 960.45 548.725C962.45 549.675 964.175 550.6 965.675 551.525L966.65 550.075C965.075 549.175 963.425 548.325 961.725 547.525C962.9 546.25 963.675 544.675 964.05 542.825H966.8V541.075H958.225C958.525 540.45 958.8 539.8 959.05 539.125L957.325 538.925ZM962.35 542.825C961.95 544.425 961.2 545.725 960.075 546.775C958.725 546.175 957.325 545.6 955.875 545.05C956.375 544.35 956.85 543.6 957.3 542.825H962.35ZM988.875 539.9V529.9H970.375V531.65H987.05V538.175H973.175V534.475H971.375V547.6C971.375 549.65 972.375 550.7 974.4 550.7H987.95C989 550.65 989.825 550.375 990.375 549.85C990.975 549.2 991.4 547.35 991.65 544.25L989.9 543.7C989.75 546.45 989.425 548.05 988.925 548.5C988.55 548.8 988.05 548.95 987.45 548.95H974.9C973.75 548.95 973.175 548.375 973.175 547.275V539.9H988.875ZM999.2 529.1C998.075 532.45 996.4 535.125 994.15 537.125L995.675 538.45C996.75 537.45 997.725 536.2 998.625 534.725H1004.6V536.35C1004.55 537.55 1004.45 538.675 1004.25 539.725H994.575V541.45H1003.88C1003.5 542.725 1002.98 543.875 1002.33 544.875C1000.78 546.95 998.025 548.625 994.125 549.925L995.1 551.45C999.05 550.175 1001.88 548.4 1003.6 546.125C1004.48 544.925 1005.15 543.5 1005.62 541.85C1006.98 545.9 1010.38 549.075 1015.83 551.425L1016.83 549.85C1011.6 547.85 1008.38 545.05 1007.15 541.45H1016.45V539.725H1006.13C1006.3 538.675 1006.4 537.55 1006.45 536.35V534.725H1014.83V532.975H1006.45V528.6H1004.6V532.975H999.55C1000.03 531.975 1000.48 530.9 1000.88 529.75L999.2 529.1ZM1022.63 534.1C1021.6 536.325 1020.38 538.225 1018.98 539.8L1020.43 540.85C1021.85 539.15 1023.1 537.175 1024.18 534.875L1022.63 534.1ZM1029.2 538.75L1030.38 537.55C1029.05 535.95 1027.9 534.75 1026.9 533.95L1025.8 535.025C1026.93 536.075 1028.05 537.3 1029.2 538.75ZM1022.53 540.25L1021.4 541.525C1022.45 542.375 1023.53 543.325 1024.58 544.375C1023.1 546.65 1021.2 548.425 1018.88 549.7L1019.98 551.3C1022.38 549.925 1024.33 548.05 1025.88 545.7C1026.73 546.6 1027.63 547.575 1028.53 548.65L1029.8 547.225C1028.85 546.125 1027.85 545.075 1026.8 544.05C1027.48 542.75 1028.05 541.3 1028.5 539.75L1026.95 539.1C1026.55 540.4 1026.05 541.625 1025.48 542.775C1024.53 541.9 1023.55 541.05 1022.53 540.25ZM1025.1 528.4L1023.23 528.7C1023.68 529.475 1024.1 530.325 1024.48 531.225H1019.35V532.95H1030.93V531.225H1026.23C1025.85 530.175 1025.48 529.25 1025.1 528.4ZM1034.23 534.375H1037.95C1037.85 537.55 1037.18 540.35 1035.98 542.8C1035.03 540.9 1034.25 538.675 1033.65 536.125C1033.85 535.575 1034.03 534.975 1034.23 534.375ZM1035 544.5C1033.53 546.725 1031.45 548.525 1028.8 549.925L1029.83 551.55C1032.33 550.125 1034.38 548.325 1035.95 546.175C1037.35 548.425 1039.05 550.2 1041.05 551.475L1042.1 549.9C1040.1 548.675 1038.38 546.9 1036.95 544.6C1038.58 541.75 1039.45 538.35 1039.6 534.375H1041.73V532.625H1034.7C1034.98 531.425 1035.23 530.15 1035.43 528.75L1033.62 528.45C1033.03 533.125 1031.83 536.825 1030.08 539.575L1031.23 540.95C1031.73 540.2 1032.23 539.4 1032.68 538.5C1033.3 540.7 1034.08 542.7 1035 544.5Z" fill="white"/>
<mask id="path-14-outside-1_1617_40909" maskUnits="userSpaceOnUse" x="889.143" y="528.286" width="17" height="15" fill="black">
<rect fill="white" x="889.143" y="528.286" width="17" height="15"/>
<path fill-rule="evenodd" clip-rule="evenodd" d="M892.39 536.102L897.027 531.511C898.684 529.871 901.369 529.871 903.026 531.511C904.682 533.151 904.682 535.81 903.026 537.45L900.257 540.192C900.486 540.449 900.684 540.723 900.851 541.011L903.737 538.154C905.785 536.125 905.785 532.836 903.737 530.808C901.688 528.779 898.366 528.779 896.317 530.808L891.679 535.399C889.911 537.149 889.669 539.838 890.952 541.846L891.685 541.12C890.782 539.521 891.017 537.462 892.39 536.102Z"/>
</mask>
<path fill-rule="evenodd" clip-rule="evenodd" d="M892.39 536.102L897.027 531.511C898.684 529.871 901.369 529.871 903.026 531.511C904.682 533.151 904.682 535.81 903.026 537.45L900.257 540.192C900.486 540.449 900.684 540.723 900.851 541.011L903.737 538.154C905.785 536.125 905.785 532.836 903.737 530.808C901.688 528.779 898.366 528.779 896.317 530.808L891.679 535.399C889.911 537.149 889.669 539.838 890.952 541.846L891.685 541.12C890.782 539.521 891.017 537.462 892.39 536.102Z" fill="white"/>
<path d="M897.027 531.511L897.379 531.866L897.379 531.866L897.027 531.511ZM892.39 536.102L892.742 536.458L892.742 536.458L892.39 536.102ZM903.026 531.511L903.378 531.156L903.378 531.156L903.026 531.511ZM903.026 537.45L903.378 537.805L903.378 537.805L903.026 537.45ZM900.257 540.192L899.905 539.837L899.568 540.17L899.883 540.525L900.257 540.192ZM900.851 541.011L900.419 541.262L900.743 541.821L901.203 541.366L900.851 541.011ZM903.737 538.154L904.088 538.509L904.088 538.509L903.737 538.154ZM903.737 530.808L904.088 530.452L904.088 530.452L903.737 530.808ZM896.317 530.808L895.965 530.452L895.965 530.452L896.317 530.808ZM891.679 535.399L891.327 535.044L891.327 535.044L891.679 535.399ZM890.952 541.846L890.531 542.115L890.864 542.637L891.304 542.201L890.952 541.846ZM891.685 541.12L892.037 541.475L892.308 541.207L892.12 540.874L891.685 541.12ZM896.676 531.156L892.038 535.747L892.742 536.458L897.379 531.866L896.676 531.156ZM903.378 531.156C901.526 529.323 898.527 529.323 896.676 531.156L897.379 531.866C898.841 530.419 901.213 530.419 902.674 531.866L903.378 531.156ZM903.378 537.805C905.232 535.97 905.232 532.991 903.378 531.156L902.674 531.866C904.133 533.311 904.133 535.65 902.674 537.095L903.378 537.805ZM900.608 540.547L903.378 537.805L902.674 537.095L899.905 539.837L900.608 540.547ZM899.883 540.525C900.09 540.756 900.268 541.003 900.419 541.262L901.283 540.76C901.099 540.443 900.882 540.141 900.63 539.859L899.883 540.525ZM901.203 541.366L904.088 538.509L903.385 537.798L900.499 540.655L901.203 541.366ZM904.088 538.509C906.335 536.285 906.335 532.676 904.088 530.452L903.385 531.163C905.236 532.996 905.236 535.965 903.385 537.798L904.088 538.509ZM904.088 530.452C901.845 528.231 898.209 528.231 895.965 530.452L896.668 531.163C898.523 529.327 901.531 529.327 903.385 531.163L904.088 530.452ZM895.965 530.452L891.327 535.044L892.031 535.754L896.668 531.163L895.965 530.452ZM891.327 535.044C889.389 536.963 889.123 539.912 890.531 542.115L891.373 541.577C890.215 539.764 890.434 537.336 892.031 535.754L891.327 535.044ZM891.304 542.201L892.037 541.475L891.333 540.765L890.6 541.491L891.304 542.201ZM892.038 535.747C890.501 537.269 890.238 539.575 891.25 541.366L892.12 540.874C891.326 539.467 891.533 537.655 892.742 536.458L892.038 535.747Z" fill="white" mask="url(#path-14-outside-1_1617_40909)"/>
<mask id="path-16-outside-2_1617_40909" maskUnits="userSpaceOnUse" x="880.594" y="537.796" width="18" height="15" fill="black">
<rect fill="white" x="880.594" y="537.796" width="18" height="15"/>
<path fill-rule="evenodd" clip-rule="evenodd" d="M895.396 544.287L890.01 549.62C888.419 551.195 885.84 551.195 884.25 549.62C882.659 548.045 882.659 545.492 884.25 543.917L887.641 540.559C887.637 540.555 887.633 540.551 887.629 540.547C887.39 540.311 887.18 540.056 886.999 539.788L883.539 543.213C881.556 545.177 881.556 548.36 883.539 550.323C885.522 552.287 888.737 552.287 890.72 550.323L896.106 544.991C897.85 543.264 898.061 540.594 896.737 538.64L896.009 539.361C896.95 540.91 896.746 542.951 895.396 544.287Z"/>
</mask>
<path fill-rule="evenodd" clip-rule="evenodd" d="M895.396 544.287L890.01 549.62C888.419 551.195 885.84 551.195 884.25 549.62C882.659 548.045 882.659 545.492 884.25 543.917L887.641 540.559C887.637 540.555 887.633 540.551 887.629 540.547C887.39 540.311 887.18 540.056 886.999 539.788L883.539 543.213C881.556 545.177 881.556 548.36 883.539 550.323C885.522 552.287 888.737 552.287 890.72 550.323L896.106 544.991C897.85 543.264 898.061 540.594 896.737 538.64L896.009 539.361C896.95 540.91 896.746 542.951 895.396 544.287Z" fill="white"/>
<path d="M890.01 549.62L890.362 549.975L890.362 549.975L890.01 549.62ZM895.396 544.287L895.748 544.643L895.748 544.643L895.396 544.287ZM884.25 549.62L884.602 549.265L884.602 549.265L884.25 549.62ZM884.25 543.917L883.898 543.562L883.898 543.562L884.25 543.917ZM887.641 540.559L887.993 540.914L888.353 540.558L887.992 540.203L887.641 540.559ZM887.629 540.547L887.981 540.192L887.981 540.192L887.629 540.547ZM886.999 539.788L887.413 539.508L887.075 539.009L886.647 539.433L886.999 539.788ZM883.539 543.213L883.891 543.569L883.891 543.569L883.539 543.213ZM883.539 550.323L883.187 550.679L883.187 550.679L883.539 550.323ZM890.72 550.323L891.072 550.679L890.72 550.323ZM896.106 544.991L895.755 544.636L895.755 544.636L896.106 544.991ZM896.737 538.64L897.151 538.36L896.813 537.861L896.385 538.285L896.737 538.64ZM896.009 539.361L895.657 539.005L895.377 539.283L895.582 539.62L896.009 539.361ZM890.362 549.975L895.748 544.643L895.044 543.932L889.658 549.265L890.362 549.975ZM883.898 549.975C885.684 551.743 888.576 551.743 890.362 549.975L889.658 549.265C888.262 550.646 885.997 550.646 884.602 549.265L883.898 549.975ZM883.898 543.562C882.11 545.332 882.11 548.205 883.898 549.975L884.602 549.265C883.209 547.885 883.209 545.651 884.602 544.272L883.898 543.562ZM887.29 540.204L883.898 543.562L884.602 544.272L887.993 540.914L887.29 540.204ZM887.992 540.203C887.988 540.199 887.985 540.196 887.981 540.192L887.278 540.903C887.282 540.907 887.286 540.911 887.291 540.916L887.992 540.203ZM887.981 540.192C887.765 539.978 887.576 539.749 887.413 539.508L886.585 540.069C886.784 540.363 887.015 540.643 887.278 540.903L887.981 540.192ZM886.647 539.433L883.187 542.858L883.891 543.569L887.35 540.144L886.647 539.433ZM883.187 542.858C881.007 545.017 881.007 548.52 883.187 550.679L883.891 549.968C882.106 548.2 882.106 545.336 883.891 543.569L883.187 542.858ZM883.187 550.679C885.365 552.835 888.894 552.835 891.072 550.679L890.369 549.968C888.581 551.739 885.679 551.739 883.891 549.968L883.187 550.679ZM891.072 550.679L896.458 545.346L895.755 544.636L890.369 549.968L891.072 550.679ZM896.458 545.346C898.376 543.447 898.607 540.51 897.151 538.36L896.323 538.92C897.514 540.678 897.325 543.081 895.755 544.636L896.458 545.346ZM896.385 538.285L895.657 539.005L896.361 539.716L897.089 538.995L896.385 538.285ZM895.748 544.643C897.265 543.14 897.495 540.845 896.437 539.101L895.582 539.62C896.405 540.976 896.226 542.762 895.044 543.932L895.748 544.643Z" fill="white" mask="url(#path-16-outside-2_1617_40909)"/>
</g>
<defs>
<linearGradient id="paint0_linear_1617_40909" x1="1350.87" y1="539.5" x2="1807.71" y2="700.101" gradientUnits="userSpaceOnUse">
<stop stop-color="#FF951A"/>
<stop offset="1" stop-color="#F95601"/>
</linearGradient>
<linearGradient id="paint1_linear_1617_40909" x1="54.9437" y1="531.559" x2="192.583" y2="531.559" gradientUnits="userSpaceOnUse">
<stop stop-color="#FF951A"/>
<stop offset="1" stop-color="#F95601"/>
</linearGradient>
<clipPath id="clip0_1617_40909">
<rect width="1920" height="1080" fill="white"/>
</clipPath>
<clipPath id="clip1_1617_40909">
<rect width="1808" height="287" fill="white" transform="translate(56 396)"/>
</clipPath>
</defs>
</svg>
