<svg width="12" height="12" viewBox="0 0 12 12" fill="none" xmlns="http://www.w3.org/2000/svg">
<path fill-rule="evenodd" clip-rule="evenodd" d="M1.5 9.75C1.08579 9.75 0.75 9.41421 0.75 9L0.75 3C0.75 2.58579 1.08579 2.25 1.5 2.25C1.91421 2.25 2.25 2.58579 2.25 3L2.25 9C2.25 9.41421 1.91421 9.75 1.5 9.75Z" fill="#3A86FF"/>
<path fill-rule="evenodd" clip-rule="evenodd" d="M6 12C5.58579 12 5.25 11.6642 5.25 11.25L5.25 0.75C5.25 0.335786 5.58579 0 6 0C6.41421 0 6.75 0.335786 6.75 0.75L6.75 11.25C6.75 11.6642 6.41421 12 6 12Z" fill="#3A86FF"/>
<path fill-rule="evenodd" clip-rule="evenodd" d="M10.5 10.5C10.0858 10.5 9.75 10.1642 9.75 9.75V2.25C9.75 1.83579 10.0858 1.5 10.5 1.5C10.9142 1.5 11.25 1.83579 11.25 2.25V9.75C11.25 10.1642 10.9142 10.5 10.5 10.5Z" fill="#3A86FF"/>
</svg>
