<svg width="117" height="32" viewBox="0 0 117 32" fill="none" xmlns="http://www.w3.org/2000/svg">
<path d="M59.6665 14.9829C59.6892 14.7685 59.7549 14.5607 59.8598 14.3715C59.9648 14.1823 60.1069 14.0154 60.278 13.8807C60.4355 13.7393 60.6206 13.6309 60.8221 13.562C61.0235 13.4931 61.2371 13.4651 61.4499 13.4799H62.1632L60.9913 22.1472H59.8194C59.6066 22.1384 59.4056 22.0485 59.2589 21.8967C59.1826 21.8181 59.1283 21.7214 59.1015 21.6159C59.0747 21.5105 59.0763 21.4001 59.106 21.2955L59.157 20.7444C58.7108 21.1766 58.1941 21.5322 57.6284 21.7965C57.1723 22.0301 56.665 22.1505 56.1507 22.1472C55.6796 22.1559 55.2116 22.0707 54.775 21.8967C54.4489 21.7321 54.1689 21.4912 53.9597 21.1953C53.7584 20.877 53.6362 20.5165 53.603 20.1432C53.5721 19.6417 53.5892 19.1385 53.654 18.6402L54.1126 15.2334C54.1821 14.7426 54.4367 14.2955 54.8259 13.9809C55.2117 13.6623 55.6979 13.4852 56.2017 13.4799H56.6603L55.9979 18.2895C55.9343 18.6027 55.9171 18.9233 55.9469 19.2414C55.9979 19.4418 56.0488 19.6422 56.0998 19.7925C56.1774 19.9439 56.3024 20.0668 56.4564 20.1432C56.6245 20.2457 56.8192 20.2979 57.0169 20.2935C57.3464 20.2858 57.6659 20.1811 57.9341 19.9929C58.3191 19.7264 58.6774 19.4244 59.0041 19.0911L59.6665 14.9829Z" fill="white"/>
<path d="M66.3266 16.5829L65.6642 21.2422C65.6115 21.5141 65.4681 21.761 65.2565 21.9436C65.1614 22.0311 65.049 22.0985 64.9263 22.1416C64.8036 22.1846 64.6732 22.2025 64.5432 22.1941H63.2693L64.3394 14.629C64.3575 14.472 64.4074 14.3202 64.4861 14.1826C64.5649 14.0449 64.6709 13.9241 64.798 13.8274C65.0391 13.6256 65.3476 13.5186 65.6642 13.5268H66.4285L66.2756 14.8795C66.7268 14.4758 67.2224 14.123 67.7533 13.8274C68.2073 13.5884 68.716 13.4677 69.2309 13.4767C69.6855 13.4675 70.137 13.5528 70.5557 13.7272C70.8775 13.8786 71.1442 14.1234 71.32 14.4286C71.5213 14.7469 71.6435 15.1073 71.6767 15.4807C71.7339 15.9648 71.7168 16.4546 71.6257 16.9336L71.0143 22.1941H68.7723L69.3328 17.2843C69.3725 16.9854 69.3896 16.6839 69.3838 16.3825C69.3328 16.1821 69.2819 15.9817 69.2309 15.8314C69.1533 15.68 69.0283 15.557 68.8742 15.4807C68.6763 15.419 68.4704 15.3852 68.2628 15.3805C67.9334 15.3882 67.6138 15.4929 67.3456 15.6811C66.9784 15.9502 66.6373 16.2521 66.3266 16.5829V16.5829Z" fill="white"/>
<path d="M76.0078 16.5829L75.3454 21.2422C75.2928 21.5141 75.1494 21.761 74.9378 21.9436C74.8426 22.0311 74.7302 22.0985 74.6075 22.1416C74.4848 22.1846 74.3545 22.2025 74.2245 22.1941H72.9506L74.0206 14.629C74.0387 14.472 74.0887 14.3202 74.1674 14.1826C74.2462 14.0449 74.3522 13.9241 74.4792 13.8274C74.7204 13.6256 75.0289 13.5186 75.3454 13.5268H76.1097L75.9059 14.8795C76.3571 14.4758 76.8527 14.123 77.3836 13.8274C77.8376 13.5884 78.3463 13.4677 78.8612 13.4767C79.3158 13.4675 79.7673 13.5528 80.186 13.7272C80.5078 13.8786 80.7746 14.1234 80.9503 14.4286C81.1516 14.7469 81.2738 15.1073 81.307 15.4807C81.3643 15.9648 81.3471 16.4546 81.256 16.9336L80.6446 22.1941H78.4026L78.9631 17.2843C79.0028 16.9854 79.0199 16.6839 79.0141 16.3825C78.9631 16.1821 78.9122 15.9817 78.8612 15.8314C78.7836 15.68 78.6586 15.557 78.5046 15.4807C78.3365 15.3782 78.1418 15.326 77.9441 15.3304C77.6146 15.3381 77.2951 15.4428 77.0269 15.631C76.6615 15.9206 76.3207 16.239 76.0078 16.5829V16.5829Z" fill="white"/>
<path d="M116.121 14.5302C116.436 14.8945 116.675 15.3168 116.824 15.7726C116.973 16.2283 117.028 16.7086 116.987 17.1855C116.979 18.4114 116.507 19.5904 115.662 20.4921C115.273 20.9034 114.799 21.228 114.271 21.4441C113.744 21.6601 113.176 21.7626 112.605 21.7446C112.128 21.7626 111.653 21.6778 111.212 21.496C110.772 21.3143 110.378 21.04 110.057 20.6925C109.727 20.3357 109.475 19.9158 109.317 19.4589C109.159 19.002 109.099 18.518 109.14 18.0372C109.168 16.8302 109.639 15.6738 110.465 14.7807C110.864 14.3656 111.346 14.0358 111.881 13.8118C112.416 13.5877 112.992 13.4741 113.573 13.4781C114.05 13.4614 114.525 13.5469 114.964 13.7285C115.404 13.9102 115.799 14.1837 116.121 14.5302V14.5302ZM114.439 19.1895C114.912 18.6656 115.167 17.9859 115.152 17.2857C115.2 16.7609 115.035 16.239 114.694 15.8328C114.535 15.6389 114.333 15.4837 114.103 15.3794C113.873 15.2751 113.622 15.2245 113.369 15.2316C113.058 15.2335 112.751 15.3017 112.47 15.4314C112.188 15.5611 111.939 15.7494 111.739 15.9831C111.267 16.4876 111.011 17.1516 111.025 17.8368C110.98 18.3766 111.144 18.9133 111.484 19.3398C111.637 19.5242 111.832 19.6703 112.053 19.7661C112.275 19.8619 112.516 19.9047 112.758 19.8909C113.076 19.9271 113.398 19.8814 113.693 19.7585C113.987 19.6355 114.245 19.4395 114.439 19.1895V19.1895Z" fill="white"/>
<path d="M41.3987 21.943H41.5515C41.6165 21.9411 41.6796 21.9214 41.7336 21.8859C41.7877 21.8505 41.8305 21.8008 41.8573 21.7426L46.9526 15.2296L44.5068 15.1795L46.7488 9.9691H44.0483C43.8983 9.97097 43.7519 10.0142 43.6258 10.094C43.4997 10.1737 43.3989 10.2867 43.3349 10.42L40.8891 16.2817C40.8569 16.3544 40.8442 16.4341 40.852 16.513C40.8599 16.592 40.8881 16.6677 40.934 16.7329C40.9799 16.7981 41.0421 16.8507 41.1145 16.8858C41.1869 16.9208 41.2671 16.937 41.3477 16.933H42.9782L41.093 21.442C41.0614 21.4934 41.0447 21.5523 41.0446 21.6124C41.0445 21.6725 41.0611 21.7314 41.0925 21.7829C41.124 21.8344 41.1691 21.8766 41.223 21.9048C41.2769 21.933 41.3377 21.9462 41.3987 21.943V21.943Z" fill="#4052EC"/>
<path d="M52.4556 11.7749C52.3699 11.4056 52.1951 11.062 51.9461 10.7729C51.7567 10.5477 51.5108 10.375 51.2327 10.2719C50.8085 10.056 50.3343 9.95237 49.857 9.9713H47.3603L46.6469 11.6246H47.5641C47.8031 11.6124 48.0427 11.6293 48.2774 11.6747C48.4303 11.6747 48.5832 11.7248 48.736 11.7248C48.9164 11.7564 49.0876 11.8266 49.2373 11.9305C49.387 12.0344 49.5116 12.1694 49.6022 12.326C49.7646 12.653 49.8008 13.0268 49.7041 13.3781C49.6736 13.6434 49.5868 13.8994 49.4494 14.1296C49.3107 14.3536 49.139 14.5562 48.9398 14.7308C48.7175 14.9064 48.4553 15.0267 48.1755 15.0815C47.9575 15.1427 47.7364 15.1929 47.5131 15.2318L46.1884 16.9853C46.4895 17.0469 46.7808 17.148 47.0546 17.2859C47.2564 17.3745 47.4319 17.5125 47.5641 17.6867C47.7231 17.8613 47.8444 18.0659 47.9208 18.2879C48.0387 18.566 48.1408 18.8503 48.2265 19.1396L48.9908 21.9953H51.2837C51.3572 22.0045 51.4318 21.9899 51.4961 21.9538C51.5605 21.9176 51.6111 21.8618 51.6404 21.7949C51.7269 21.6798 51.7636 21.5357 51.7423 21.3941L50.978 18.7388C50.8761 18.4382 50.7742 18.1877 50.6723 17.9372C50.5704 17.6867 50.4684 17.4863 50.3665 17.2859C50.2726 17.1035 50.1322 16.9481 49.9589 16.835C49.8107 16.6904 49.6383 16.5717 49.4494 16.4843C49.8403 16.3575 50.2161 16.1895 50.5704 15.9833C50.8908 15.7902 51.1824 15.5541 51.4366 15.2819C51.6872 14.9961 51.8932 14.6753 52.048 14.33C52.2034 13.9616 52.3062 13.5738 52.3537 13.1777C52.5072 12.726 52.5422 12.2435 52.4556 11.7749V11.7749Z" fill="white"/>
<path d="M96.776 13.486C96.8998 13.4956 97.0226 13.5157 97.1428 13.5462C97.3968 13.6141 97.6427 13.7081 97.8766 13.8267C97.8052 13.952 97.7237 14.1173 97.6218 14.3277C97.5199 14.5381 97.4231 14.7385 97.3212 14.949C97.2193 15.1594 97.097 15.4149 96.9594 15.7105L96.7199 15.6203C96.6537 15.5953 96.5875 15.5802 96.5161 15.5602C96.3891 15.5322 96.2588 15.5221 96.1289 15.5301C95.9849 15.53 95.8419 15.5537 95.706 15.6003C95.5582 15.6591 95.418 15.7348 95.2881 15.8257C95.1208 15.9555 94.9625 16.0961 94.8143 16.2466C94.6176 16.4521 94.4322 16.6679 94.2589 16.8929L93.7137 20.6954C93.6542 21.1071 93.4463 21.4841 93.1277 21.7576C92.8153 22.0273 92.4123 22.1737 91.9966 22.1684H91.2934L92.3532 14.7085C92.3977 14.4252 92.542 14.1663 92.7609 13.977C92.9762 13.7876 93.2566 13.6856 93.5455 13.6915H94.3965L94.213 14.939C94.4289 14.6848 94.6585 14.4423 94.9009 14.2125C95.0864 14.0475 95.2858 13.8983 95.4971 13.7666C95.8031 13.5795 96.1557 13.479 96.5161 13.476L96.776 13.486Z" fill="white"/>
<path d="M87.2333 20.4064C87.3437 20.3891 87.4527 20.364 87.5594 20.3312C87.8069 20.2692 88.0688 20.2958 88.2982 20.4064C88.5288 20.5181 88.71 20.7087 88.8077 20.9425L89.0268 21.4435C88.9657 21.4785 88.8791 21.5186 88.767 21.5687L88.3135 21.7441C88.148 21.8086 87.9776 21.8605 87.804 21.8994C87.4987 21.9773 87.189 22.0375 86.8766 22.0797C86.5172 22.1307 86.1544 22.1559 85.7913 22.1549C85.1808 22.1676 84.5725 22.0778 83.9926 21.8894C83.5281 21.7415 83.1127 21.4732 82.7901 21.1128C82.471 20.729 82.2601 20.2694 82.1787 19.7801C82.0147 18.5111 82.2067 17.2221 82.7341 16.0527C82.972 15.5314 83.3053 15.0576 83.7175 14.6549C84.1148 14.2715 84.586 13.97 85.1034 13.7681C85.653 13.5692 86.235 13.4707 86.8206 13.4776C87.3777 13.4625 87.9322 13.558 88.4511 13.7581C88.8573 13.9242 89.2096 14.1961 89.4701 14.5447C89.7331 14.8972 89.9077 15.3057 89.9797 15.7371C90.0533 16.2355 90.0533 16.7417 89.9797 17.2401L89.944 17.5808C89.922 17.8 89.8271 18.006 89.6739 18.1669C89.5347 18.2915 89.3526 18.3595 89.1644 18.3573H84.3799C84.3348 18.6529 84.3348 18.9535 84.3799 19.2491C84.4149 19.4953 84.5073 19.7302 84.6499 19.9355C84.8086 20.1292 85.021 20.2737 85.2614 20.3513C85.5656 20.4638 85.8893 20.5166 86.2142 20.5066C86.5564 20.506 86.8977 20.4724 87.2333 20.4064V20.4064ZM84.8028 16.188C84.6983 16.4328 84.6214 16.6882 84.5735 16.9495H87.8702C87.9893 16.4658 87.9297 15.9562 87.7021 15.5116C87.5701 15.334 87.3925 15.1941 87.1875 15.1061C86.9825 15.018 86.7574 14.9851 86.5352 15.0106C86.2771 15.0088 86.0216 15.0618 85.7862 15.1659C85.573 15.2688 85.3812 15.4098 85.2206 15.5818C85.0514 15.7623 84.9106 15.9666 84.8028 16.188V16.188Z" fill="white"/>
<path d="M106.609 11.6241C107.2 11.8087 107.769 12.0556 108.306 12.3606L108.087 12.9067C108.035 13.0354 107.957 13.1521 107.857 13.2495C107.757 13.347 107.638 13.423 107.506 13.4728C107.247 13.5783 106.955 13.5783 106.696 13.4728C106.529 13.4085 106.359 13.3533 106.187 13.3075C105.79 13.201 105.38 13.1504 104.969 13.1572C104.491 13.1524 104.017 13.2392 103.573 13.4127C103.154 13.5785 102.772 13.8217 102.447 14.1291C102.101 14.4498 101.821 14.8324 101.621 15.2563C101.397 15.7095 101.247 16.1949 101.178 16.6942C101.09 17.2033 101.09 17.7232 101.178 18.2323C101.257 18.6371 101.432 19.018 101.687 19.3445C101.927 19.6452 102.246 19.8756 102.61 20.0108C103.016 20.1706 103.451 20.249 103.889 20.2413C104.125 20.2398 104.36 20.2163 104.592 20.1712C104.831 20.1219 105.064 20.0445 105.285 19.9407L105.703 17.596H103.756L103.955 16.6742C103.994 16.4933 104.095 16.3309 104.24 16.2133C104.384 16.0978 104.564 16.0342 104.75 16.0329H107.445C107.521 16.0311 107.597 16.043 107.669 16.068C107.734 16.1025 107.79 16.1512 107.832 16.2102C107.874 16.2693 107.902 16.3372 107.914 16.4086C107.929 16.5016 107.929 16.5963 107.914 16.6892L107.211 21.1982C107.022 21.2734 106.854 21.3335 106.701 21.3836L106.248 21.5489C106.105 21.599 105.942 21.6441 105.738 21.6942C105.534 21.7443 105.371 21.7794 105.229 21.8044C104.952 21.8592 104.674 21.8993 104.393 21.9247C104.108 21.9247 103.822 21.9597 103.542 21.9597C102.804 21.9754 102.07 21.8565 101.377 21.609C100.789 21.4115 100.266 21.0645 99.8596 20.6034C99.4533 20.1422 99.1785 19.5834 99.0633 18.9838C98.9141 18.2712 98.8969 17.5381 99.0123 16.8195C99.1134 16.0386 99.3513 15.281 99.7155 14.58C100.045 13.9402 100.496 13.3687 101.045 12.8966C101.535 12.4691 102.097 12.1299 102.706 11.8946H102.742L102.89 11.8345C103.553 11.5781 104.262 11.4555 104.974 11.4738C105.205 11.4738 105.475 11.4838 105.784 11.5039C106.062 11.5217 106.338 11.5619 106.609 11.6241Z" fill="white"/>
<path d="M26.2072 11.8425L25.2957 12.3614L24.3855 12.8802L23.474 13.3991L22.5638 13.9179L21.6523 14.4368L20.7408 14.9556L19.8306 15.4745L18.9204 15.9933L18.0156 16.5122L17.104 17.0389L16.4968 17.3839C16.4046 17.4366 16.3281 17.5123 16.2749 17.6033C16.2218 17.6944 16.1938 17.7977 16.1938 17.9028V26.8996C16.1939 27.0046 16.2219 27.1076 16.2751 27.1985C16.3283 27.2894 16.4048 27.3648 16.4969 27.4172C16.589 27.4697 16.6935 27.4973 16.7998 27.4973C16.9061 27.4973 17.0106 27.4696 17.1027 27.4172L18.0156 26.8917L18.9257 26.3729L19.8373 25.8541L20.7488 25.3352L21.659 24.8164L22.5705 24.2975L23.4807 23.7787L24.3922 23.2598L25.3024 22.741L26.2139 22.2142L26.8211 21.8692C26.9131 21.8166 26.9895 21.7412 27.0427 21.6504C27.0958 21.5595 27.1239 21.4565 27.1241 21.3517V16.5056C27.1241 16.4006 27.096 16.2976 27.0428 16.2067C26.9896 16.1159 26.9131 16.0404 26.821 15.988C26.7289 15.9355 26.6245 15.9079 26.5181 15.9079C26.4118 15.908 26.3073 15.9356 26.2152 15.988V15.988L25.3037 16.5069L24.3935 17.0257L23.482 17.5446L22.5718 18.0634L21.9633 18.4098C21.8713 18.4623 21.7949 18.5378 21.7417 18.6286C21.6886 18.7194 21.6605 18.8224 21.6603 18.9273V19.62C21.6603 19.7249 21.6884 19.828 21.7416 19.9188C21.7948 20.0097 21.8713 20.0851 21.9634 20.1376C22.0555 20.19 22.1599 20.2176 22.2663 20.2176C22.3726 20.2176 22.4771 20.19 22.5692 20.1375L23.4807 19.6187L24.3922 19.0998C24.4843 19.0473 24.5888 19.0197 24.6951 19.0197C24.8014 19.0197 24.9059 19.0473 24.998 19.0998C25.0901 19.1522 25.1666 19.2276 25.2198 19.3185C25.273 19.4093 25.301 19.5124 25.3011 19.6173V19.6173V20.3113C25.3011 20.4163 25.2732 20.5194 25.22 20.6102C25.1668 20.7011 25.0903 20.7765 24.9981 20.8289L24.3909 21.1752L23.4793 21.702L22.5678 22.2208L21.6576 22.7396L20.7474 23.2585L19.8359 23.7773L18.9204 24.2975C18.8283 24.35 18.7238 24.3776 18.6175 24.3776C18.5112 24.3776 18.4067 24.35 18.3146 24.2976C18.2225 24.2451 18.146 24.1697 18.0928 24.0788C18.0396 23.988 18.0116 23.8849 18.0116 23.78V18.9339C18.0117 18.829 18.0398 18.726 18.093 18.6352C18.1461 18.5444 18.2225 18.4689 18.3145 18.4164L18.9231 18.07L19.8333 17.5512L20.7448 17.0244L21.655 16.5069L22.5665 15.988L23.474 15.4745L24.3855 14.9477L25.2957 14.4302L26.2072 13.91L26.8145 13.565C26.9065 13.5124 26.9828 13.437 27.036 13.3462C27.0892 13.2553 27.1172 13.1523 27.1174 13.0475V12.3614C27.1174 12.2565 27.0894 12.1534 27.0362 12.0625C26.983 11.9717 26.9065 11.8962 26.8144 11.8438C26.7223 11.7913 26.6178 11.7637 26.5115 11.7637C26.4051 11.7638 26.3007 11.7914 26.2086 11.8438L26.2072 11.8425Z" fill="white"/>
<path d="M18.416 11.5539L19.832 12.3612C20.1092 12.519 20.4235 12.6022 20.7436 12.6022C21.0636 12.6022 21.3779 12.519 21.6551 12.3612V12.3612L22.5653 11.8423L23.4768 11.3235L24.3883 10.8046L25.2985 10.2858C25.3911 10.2333 25.468 10.1576 25.5215 10.0664C25.575 9.97517 25.6032 9.87165 25.6032 9.76627C25.6032 9.66089 25.575 9.55737 25.5215 9.46616C25.468 9.37495 25.3911 9.29927 25.2985 9.24676V9.24676L24.3883 8.72791L23.4768 8.20907L22.5666 7.69022L21.6524 7.17796L20.7409 6.65121L19.8307 6.13236L18.9192 5.61351L18.0157 5.09598L17.1041 4.57713L16.1873 5.09466L15.2758 5.62141L14.3656 6.13894L13.4541 6.65121L12.5439 7.17796L11.6337 7.6968L10.7222 8.21565L9.81064 8.7345L8.90045 9.25335V11.3235L9.81197 10.8046L10.7222 10.2858L11.6337 9.76693L12.5439 9.24808L13.4554 8.72791L14.3669 9.24808L15.2771 9.76561L16.1873 10.2858L17.0988 10.8046L18.0157 11.3235M16.1873 7.17796L17.0988 6.65121L18.0157 7.17796L18.9259 7.6968L19.8374 8.21565L20.7489 8.7345L21.6591 9.25335C21.7514 9.30594 21.828 9.38158 21.8813 9.47265C21.9346 9.56373 21.9626 9.66703 21.9626 9.77219C21.9626 9.87735 21.9346 9.98066 21.8813 10.0717C21.828 10.1628 21.7514 10.2384 21.6591 10.291C21.3824 10.449 21.0685 10.5321 20.7489 10.5321C20.4293 10.5321 20.1154 10.449 19.8387 10.291V10.291L18.9285 9.77219L18.0157 9.24808L17.1041 8.72791L16.1873 8.20907L15.2758 7.69022L16.1873 7.17796Z" fill="white"/>
<path d="M16.1873 15.2836V13.9667L17.9223 12.7196C17.9223 12.7196 19.2435 11.9348 17.3484 10.9432C17.9129 10.5271 17.5232 10.2202 17.5232 10.2202L20.1017 11.761C20.1017 11.761 20.6355 13.1094 18.6229 14.3947C16.6104 15.68 16.194 15.9605 16.194 15.9605L16.1873 15.2836Z" fill="white"/>
<path d="M17.329 1.49765L28.3717 7.78859C29.0742 8.18879 29.508 8.93512 29.508 9.7436V22.2564C29.508 23.0649 29.0742 23.8112 28.3717 24.2114L17.3289 30.5023C16.6385 30.8957 15.7919 30.8957 15.1015 30.5023L4.05868 24.2114C3.35619 23.8112 2.92243 23.0649 2.92243 22.2564V9.7436C2.92243 8.93512 3.35619 8.18879 4.05868 7.78859L15.1015 1.49765C15.7919 1.10434 16.6385 1.10434 17.329 1.49765Z" stroke="url(#paint0_linear_384_34394)" stroke-width="1.5"/>
<path d="M8.22986 20.7752C8.13382 17.5544 7.23811 16.475 6.4631 15.7477C8.34698 16.2899 11.8829 16.805 11.5572 19.673C11.1433 23.3184 12.6325 25.1144 13.7396 26.2056C11.0241 25.7201 8.31212 23.5342 8.22986 20.7752Z" fill="#4052EC"/>
<defs>
<linearGradient id="paint0_linear_384_34394" x1="29.9416" y1="15.9256" x2="14.3468" y2="15.9256" gradientUnits="userSpaceOnUse">
<stop stop-color="white"/>
<stop offset="1" stop-color="white" stop-opacity="0"/>
</linearGradient>
</defs>
</svg>
