<svg viewBox="0 0 12 12" fill="none" xmlns="http://www.w3.org/2000/svg">
<path fill-rule="evenodd" clip-rule="evenodd" d="M6 12C9.31371 12 12 9.31371 12 6C12 2.68629 9.31371 0 6 0C2.68629 0 0 2.68629 0 6C0 9.31371 2.68629 12 6 12ZM9.61872 4.35348C9.40836 4.15822 9.0673 4.15822 8.85694 4.35348L5.42729 7.53696L3.14221 5.4159C2.93185 5.22064 2.59079 5.22064 2.38043 5.4159C2.17007 5.61116 2.17007 5.92775 2.38043 6.12301L5.04668 8.59788C5.25704 8.79315 5.5981 8.79315 5.80846 8.59788C5.81344 8.59326 5.8183 8.58858 5.82304 8.58382L9.61872 5.06059C9.82908 4.86532 9.82908 4.54874 9.61872 4.35348Z" fill="white"/>
</svg>
