<svg width="36" height="36" viewBox="0 0 36 36" fill="none" xmlns="http://www.w3.org/2000/svg">
<path d="M17.948 0.104004C8.03757 0.104004 0 8.14158 0 18.052C0 27.9624 8.03757 36 17.948 36C27.8584 36 35.896 27.9624 35.896 18.052C35.896 8.14158 27.8584 0.104004 17.948 0.104004ZM14.5405 22.656C13.5 22.656 12.6676 22.4479 11.6792 22.2138L8.81792 23.6705L9.62428 21.1474C7.56936 19.6907 6.32081 17.7919 6.32081 15.5289C6.32081 11.5491 10.0405 8.4277 14.5405 8.4277C18.5723 8.4277 22.1358 10.9248 22.8382 14.2803C22.578 14.2543 22.3179 14.2283 22.0578 14.2283C18.1561 14.2803 15.0867 17.2196 15.0867 20.8612C15.0867 21.4595 15.1908 22.0317 15.3468 22.604C15.0867 22.63 14.8006 22.656 14.5405 22.656ZM26.7139 25.5693L27.3382 27.6502L25.1012 26.4017C24.2948 26.6098 23.4624 26.8179 22.6301 26.8179C18.7023 26.8179 15.6069 24.1127 15.6069 20.7572C15.5809 17.4277 18.6763 14.7225 22.578 14.7225C26.2977 14.7225 29.5751 17.4537 29.5751 20.7832C29.5751 22.656 28.3526 24.3208 26.7139 25.5693Z" fill="#28C445"/>
</svg>
