<svg width="17" height="15" viewBox="0 0 17 15" fill="none" xmlns="http://www.w3.org/2000/svg">
<path d="M6.48103 9.44521C5.46326 9.98737 5.3125 9.14086 5.3125 9.14086L4.0375 6.29695C3.54674 4.94558 4.46205 5.68735 4.46205 5.68735C4.46205 5.68735 5.24718 6.25515 5.84353 6.60131C6.43897 6.94746 7.11853 6.70291 7.11853 6.70291L15.4548 3.02552C13.9167 1.19582 11.3766 0 8.5 0C3.80532 0 0 3.18287 0 7.10976C0 9.36833 1.25979 11.3783 3.22239 12.6811L2.86897 14.6259C2.86897 14.6259 2.69629 15.1937 3.29397 14.9303C3.70153 14.7504 4.74032 14.1076 5.35858 13.716C6.33071 14.0397 7.38963 14.2195 8.5 14.2195C13.1942 14.2195 17 11.0366 17 7.10976C17 5.97237 16.6792 4.89793 16.1111 3.94487C13.4551 5.47202 7.2769 9.02172 6.48103 9.44521Z" fill="#43C93E"/>
</svg>
