<svg width="47" height="46" viewBox="0 0 47 46" fill="none" xmlns="http://www.w3.org/2000/svg">
<path fill-rule="evenodd" clip-rule="evenodd" d="M23.5 44C35.098 44 44.5 34.598 44.5 23C44.5 11.402 35.098 2 23.5 2C11.902 2 2.5 11.402 2.5 23C2.5 34.598 11.902 44 23.5 44ZM23.5 46C36.2025 46 46.5 35.7025 46.5 23C46.5 10.2975 36.2025 0 23.5 0C10.7975 0 0.5 10.2975 0.5 23C0.5 35.7025 10.7975 46 23.5 46ZM17.2316 22.8551L15.3312 24.7554C13.5494 26.5372 13.5494 29.426 15.3312 31.2078C17.113 32.9895 20.0018 32.9895 21.7836 31.2078L23.6839 29.3074L17.2316 22.8551ZM17.9387 20.7338C17.5481 20.3432 16.915 20.3432 16.5245 20.7338L13.917 23.3412C11.61 25.6482 11.3797 29.2456 13.2262 31.8102L11.2212 33.8152C10.8306 34.2058 10.8306 34.8389 11.2212 35.2294C11.6117 35.62 12.2448 35.62 12.6354 35.2294L14.6269 33.2379C17.1974 35.165 20.86 34.9597 23.1978 32.622L25.8052 30.0145C26.1958 29.624 26.1958 28.9908 25.8052 28.6003L25.1865 27.9816L27.1311 26.0371C27.5216 25.6465 27.5216 25.0134 27.1311 24.6228C26.7405 24.2323 26.1074 24.2323 25.7168 24.6228L23.7723 26.5674L19.8832 22.6783L21.8278 20.7338C22.2183 20.3432 22.2183 19.7101 21.8278 19.3195C21.4372 18.929 20.8041 18.929 20.4135 19.3195L18.469 21.2641L17.9387 20.7338ZM30.9057 21.309L32.806 19.4086C34.5878 17.6268 34.5878 14.738 32.806 12.9563C31.0243 11.1745 28.1355 11.1745 26.3537 12.9563L24.4534 14.8566L30.9057 21.309ZM30.1986 23.4303C30.5891 23.8208 31.2223 23.8208 31.6128 23.4303L34.2203 20.8228C36.5273 18.5158 36.7575 14.9184 34.9111 12.3538L36.9161 10.3488C37.3066 9.95827 37.3066 9.32511 36.9161 8.93458C36.5256 8.54406 35.8924 8.54406 35.5019 8.93458L33.5104 10.9261C30.9399 8.99899 27.2772 9.2043 24.9395 11.542L22.332 14.1495C21.9415 14.54 21.9415 15.1732 22.332 15.5637L30.1986 23.4303Z" fill="url(#paint0_linear_2362_69010)"/>
<defs>
<linearGradient id="paint0_linear_2362_69010" x1="7.5" y1="6" x2="40.5" y2="39.5" gradientUnits="userSpaceOnUse">
<stop stop-color="#58ADEB"/>
<stop offset="1" stop-color="#EF68FB"/>
</linearGradient>
</defs>
</svg>
