<svg width="46" height="46" viewBox="0 0 46 46" fill="none" xmlns="http://www.w3.org/2000/svg">
<path fill-rule="evenodd" clip-rule="evenodd" d="M23 44C34.598 44 44 34.598 44 23C44 11.402 34.598 2 23 2C11.402 2 2 11.402 2 23C2 34.598 11.402 44 23 44ZM23 46C35.7025 46 46 35.7025 46 23C46 10.2975 35.7025 0 23 0C10.2975 0 0 10.2975 0 23C0 35.7025 10.2975 46 23 46Z" fill="url(#paint0_linear_2744_83691)"/>
<path fill-rule="evenodd" clip-rule="evenodd" d="M29.4472 10.6058C29.9412 10.8528 30.1414 11.4535 29.8944 11.9474L16.8944 37.9474C16.6474 38.4414 16.0468 38.6416 15.5528 38.3946C15.0588 38.1477 14.8586 37.547 15.1056 37.053L28.1056 11.053C28.3526 10.559 28.9532 10.3588 29.4472 10.6058ZM15.4853 15.2931C15.8758 15.6836 15.8758 16.3168 15.4853 16.7073L8.41425 23.7784L15.4853 30.8495C15.8758 31.24 15.8758 31.8731 15.4853 32.2637C15.0948 32.6542 14.4616 32.6542 14.0711 32.2637L7.00003 25.1926C6.21898 24.4116 6.21898 23.1452 7.00003 22.3642L14.0711 15.2931C14.4616 14.9026 15.0948 14.9026 15.4853 15.2931ZM30.0711 15.2931C30.4616 14.9026 31.0948 14.9026 31.4853 15.2931L38.5564 22.3642C39.3374 23.1452 39.3374 24.4116 38.5564 25.1926L31.4853 32.2637C31.0948 32.6542 30.4616 32.6542 30.0711 32.2637C29.6806 31.8731 29.6806 31.24 30.0711 30.8495L37.1422 23.7784L30.0711 16.7073C29.6806 16.3168 29.6806 15.6836 30.0711 15.2931Z" fill="url(#paint1_linear_2744_83691)"/>
<defs>
<linearGradient id="paint0_linear_2744_83691" x1="6" y1="8.5" x2="39.5" y2="37.5" gradientUnits="userSpaceOnUse">
<stop stop-color="#FF0C01"/>
<stop offset="1" stop-color="#FED607"/>
</linearGradient>
<linearGradient id="paint1_linear_2744_83691" x1="9.5" y1="14.0002" x2="38" y2="35.5002" gradientUnits="userSpaceOnUse">
<stop stop-color="#FF3B02"/>
<stop offset="1" stop-color="#FED507"/>
</linearGradient>
</defs>
</svg>
