<svg width="46" height="46" viewBox="0 0 46 46" fill="none" xmlns="http://www.w3.org/2000/svg">
<path d="M30.5994 10C31.398 10 32.2003 10.5998 32.4009 11.4002L35.6007 21.0009C35.8505 21.2746 35.9924 21.6296 36 22V33.0009C36 34.5998 34.5997 36 32.9989 36H12.9974C11.3984 36 10 34.5998 10 33.0009V22C10 21.6007 10.2006 21.2015 10.3993 21.0009L13.5991 11.4002C13.7979 10.6017 14.5983 10 15.3987 10H30.5994ZM17.9987 22H11.9983V33.0009C11.9983 33.6007 12.3976 34 12.9974 34H32.9989C33.6006 34 33.9999 33.6007 33.9999 33.0009V22H27.9994V26C27.9994 27.1996 27.2009 28 25.9993 28H19.9989C18.7991 28 17.9987 27.2015 17.9987 26V22ZM25.9993 22H19.9989V26H25.9993V22ZM15.3987 12L12.7987 20H18.398L19.1984 15.5989C19.399 14.5998 20.1994 14 21.1986 14H24.8014C25.6 14 26.4004 14.5998 26.6029 15.6007L27.602 20H33.2013L30.6013 12H15.3987ZM24.6009 16H21.1986L20.4 20H25.3994L24.6009 16Z" fill="url(#paint0_linear_2748_83696)"/>
<path fill-rule="evenodd" clip-rule="evenodd" d="M23 44C34.598 44 44 34.598 44 23C44 11.402 34.598 2 23 2C11.402 2 2 11.402 2 23C2 34.598 11.402 44 23 44ZM23 46C35.7025 46 46 35.7025 46 23C46 10.2975 35.7025 0 23 0C10.2975 0 0 10.2975 0 23C0 35.7025 10.2975 46 23 46Z" fill="url(#paint1_linear_2748_83696)"/>
<defs>
<linearGradient id="paint0_linear_2748_83696" x1="4.42308" y1="2.65385" x2="43.3462" y2="43.3462" gradientUnits="userSpaceOnUse">
<stop stop-color="#EF0981"/>
<stop offset="1" stop-color="#AF48E8"/>
</linearGradient>
<linearGradient id="paint1_linear_2748_83696" x1="6.5" y1="8" x2="39" y2="37.5" gradientUnits="userSpaceOnUse">
<stop stop-color="#ED0B84"/>
<stop offset="1" stop-color="#B048E7"/>
</linearGradient>
</defs>
</svg>
