<svg width="46" height="46" viewBox="0 0 46 46" fill="none" xmlns="http://www.w3.org/2000/svg">
<path fill-rule="evenodd" clip-rule="evenodd" d="M44 23C44 34.598 34.598 44 23 44C11.402 44 2 34.598 2 23C2 11.402 11.402 2 23 2C34.598 2 44 11.402 44 23ZM46 23C46 35.7025 35.7025 46 23 46C10.2975 46 0 35.7025 0 23C0 10.2975 10.2975 0 23 0C35.7025 0 46 10.2975 46 23ZM13.1562 17.8438H25.3438C26.8944 17.8438 28.1562 19.1056 28.1562 20.6562V32.8438C28.1562 34.3944 26.8944 35.6562 25.3438 35.6562H13.1562C11.6056 35.6562 10.3438 34.3944 10.3438 32.8438V20.6562C10.3438 19.1056 11.6056 17.8438 13.1562 17.8438ZM26.0067 33.5067C26.1825 33.3308 26.2812 33.0924 26.2812 32.8438V20.6562C26.2812 20.1397 25.8612 19.7188 25.3438 19.7188H13.1562C12.6397 19.7188 12.2188 20.1397 12.2188 20.6562V32.8438C12.2188 33.3613 12.6397 33.7812 13.1562 33.7812H25.3438C25.5924 33.7812 25.8308 33.6825 26.0067 33.5067ZM29.0938 14.0938H16.9062C16.6576 14.0938 16.4192 14.1925 16.2433 14.3683C16.0675 14.5442 15.9688 14.7826 15.9688 15.0312C15.9688 15.2799 16.0675 15.5183 16.2433 15.6942C16.4192 15.87 16.6576 15.9688 16.9062 15.9688H29.0938C29.6112 15.9688 30.0312 16.3897 30.0312 16.9062V29.0938C30.0312 29.3424 30.13 29.5808 30.3058 29.7567C30.4817 29.9325 30.7201 30.0312 30.9688 30.0312C31.2174 30.0312 31.4558 29.9325 31.6317 29.7567C31.8075 29.5808 31.9062 29.3424 31.9062 29.0938V16.9062C31.9062 15.3556 30.6444 14.0938 29.0938 14.0938ZM23.4688 30.0312H15.0312C14.7826 30.0312 14.5442 30.13 14.3683 30.3058C14.1925 30.4817 14.0938 30.7201 14.0938 30.9688C14.0938 31.2174 14.1925 31.4558 14.3683 31.6317C14.5442 31.8075 14.7826 31.9062 15.0312 31.9062H23.4688C23.7174 31.9062 23.9558 31.8075 24.1317 31.6317C24.3075 31.4558 24.4062 31.2174 24.4062 30.9688C24.4062 30.7201 24.3075 30.4817 24.1317 30.3058C23.9558 30.13 23.7174 30.0312 23.4688 30.0312ZM20.6562 10.3438H32.8438C34.3944 10.3438 35.6562 11.6056 35.6562 13.1562V25.3438C35.6562 25.5924 35.5575 25.8308 35.3817 26.0067C35.2058 26.1825 34.9674 26.2812 34.7188 26.2812C34.4701 26.2812 34.2317 26.1825 34.0558 26.0067C33.88 25.8308 33.7812 25.5924 33.7812 25.3438V13.1562C33.7812 12.6397 33.3613 12.2188 32.8438 12.2188H20.6562C20.4076 12.2188 20.1692 12.12 19.9933 11.9442C19.8175 11.7683 19.7188 11.5299 19.7188 11.2812C19.7188 11.0326 19.8175 10.7942 19.9933 10.6183C20.1692 10.4425 20.4076 10.3438 20.6562 10.3438Z" fill="url(#paint0_linear_2362_69007)"/>
<defs>
<linearGradient id="paint0_linear_2362_69007" x1="7.5" y1="6" x2="40" y2="37.5" gradientUnits="userSpaceOnUse">
<stop stop-color="#3CC071"/>
<stop offset="1" stop-color="#7BDDFC"/>
</linearGradient>
</defs>
</svg>
