<svg width="16" height="16" viewBox="0 0 16 16" fill="none" xmlns="http://www.w3.org/2000/svg">
<path fill-rule="evenodd" clip-rule="evenodd" d="M2.39995 1.8999C2.39995 1.62376 2.62381 1.3999 2.89995 1.3999H13.1C13.3761 1.3999 13.6 1.62376 13.6 1.8999C13.6 2.17604 13.3761 2.3999 13.1 2.3999H11.9999V2.5999V3.80009C11.9999 5.53957 10.8757 7.07964 9.21903 7.60979L9.1764 7.62343L9.35481 7.68765C10.9418 8.25898 11.9999 9.76446 11.9999 11.4512V13.3999V13.5999H13.0999C13.376 13.5999 13.5999 13.8238 13.5999 14.0999C13.5999 14.376 13.376 14.5999 13.0999 14.5999L2.8999 14.5999C2.62376 14.5999 2.3999 14.376 2.3999 14.0999C2.3999 13.8238 2.62376 13.5999 2.8999 13.5999H3.99993V13.3999L3.99993 11.4512C3.99993 9.76446 5.05802 8.25898 6.64505 7.68765L6.82345 7.62343L6.78083 7.60979C5.12411 7.07964 3.99993 5.53957 3.99993 3.80009V2.5999V2.3999H2.89995C2.62381 2.3999 2.39995 2.17604 2.39995 1.8999ZM4.99993 2.5999H10.9999V3.80009C10.9999 5.1047 10.1568 6.25975 8.91425 6.65736L7.99993 6.94995L7.0856 6.65736C5.84306 6.25975 4.99993 5.1047 4.99993 3.80009V2.5999ZM10.9999 13.3999L4.99993 13.3999L4.99993 11.4512C4.99993 10.1861 5.79349 9.05704 6.98377 8.62854L7.99993 8.26272L9.01609 8.62854C10.2064 9.05704 10.9999 10.1861 10.9999 11.4512V13.3999Z" />
</svg>
