<svg viewBox="0 0 16 16" fill="none" xmlns="http://www.w3.org/2000/svg">
<path d="M11.77 6.66699C10.193 6.66699 8.94458 7.20535 8.02466 8.3036C7.10474 9.33725 6.66669 10.6508 6.66669 12.2875C6.66669 13.9025 7.10474 15.2161 8.02466 16.2498C8.94458 17.3049 10.193 17.8433 11.77 17.8433C13.4785 17.8433 14.7488 17.0896 15.5811 15.6037V17.5634C15.5811 20.0183 14.4422 21.2673 12.1643 21.2673C11.1349 21.2673 10.3683 21.0735 9.8645 20.7074C9.36073 20.3628 9.03219 19.8029 8.90077 19.0492H7.14855C7.34567 20.2551 7.84944 21.1596 8.65984 21.7626C9.44834 22.3655 10.6311 22.667 12.1643 22.667C15.603 22.667 17.3334 20.8796 17.3334 17.3265V6.96847H15.5811V8.88503C14.7488 7.39916 13.4785 6.66699 11.77 6.66699ZM12.0329 8.08826C13.1499 8.08826 14.026 8.47588 14.6831 9.29418C15.2964 10.0263 15.603 11.0385 15.603 12.2875C15.603 13.4934 15.2964 14.484 14.6831 15.2377C14.026 16.0129 13.1499 16.4005 12.011 16.4005C10.7844 16.4005 9.8864 15.9698 9.27312 15.1515C8.72555 14.4193 8.46272 13.4503 8.46272 12.2875C8.46272 11.0385 8.76936 10.0263 9.38264 9.29418C10.0178 8.47588 10.8939 8.08826 12.0329 8.08826Z" />
<path fill-rule="evenodd" clip-rule="evenodd" d="M7.63636 5.33301L4 3.33301L7.63636 1.33301L7.63636 2.9866L16.3636 2.9866L16.3636 1.33301L20 3.33301L16.3636 5.33301L16.3636 3.67942L7.63636 3.67942L7.63636 5.33301Z" />
</svg>
