<svg width="562" height="345" viewBox="0 0 562 345" fill="none" xmlns="http://www.w3.org/2000/svg">
<g clip-path="url(#clip0_831_24996)">
<path d="M470.336 282.819H91.6642C83.5658 282.819 76.9771 276.23 76.9771 268.131V222.552H485.023V268.131C485.023 276.23 478.435 282.819 470.336 282.819Z" fill="#E6E6E6"/>
<path d="M330.009 275.194H233.443V344.174H330.009V275.194Z" fill="#E6E6E6"/>
<path d="M335.818 335.461H227.635V344.174H335.818V335.461Z" fill="#E6E6E6"/>
<path d="M484.66 241.793H76.9771V10.0797C76.9771 4.52186 81.4986 0 87.0561 0H474.581C480.139 0 484.66 4.52186 484.66 10.0797V241.793Z" fill="#3F3D56"/>
<path d="M281.726 8.35036C283.33 8.35036 284.63 7.05 284.63 5.44593C284.63 3.84186 283.33 2.5415 281.726 2.5415C280.122 2.5415 278.822 3.84186 278.822 5.44593C278.822 7.05 280.122 8.35036 281.726 8.35036Z" fill="white"/>
<path d="M474.858 10.5283H86.4155V229.086H474.858V10.5283Z" fill="white"/>
<path d="M429.396 175.653C447.687 175.653 462.515 160.824 462.515 142.532C462.515 124.24 447.687 109.411 429.396 109.411C411.106 109.411 396.278 124.24 396.278 142.532C396.278 160.824 411.106 175.653 429.396 175.653Z" fill="#EC663C"/>
<path d="M562 344.39C562 344.727 561.727 345 561.39 345H0V343.78H561.39C561.727 343.78 562 344.053 562 344.39Z" fill="#E6E6E6"/>
<path d="M95.0797 137.715L90.895 152.363L107.634 153.409L106.588 136.146L95.0797 137.715Z" fill="#FFB6B6"/>
<path d="M164.62 197.509C168.592 198.865 172.511 197.914 173.374 195.386C174.237 192.858 171.716 189.71 167.742 188.354C166.162 187.79 164.47 187.613 162.808 187.838L145.905 182.304L143.478 190.292L160.398 194.899C161.577 196.094 163.024 196.988 164.62 197.509Z" fill="#FFB6B6"/>
<path d="M108.531 149.114C108.531 149.114 98.0528 161.72 104.114 166.936C110.176 172.152 137.246 191.46 137.246 191.46L147.799 193.104L150.498 182.902L126.669 165.244L108.531 149.114H108.531Z" fill="#EC663C"/>
<path d="M136.293 283.312L142.116 304.893L151.364 303.181L149.309 280.915L136.293 283.312Z" fill="#FFB6B6"/>
<path d="M143.486 303.523L140.061 304.208L137.321 313.457C137.321 313.457 141.774 315.17 141.774 318.596C141.774 322.021 143.486 324.419 150.337 324.076C157.188 323.734 157.873 324.076 157.873 321.336C157.873 318.596 152.735 304.208 152.735 304.208C152.735 304.208 153.077 298.385 148.967 298.727C144.856 299.07 143.486 303.523 143.486 303.523H143.486Z" fill="#2F2E41"/>
<path d="M104.98 282.977L105.378 305.326L114.765 305.915L118.189 283.818L104.98 282.977Z" fill="#FFB6B6"/>
<path d="M107.04 304.33L103.551 304.161L98.6426 312.465C98.6426 312.465 102.545 315.21 101.711 318.533C100.878 321.855 101.956 324.598 108.684 325.932C115.412 327.267 115.993 327.766 116.66 325.108C117.327 322.45 115.844 307.245 115.844 307.245C115.844 307.245 117.593 301.68 113.522 301.012C109.452 300.344 107.04 304.33 107.04 304.33Z" fill="#2F2E41"/>
<path d="M108.891 149.374L90.3939 148.004L86.2835 153.142C86.2835 153.142 84.2283 187.74 85.5984 191.166C86.9685 194.591 85.941 214.117 85.941 214.117L132.57 210.862L122.249 186.027L122.592 171.64L113.343 154.17L108.891 149.374L108.891 149.374Z" fill="#EC663C"/>
<path d="M87.996 206.923C87.996 206.923 80.4603 217.885 83.2005 223.708C85.9408 229.531 104.528 263.344 104.528 263.344L102.13 294.859L118.572 293.489L121.312 259.576L109.918 231.929L111.973 228.846L129.1 249.742L135.265 286.053L151.707 283.997L142.801 230.902L132.393 210.437L87.996 206.923H87.996Z" fill="#2F2E41"/>
<path d="M86.386 128.396C89.8933 128.396 92.7364 125.553 92.7364 122.045C92.7364 118.538 89.8933 115.694 86.386 115.694C82.8788 115.694 80.0356 118.538 80.0356 122.045C80.0356 125.553 82.8788 128.396 86.386 128.396Z" fill="#2F2E41"/>
<path d="M101.052 145.589C108.69 145.589 114.882 139.397 114.882 131.759C114.882 124.12 108.69 117.928 101.052 117.928C93.4139 117.928 87.2222 124.12 87.2222 131.759C87.2222 139.397 93.4139 145.589 101.052 145.589Z" fill="#FFB6B6"/>
<path d="M96.6668 146.921C95.197 147.7 91.061 144.841 89.5812 141.011C88.6292 138.546 86.3147 138.956 84.8377 135.883C83.9771 134.092 86.547 132.34 86.1231 130.792C85.3551 127.987 86.318 125.477 86.4407 125.169C87.4996 122.515 89.0606 122.576 90.3194 119.487C91.0772 117.627 90.5911 117.409 91.2281 116.457C93.0665 113.711 98.4007 113.607 102.163 114.905C103.465 115.355 106.601 112.947 109.146 114.691C112.145 116.747 114.141 122.671 113.682 123.757C113.403 124.417 111.85 123.745 108.621 124.252C105.631 124.722 109.577 126.956 106.212 127.718C102.233 128.618 101.035 127.796 99.932 129.055C98.7663 130.386 98.5508 133.079 99.6144 134.678C100.142 135.471 100.823 135.751 100.738 136.304C100.582 137.312 99.6865 136.764 99.3929 137.833C99.0513 139.077 101.885 140.708 101.639 141.084C101.589 141.16 101.377 141.242 98.6098 140.175C97.5048 139.749 97.0787 139.382 96.9548 139.518C96.7541 139.738 95.7605 141.947 96.8895 142.886C98.6463 144.348 97.4287 144.929 98.2296 146.073C99.0558 147.254 97.601 146.427 96.6668 146.921V146.921Z" fill="#2F2E41"/>
<path d="M99.9048 226.832C102.112 230.403 105.743 232.158 108.015 230.753C110.287 229.348 110.339 225.315 108.13 221.744C107.268 220.305 106.073 219.094 104.647 218.211L95.104 203.202L88.1562 207.83L98.3012 222.136C98.453 223.807 99.0029 225.417 99.9048 226.832Z" fill="#FFB6B6"/>
<path d="M87.3111 153.827C87.3111 153.827 71.2121 156.91 72.5823 164.789C73.9524 172.668 82.6008 204.775 82.6008 204.775L89.7088 212.746L98.2721 206.58L91.079 177.806L87.3111 153.827V153.827Z" fill="#EC663C"/>
<path d="M467.565 160.407C466.932 159.34 464.193 160.483 463.69 159.514C463.188 158.548 465.733 157.078 467.186 153.717C467.449 153.111 469.101 149.293 467.878 148.114C465.559 145.881 454.951 155.098 451.238 152.082C450.423 151.42 449.854 150.098 447.388 147.953C446.407 147.099 445.814 146.714 445.24 146.857C444.425 147.061 444.361 148.151 443.487 150.295C442.177 153.51 441.403 153.316 440.639 155.881C440.073 157.785 440.202 158.892 439.535 159.108C438.592 159.413 437.724 157.393 436.528 157.574C435.308 157.759 434.57 160.11 434.337 161.871C433.9 165.175 435.113 167.355 435.786 169.648C436.516 172.139 436.95 175.928 435.262 181.292L418.558 228.359C422.246 218.701 432.924 192.226 437.411 182.387C438.706 179.547 440.136 176.666 443.073 175.529C445.9 174.434 449.783 175.088 454.733 173.895C455.311 173.756 456.915 173.348 457.117 172.404C457.284 171.624 456.341 171.189 456.486 170.458C456.68 169.478 458.536 169.466 460.816 168.335C462.424 167.538 463.426 166.589 464.287 165.774C464.547 165.528 468.408 161.828 467.565 160.407H467.565L467.565 160.407Z" fill="#E6E6E6"/>
<path d="M401.845 185.185C401.139 185.188 400.909 186.862 400.289 186.83C399.67 186.798 399.682 185.124 398.453 183.441C398.231 183.138 396.834 181.225 395.903 181.485C394.138 181.979 395.6 189.845 393.048 190.797C392.489 191.006 391.676 190.904 389.911 191.496C389.209 191.731 388.849 191.911 388.754 192.234C388.619 192.692 389.135 193.039 389.935 194.086C391.135 195.657 390.816 195.981 391.855 197.096C392.626 197.923 393.207 198.179 393.12 198.569C392.998 199.12 391.756 198.963 391.5 199.602C391.238 200.254 392.179 201.295 392.976 201.917C394.472 203.085 395.892 203.119 397.211 203.45C398.644 203.81 400.629 204.691 402.774 207.067L421.054 228.846C417.378 224.249 407.466 211.369 403.932 206.328C402.912 204.873 401.911 203.34 402.2 201.57C402.478 199.867 403.92 198.15 404.762 195.376C404.861 195.052 405.123 194.147 404.719 193.775C404.384 193.468 403.898 193.806 403.581 193.524C403.156 193.145 403.686 192.231 403.789 190.786C403.861 189.766 403.685 189.001 403.533 188.343C403.488 188.144 402.786 185.182 401.845 185.185V185.185Z" fill="#E6E6E6"/>
<path d="M415.942 188.35L415.516 184.549L415.711 184.261C416.611 182.929 417.069 181.628 417.075 180.393C417.076 180.196 417.067 180 417.058 179.8C417.021 179.007 416.975 178.022 417.489 176.873C417.777 176.232 418.586 174.75 419.803 174.933C420.13 174.979 420.378 175.13 420.566 175.306C420.594 175.262 420.622 175.218 420.652 175.17C421.031 174.592 421.331 174.344 421.62 174.106C421.842 173.922 422.072 173.733 422.431 173.285C422.589 173.089 422.712 172.916 422.816 172.771C423.131 172.333 423.542 171.81 424.266 171.819C425.041 171.856 425.446 172.496 425.715 172.92C426.195 173.676 426.412 174.221 426.556 174.583C426.609 174.715 426.668 174.863 426.699 174.909C426.948 175.276 428.977 174.933 429.741 174.808C431.458 174.522 432.943 174.274 433.555 175.357C433.994 176.131 433.668 177.156 432.558 178.482C432.212 178.895 431.844 179.209 431.517 179.455C431.788 179.616 432.03 179.864 432.129 180.253C432.36 181.174 431.568 182.098 429.776 183C429.331 183.226 428.732 183.527 427.892 183.672C427.497 183.74 427.141 183.757 426.836 183.766C426.83 183.942 426.789 184.133 426.681 184.329C426.367 184.907 425.711 185.182 424.724 185.116C423.638 185.059 422.743 184.852 421.954 184.67C421.265 184.513 420.672 184.379 420.206 184.41C419.341 184.48 418.675 185.171 417.893 186.069L415.942 188.35H415.942V188.35Z" fill="#E6E6E6"/>
<path d="M417.917 165.721L414.349 167.097L414.021 166.982C412.504 166.449 411.129 166.336 409.933 166.644C409.743 166.693 409.555 166.751 409.364 166.811C408.606 167.047 407.665 167.342 406.423 167.136C405.731 167.02 404.091 166.613 403.96 165.39C403.922 165.061 404.004 164.783 404.127 164.557C404.077 164.541 404.028 164.525 403.974 164.508C403.319 164.288 403.003 164.06 402.699 163.841C402.465 163.673 402.224 163.499 401.7 163.265C401.47 163.162 401.272 163.087 401.105 163.023C400.601 162.83 399.991 162.565 399.816 161.862C399.655 161.103 400.172 160.549 400.513 160.181C401.123 159.525 401.595 159.176 401.908 158.945C402.023 158.861 402.151 158.766 402.188 158.725C402.48 158.39 401.633 156.515 401.319 155.807C400.606 154.219 399.99 152.845 400.882 151.979C401.52 151.358 402.593 151.413 404.158 152.151C404.645 152.381 405.042 152.657 405.363 152.91C405.45 152.608 405.628 152.311 405.98 152.117C406.812 151.66 407.906 152.191 409.234 153.696C409.565 154.069 410.008 154.572 410.361 155.348C410.527 155.713 410.633 156.053 410.719 156.345C410.891 156.307 411.086 156.298 411.304 156.352C411.943 156.51 412.375 157.074 412.562 158.046C412.782 159.111 412.808 160.029 412.833 160.839C412.855 161.545 412.876 162.153 413.024 162.596C413.311 163.415 414.149 163.884 415.215 164.412L417.917 165.721L417.917 165.721Z" fill="#E6E6E6"/>
<path d="M415.942 154.525L415.516 150.724L415.711 150.436C416.611 149.104 417.069 147.803 417.075 146.568C417.076 146.371 417.067 146.175 417.058 145.975C417.021 145.182 416.975 144.197 417.489 143.048C417.777 142.407 418.586 140.924 419.803 141.108C420.13 141.154 420.378 141.304 420.566 141.481C420.594 141.436 420.622 141.392 420.652 141.345C421.031 140.767 421.331 140.519 421.62 140.28C421.842 140.097 422.072 139.908 422.431 139.46C422.589 139.264 422.712 139.091 422.816 138.946C423.131 138.508 423.542 137.985 424.266 137.994C425.041 138.03 425.446 138.671 425.715 139.095C426.195 139.851 426.412 140.396 426.556 140.757C426.609 140.89 426.668 141.038 426.699 141.084C426.948 141.451 428.977 141.108 429.741 140.983C431.458 140.697 432.943 140.449 433.555 141.532C433.994 142.306 433.668 143.33 432.558 144.657C432.212 145.07 431.844 145.384 431.517 145.63C431.788 145.791 432.03 146.039 432.129 146.428C432.36 147.349 431.568 148.272 429.776 149.175C429.331 149.401 428.732 149.702 427.892 149.847C427.497 149.915 427.141 149.931 426.836 149.941C426.83 150.117 426.789 150.308 426.681 150.504C426.367 151.082 425.711 151.357 424.724 151.291C423.638 151.234 422.743 151.027 421.954 150.845C421.265 150.687 420.672 150.553 420.206 150.585C419.341 150.654 418.675 151.346 417.893 152.244L415.942 154.525H415.942V154.525Z" fill="#E6E6E6"/>
<path d="M419.83 228.297L419.034 227.798L418.841 226.878L419.034 227.798L418.105 227.904C418.091 227.818 418.04 227.62 417.964 227.31C417.548 225.61 416.281 220.439 415.224 212.295C414.487 206.609 414.069 200.765 413.983 194.92C413.897 189.066 414.174 184.634 414.396 181.072C414.564 178.385 414.768 175.827 414.968 173.335C415.5 166.677 416.002 160.388 415.628 153.426C415.546 151.871 415.372 148.636 413.482 145.193C412.386 143.197 410.875 141.424 408.993 139.926L410.163 138.455C412.242 140.11 413.912 142.073 415.13 144.29C417.225 148.107 417.414 151.633 417.505 153.326C417.885 160.412 417.378 166.761 416.84 173.484C416.642 175.966 416.438 178.514 416.271 181.189C416.051 184.718 415.777 189.112 415.862 194.89C415.946 200.665 416.359 206.439 417.087 212.052C418.131 220.094 419.38 225.188 419.79 226.862C420.008 227.756 420.054 227.943 419.83 228.297V228.297Z" fill="#E6E6E6"/>
<path d="M405.546 142.912C405.469 142.912 405.391 142.91 405.313 142.905C403.712 142.819 402.231 141.861 400.908 140.059C400.287 139.211 399.97 138.244 399.337 136.315C399.239 136.018 398.762 134.509 398.472 132.434C398.282 131.077 398.306 130.51 398.574 130.009C398.873 129.451 399.355 129.062 399.898 128.8C399.874 128.62 399.894 128.435 399.972 128.246C400.292 127.462 401.143 127.565 401.604 127.615C401.837 127.644 402.128 127.682 402.442 127.666C402.935 127.642 403.2 127.495 403.602 127.275C403.987 127.064 404.465 126.802 405.174 126.657C406.572 126.365 407.744 126.761 408.13 126.891C410.162 127.569 411.164 129.149 412.324 130.978C412.555 131.345 413.349 132.681 413.873 134.513C414.251 135.834 414.198 136.421 414.084 136.858C413.853 137.755 413.307 138.269 411.92 139.403C410.473 140.591 409.746 141.185 409.122 141.547C407.67 142.385 406.758 142.912 405.546 142.912V142.912V142.912Z" fill="#E6E6E6"/>
<path d="M322.65 195.107H175.211C169.276 195.107 164.447 190.277 164.447 184.342V72.8468C164.447 66.9114 169.276 62.082 175.211 62.082H322.65C328.585 62.082 333.414 66.9114 333.414 72.8468V184.342C333.414 190.277 328.585 195.107 322.65 195.107H322.65Z" fill="white"/>
<path d="M322.65 195.107H175.211C169.276 195.107 164.447 190.277 164.447 184.342V72.8468C164.447 66.9114 169.276 62.082 175.211 62.082H322.65C328.585 62.082 333.414 66.9114 333.414 72.8468V184.342C333.414 190.277 328.585 195.107 322.65 195.107H322.65ZM175.211 63.8797C170.267 63.8797 166.245 67.9024 166.245 72.8468V184.342C166.245 189.286 170.267 193.309 175.211 193.309H322.65C327.594 193.309 331.616 189.286 331.616 184.342V72.8468C331.616 67.9024 327.594 63.8797 322.65 63.8797H175.211Z" fill="#3F3D56"/>
<path d="M306.451 75.5643C307.94 75.5643 309.147 74.357 309.147 72.8678C309.147 71.3786 307.94 70.1714 306.451 70.1714C304.962 70.1714 303.755 71.3786 303.755 72.8678C303.755 74.357 304.962 75.5643 306.451 75.5643Z" fill="#3F3D56"/>
<path d="M313.641 75.5643C315.13 75.5643 316.337 74.357 316.337 72.8678C316.337 71.3786 315.13 70.1714 313.641 70.1714C312.152 70.1714 310.945 71.3786 310.945 72.8678C310.945 74.357 312.152 75.5643 313.641 75.5643Z" fill="#3F3D56"/>
<path d="M320.831 75.5643C322.32 75.5643 323.527 74.357 323.527 72.8678C323.527 71.3786 322.32 70.1714 320.831 70.1714C319.342 70.1714 318.135 71.3786 318.135 72.8678C318.135 74.357 319.342 75.5643 320.831 75.5643Z" fill="#3F3D56"/>
<path d="M179.726 116.46C178.983 116.46 178.378 117.065 178.378 117.809C178.378 118.171 178.518 118.506 178.772 118.754C179.028 119.016 179.364 119.157 179.726 119.157H319.034C319.777 119.157 320.382 118.552 320.382 117.809C320.382 117.446 320.242 117.111 319.988 116.863C319.731 116.601 319.396 116.46 319.034 116.46H179.726Z" fill="#E6E6E6"/>
<path d="M293.869 116.011V119.606H179.726C179.232 119.606 178.783 119.408 178.459 119.076C178.126 118.752 177.929 118.303 177.929 117.808C177.929 116.82 178.738 116.011 179.726 116.011H293.869Z" fill="#EC663C"/>
<path d="M316.787 109.27H298.812C296.83 109.27 295.217 107.657 295.217 105.674C295.217 103.692 296.83 102.079 298.812 102.079H316.787C318.769 102.079 320.382 103.692 320.382 105.674C320.382 107.657 318.769 109.27 316.787 109.27Z" fill="#E6E6E6"/>
<path d="M199.05 90.3946H181.075C179.092 90.3946 177.479 88.7822 177.479 86.7994C177.479 84.8165 179.092 83.2041 181.075 83.2041H199.05C201.032 83.2041 202.645 84.8165 202.645 86.7994C202.645 88.7822 201.032 90.3946 199.05 90.3946Z" fill="#E6E6E6"/>
<path d="M179.726 156.907C178.983 156.907 178.378 157.512 178.378 158.255C178.378 158.618 178.518 158.953 178.772 159.201C179.028 159.463 179.364 159.604 179.726 159.604H319.034C319.777 159.604 320.382 158.999 320.382 158.255C320.382 157.893 320.242 157.558 319.988 157.31C319.731 157.048 319.396 156.907 319.034 156.907H179.726Z" fill="#E6E6E6"/>
<path d="M224.664 156.458V160.053H179.726C179.232 160.053 178.783 159.855 178.459 159.522C178.126 159.199 177.929 158.749 177.929 158.255C177.929 157.266 178.738 156.458 179.726 156.458H224.664Z" fill="#EC663C"/>
<path d="M316.787 149.716H298.812C296.83 149.716 295.217 148.104 295.217 146.121C295.217 144.138 296.83 142.526 298.812 142.526H316.787C318.769 142.526 320.382 144.138 320.382 146.121C320.382 148.104 318.769 149.716 316.787 149.716Z" fill="#E6E6E6"/>
</g>
<defs>
<clipPath id="clip0_831_24996">
<rect width="562" height="345" fill="white"/>
</clipPath>
</defs>
</svg>
