<svg width="159" height="26" viewBox="0 0 159 26" fill="none" xmlns="http://www.w3.org/2000/svg">
<g clip-path="url(#clip0_831_25049)">
<path d="M35.6901 9.70001C35.7346 9.27214 35.8636 8.85735 36.0696 8.4797C36.2755 8.10205 36.5545 7.76905 36.8901 7.50001C37.1993 7.21783 37.5626 7.00141 37.958 6.86389C38.3534 6.72637 38.7726 6.67061 39.1901 6.70001H40.5901L38.2901 24H35.9901C35.5725 23.9825 35.178 23.8032 34.8901 23.5C34.7403 23.3432 34.6339 23.1501 34.5813 22.9397C34.5287 22.7293 34.5317 22.5089 34.5901 22.3L34.6901 21.2C33.8145 22.0627 32.8004 22.7726 31.6901 23.3C30.795 23.7663 29.7994 24.0066 28.7901 24C27.8656 24.0176 26.9471 23.8475 26.0901 23.5C25.4501 23.1715 24.9007 22.6907 24.4901 22.1C24.095 21.4647 23.8552 20.7453 23.7901 20C23.7294 18.9991 23.7629 17.9947 23.8901 17L24.7901 10.2C24.9265 9.22051 25.4262 8.32811 26.1901 7.70001C26.9472 7.06415 27.9015 6.71071 28.8901 6.70001H29.7901L28.4901 16.3C28.3653 16.9252 28.3317 17.5652 28.3901 18.2C28.4901 18.6 28.5901 19 28.6901 19.3C28.8425 19.6023 29.0878 19.8477 29.3901 20C29.7199 20.2046 30.1021 20.3089 30.4901 20.3C31.1367 20.2847 31.7637 20.0757 32.2901 19.7C33.0457 19.1681 33.7489 18.5654 34.3901 17.9L35.6901 9.70001Z" fill="white"/>
<path d="M49.29 12.9001L47.99 22.2001C47.8868 22.7428 47.6052 23.2356 47.19 23.6001C47.0033 23.7747 46.7827 23.9092 46.5419 23.9952C46.3011 24.0812 46.0452 24.1169 45.79 24.1001H43.29L45.39 9.00009C45.4256 8.68679 45.5235 8.3838 45.6781 8.10899C45.8327 7.83418 46.0407 7.59314 46.29 7.40009C46.7633 6.9973 47.3688 6.78362 47.99 6.80009H49.49L49.19 9.50009C50.0756 8.69438 51.0483 7.99002 52.09 7.40009C52.9811 6.92302 53.9795 6.68203 54.99 6.70009C55.8823 6.68161 56.7683 6.85201 57.59 7.20009C58.2215 7.50223 58.7451 7.99089 59.09 8.60008C59.4852 9.23535 59.725 9.9548 59.79 10.7001C59.9025 11.6663 59.8687 12.6439 59.69 13.6001L58.49 24.1001H54.09L55.19 14.3001C55.268 13.7034 55.3014 13.1017 55.29 12.5001C55.19 12.1001 55.09 11.7001 54.99 11.4001C54.8377 11.0978 54.5923 10.8524 54.29 10.7001C53.9015 10.5769 53.4975 10.5095 53.09 10.5001C52.4435 10.5154 51.8164 10.7244 51.29 11.1001C50.5694 11.6372 49.8998 12.2398 49.29 12.9001Z" fill="white"/>
<path d="M68.9902 12.9001L67.6902 22.2001C67.587 22.7428 67.3054 23.2356 66.8902 23.6001C66.7035 23.7747 66.4828 23.9092 66.2421 23.9952C66.0013 24.0812 65.7454 24.1169 65.4902 24.1001H62.9902L65.0902 9.00009C65.1258 8.68679 65.2237 8.3838 65.3783 8.10899C65.5329 7.83418 65.7409 7.59314 65.9902 7.40009C66.4635 6.9973 67.069 6.78362 67.6902 6.80009H69.1902L68.7902 9.50009C69.6758 8.69438 70.6484 7.99002 71.6902 7.40009C72.5813 6.92302 73.5797 6.68203 74.5902 6.70009C75.4825 6.68161 76.3685 6.85201 77.1902 7.20009C77.8217 7.50223 78.3453 7.99089 78.6902 8.60008C79.0853 9.23535 79.3252 9.9548 79.3902 10.7001C79.5026 11.6663 79.4689 12.6439 79.2902 13.6001L78.0902 24.1001H73.6902L74.7902 14.3001C74.8682 13.7034 74.9016 13.1017 74.8902 12.5001C74.7902 12.1001 74.6902 11.7001 74.5902 11.4001C74.4379 11.0978 74.1925 10.8524 73.8902 10.7001C73.5604 10.4955 73.1782 10.3912 72.7902 10.4001C72.1437 10.4154 71.5166 10.6244 70.9902 11.0001C70.2732 11.5782 69.6043 12.2136 68.9902 12.9001Z" fill="white"/>
<path d="M149.19 25.3H119.09C115.69 25.3 113.39 22.4 113.99 18.9L116.09 6.4C116.413 4.66909 117.308 3.09694 118.632 1.9362C119.956 0.775462 121.632 0.0935314 123.39 0H153.49C156.89 0 159.19 2.9 158.59 6.4L156.49 18.9C156.197 20.6443 155.31 22.2337 153.98 23.3998C152.65 24.5658 150.958 25.237 149.19 25.3Z" fill="url(#paint0_linear_831_25049)"/>
<path d="M151.49 8.56014C152.109 9.28743 152.578 10.1303 152.87 11.04C153.162 11.9497 153.271 12.9082 153.19 13.8601C153.175 16.3071 152.248 18.6604 150.59 20.4601C149.826 21.2812 148.896 21.9291 147.861 22.3603C146.826 22.7916 145.71 22.9961 144.59 22.9601C143.654 22.9961 142.721 22.8268 141.857 22.464C140.993 22.1012 140.219 21.5538 139.59 20.8601C138.941 20.1481 138.447 19.3098 138.137 18.3979C137.827 17.4859 137.709 16.5199 137.79 15.5601C137.845 13.151 138.768 10.8428 140.39 9.06014C141.174 8.23173 142.12 7.57345 143.17 7.12617C144.219 6.6789 145.349 6.45219 146.49 6.46013C147.426 6.42686 148.357 6.59745 149.221 6.96005C150.084 7.32266 150.858 7.86863 151.49 8.56014ZM148.19 17.8601C149.118 16.8145 149.617 15.4578 149.59 14.0601C149.683 13.0128 149.359 11.9709 148.69 11.1601C148.378 10.7731 147.982 10.4634 147.531 10.2552C147.079 10.047 146.586 9.94604 146.09 9.96013C145.48 9.96397 144.878 10.1001 144.325 10.359C143.773 10.618 143.283 10.9936 142.89 11.4601C141.964 12.4671 141.462 13.7925 141.49 15.1601C141.402 16.2377 141.723 17.3088 142.39 18.1601C142.69 18.5282 143.073 18.8199 143.507 19.0111C143.942 19.2024 144.416 19.2877 144.89 19.2601C145.514 19.3323 146.146 19.2413 146.725 18.9959C147.303 18.7505 147.808 18.3591 148.19 17.8601Z" fill="white"/>
<path d="M1.08999 23.9H1.38999C1.51744 23.8963 1.64128 23.8568 1.74738 23.7861C1.85347 23.7154 1.93754 23.6162 1.98999 23.5L11.99 10.5L7.18999 10.4L11.59 0H6.28999C5.99574 0.00373351 5.70846 0.0900898 5.46092 0.249222C5.21338 0.408354 5.01555 0.633856 4.88999 0.900002L0.0899887 12.6C0.0267835 12.7452 0.00169894 12.9041 0.0171109 13.0617C0.0325228 13.2193 0.0879211 13.3704 0.178057 13.5006C0.268192 13.6308 0.390078 13.7358 0.532167 13.8057C0.674256 13.8756 0.831841 13.9081 0.989988 13.9H4.18999L0.489988 22.9C0.42806 23.0027 0.395262 23.1202 0.395119 23.2401C0.394975 23.36 0.427491 23.4777 0.489174 23.5805C0.550856 23.6833 0.639376 23.7674 0.745228 23.8236C0.85108 23.8799 0.970267 23.9063 1.08999 23.9Z" fill="url(#paint1_linear_831_25049)"/>
<path d="M22.7902 3.70009C22.6219 2.96295 22.2789 2.27704 21.7902 1.70009C21.4186 1.25057 20.936 0.905867 20.3902 0.700094C19.5576 0.269088 18.6271 0.0623029 17.6902 0.100092H12.7902L11.3902 3.40009H13.1902C13.6592 3.37583 14.1294 3.40941 14.5902 3.50009C14.8902 3.50009 15.1902 3.60009 15.4902 3.60009C15.8443 3.66308 16.1802 3.80325 16.474 4.01064C16.7678 4.21804 17.0123 4.48756 17.1902 4.80009C17.5089 5.4528 17.58 6.19896 17.3902 6.90009C17.3303 7.42956 17.16 7.94056 16.8902 8.40009C16.618 8.84729 16.281 9.25168 15.8902 9.60009C15.4538 9.95068 14.9393 10.1908 14.3902 10.3001C13.9623 10.4223 13.5284 10.5224 13.0902 10.6001L10.4902 14.1001C11.0812 14.2231 11.653 14.4249 12.1902 14.7001C12.5864 14.877 12.9307 15.1524 13.1902 15.5001C13.5023 15.8487 13.7404 16.2569 13.8902 16.7001C14.1217 17.2552 14.322 17.8227 14.4902 18.4001L15.9902 24.1001H20.4902C20.6345 24.1184 20.7809 24.0893 20.9071 24.0172C21.0334 23.945 21.1328 23.8337 21.1902 23.7001C21.3601 23.4704 21.432 23.1827 21.3902 22.9001L19.8902 17.6001C19.6902 17.0001 19.4902 16.5001 19.2902 16.0001C19.0902 15.5001 18.8902 15.1001 18.6902 14.7001C18.5059 14.336 18.2302 14.0259 17.8902 13.8001C17.5993 13.5114 17.2611 13.2746 16.8902 13.1001C17.6575 12.847 18.3951 12.5117 19.0902 12.1001C19.7192 11.7147 20.2914 11.2435 20.7902 10.7001C21.2821 10.1296 21.6865 9.48932 21.9902 8.80009C22.2951 8.06469 22.497 7.29072 22.5902 6.50009C22.8914 5.59845 22.9602 4.63539 22.7902 3.70009Z" fill="white"/>
<path d="M110.85 6.49998C111.093 6.51906 111.334 6.55921 111.57 6.61998C112.068 6.75554 112.551 6.94324 113.01 7.17998C112.87 7.42998 112.71 7.75998 112.51 8.17998C112.31 8.59998 112.12 8.99998 111.92 9.41998C111.72 9.83998 111.48 10.35 111.21 10.94L110.74 10.76C110.61 10.71 110.48 10.68 110.34 10.64C110.091 10.5841 109.835 10.5639 109.58 10.58C109.297 10.5798 109.017 10.6271 108.75 10.72C108.46 10.8374 108.185 10.9884 107.93 11.17C107.601 11.429 107.291 11.7096 107 12.01C106.614 12.4203 106.25 12.8509 105.91 13.3L104.84 20.89C104.723 21.7117 104.315 22.4641 103.69 23.01C103.077 23.5484 102.286 23.8405 101.47 23.83H100.09L102.17 8.93998C102.257 8.37458 102.54 7.85781 102.97 7.47998C103.393 7.10189 103.943 6.89819 104.51 6.90998H106.18L105.82 9.39998C106.243 8.8927 106.694 8.40867 107.17 7.94998C107.534 7.62062 107.925 7.32287 108.34 7.05998C108.941 6.6866 109.633 6.48593 110.34 6.47998L110.85 6.49998Z" fill="white"/>
<path d="M92.3901 20.7501C92.6068 20.7156 92.8207 20.6655 93.0301 20.6001C93.5159 20.4762 94.03 20.5294 94.4801 20.7501C94.9327 20.9729 95.2883 21.3534 95.4801 21.8201L95.9101 22.8201C95.7901 22.8901 95.6201 22.9701 95.4001 23.0701L94.5101 23.4201C94.1852 23.5489 93.8509 23.6525 93.5101 23.7301C92.911 23.8855 92.3033 24.0057 91.6901 24.0901C90.9847 24.1919 90.2728 24.242 89.5601 24.2401C88.3619 24.2654 87.1681 24.0861 86.0301 23.7101C85.1184 23.4149 84.3032 22.8795 83.6701 22.1601C83.0437 21.394 82.6298 20.4766 82.4701 19.5001C82.1482 16.9671 82.5251 14.3943 83.5601 12.0601C84.027 11.0196 84.6812 10.0739 85.4901 9.27005C86.2698 8.50474 87.1946 7.90296 88.2101 7.50005C89.2887 7.10296 90.4308 6.90639 91.5801 6.92005C92.6736 6.89008 93.7619 7.08053 94.7801 7.48005C95.5773 7.81148 96.2689 8.35434 96.7801 9.05005C97.2962 9.75357 97.6389 10.569 97.7801 11.4301C97.9246 12.4248 97.9246 13.4353 97.7801 14.4301L97.7101 15.1101C97.6669 15.5477 97.4806 15.9589 97.1801 16.2801C96.9069 16.5287 96.5495 16.6645 96.1801 16.6601H86.7901C86.7016 17.2501 86.7016 17.85 86.7901 18.4401C86.8589 18.9315 87.0403 19.4003 87.3201 19.8101C87.6315 20.1968 88.0483 20.4851 88.5201 20.6401C89.1172 20.8646 89.7525 20.9699 90.3901 20.9501C91.0617 20.9489 91.7316 20.8819 92.3901 20.7501ZM87.6201 12.3301C87.4151 12.8188 87.2642 13.3285 87.1701 13.8501H93.6401C93.8738 12.8845 93.7569 11.8673 93.3101 10.9801C93.0511 10.6256 92.7026 10.3463 92.3003 10.1706C91.8979 9.99487 91.4562 9.92913 91.0201 9.98005C90.5135 9.9764 90.0121 10.0821 89.5501 10.2901C89.1318 10.4953 88.7553 10.7768 88.4401 11.1201C88.1081 11.4803 87.8317 11.8881 87.6201 12.3301Z" fill="white"/>
<path d="M133.69 2.49986C134.85 2.86825 135.966 3.36112 137.02 3.96986L136.59 5.05986C136.488 5.31674 136.334 5.54976 136.138 5.74424C135.942 5.93873 135.708 6.09045 135.45 6.18986C134.941 6.40042 134.369 6.40042 133.86 6.18986C133.533 6.06153 133.199 5.95137 132.86 5.85986C132.081 5.64731 131.277 5.54631 130.47 5.55986C129.532 5.55029 128.601 5.72352 127.73 6.06986C126.909 6.40096 126.158 6.88638 125.52 7.49986C124.842 8.13998 124.292 8.90363 123.9 9.74986C123.46 10.6544 123.166 11.6232 123.03 12.6199C122.858 13.636 122.858 14.6738 123.03 15.6899C123.185 16.4978 123.528 17.2581 124.03 17.9099C124.501 18.51 125.126 18.97 125.84 19.2399C126.637 19.5588 127.491 19.7152 128.35 19.6999C128.813 19.6969 129.275 19.65 129.73 19.5599C130.2 19.4615 130.657 19.3071 131.09 19.0999L131.91 14.4199H128.09L128.48 12.5799C128.558 12.2189 128.755 11.8947 129.04 11.6599C129.322 11.4294 129.675 11.3024 130.04 11.2999H135.33C135.48 11.2962 135.629 11.3199 135.77 11.3699C135.897 11.4387 136.006 11.5359 136.089 11.6538C136.172 11.7718 136.227 11.9073 136.25 12.0499C136.28 12.2353 136.28 12.4244 136.25 12.6099L134.87 21.6099C134.5 21.7599 134.17 21.8799 133.87 21.9799L132.98 22.3099C132.7 22.4099 132.38 22.4999 131.98 22.5999C131.58 22.6999 131.26 22.7699 130.98 22.8199C130.438 22.9292 129.89 23.0093 129.34 23.0599C128.78 23.0599 128.22 23.1299 127.67 23.1299C126.222 23.1611 124.781 22.9237 123.42 22.4299C122.267 22.0356 121.24 21.343 120.443 20.4225C119.645 19.502 119.106 18.3866 118.88 17.1899C118.587 15.7676 118.553 14.3042 118.78 12.8699C118.978 11.3113 119.445 9.79897 120.16 8.39986C120.806 7.12285 121.692 5.98212 122.77 5.03986C123.73 4.18644 124.834 3.50937 126.03 3.03986H126.1L126.39 2.91986C127.691 2.40812 129.082 2.16327 130.48 2.19986C130.933 2.19986 131.463 2.21986 132.07 2.25986C132.615 2.29543 133.157 2.3757 133.69 2.49986Z" fill="white"/>
</g>
<defs>
<linearGradient id="paint0_linear_831_25049" x1="113.658" y1="12.65" x2="153.791" y2="26.6968" gradientUnits="userSpaceOnUse">
<stop stop-color="#FF951A"/>
<stop offset="1" stop-color="#F95601"/>
</linearGradient>
<linearGradient id="paint1_linear_831_25049" x1="-0.0800108" y1="11.95" x2="12" y2="11.95" gradientUnits="userSpaceOnUse">
<stop stop-color="#FF951A"/>
<stop offset="1" stop-color="#F95601"/>
</linearGradient>
<clipPath id="clip0_831_25049">
<rect width="158.68" height="25.3" fill="white"/>
</clipPath>
</defs>
</svg>
