<svg width="283" height="383" viewBox="0 0 283 383" fill="none" xmlns="http://www.w3.org/2000/svg">
<g opacity="0.15">
<path d="M315.75 137.294L304.768 143.616L293.802 149.938L282.82 156.259L271.854 162.581L260.871 168.903L249.889 175.225L238.923 181.547L227.957 187.869L217.055 194.19L206.073 200.609L198.757 204.812C197.646 205.454 196.724 206.376 196.084 207.486C195.443 208.595 195.106 209.854 195.107 211.134V320.756C195.107 322.034 195.445 323.29 196.086 324.397C196.727 325.504 197.649 326.423 198.758 327.062C199.868 327.701 201.126 328.038 202.408 328.037C203.689 328.037 204.947 327.701 206.057 327.062L217.055 320.659L228.021 314.338L239.004 308.016L249.986 301.694L260.952 295.372L271.934 289.05L282.9 282.728L293.882 276.407L304.849 270.085L315.831 263.667L323.147 259.463C324.255 258.822 325.175 257.903 325.816 256.796C326.456 255.69 326.795 254.435 326.797 253.157V194.11C326.796 192.832 326.459 191.576 325.818 190.469C325.177 189.362 324.255 188.443 323.146 187.804C322.036 187.165 320.777 186.828 319.496 186.829C318.215 186.829 316.956 187.165 315.847 187.804L304.865 194.126L293.898 200.448L282.916 206.77L271.95 213.092L264.618 217.312C263.51 217.952 262.589 218.872 261.949 219.978C261.308 221.085 260.97 222.34 260.968 223.618V232.057C260.968 233.336 261.306 234.592 261.947 235.699C262.588 236.806 263.51 237.725 264.619 238.364C265.729 239.003 266.987 239.339 268.269 239.339C269.55 239.339 270.808 239.002 271.918 238.363L282.9 232.041L293.882 225.719C294.992 225.08 296.251 224.744 297.532 224.744C298.813 224.743 300.072 225.08 301.181 225.719C302.291 226.358 303.212 227.277 303.853 228.384C304.494 229.491 304.832 230.747 304.832 232.025V240.481C304.834 241.76 304.497 243.016 303.856 244.123C303.215 245.23 302.293 246.149 301.182 246.787L293.866 251.007L282.884 257.425L271.902 263.747L260.936 270.069L249.97 276.39L238.987 282.712L227.957 289.05C226.848 289.689 225.589 290.026 224.308 290.026C223.027 290.026 221.768 289.69 220.658 289.051C219.549 288.412 218.627 287.493 217.986 286.386C217.345 285.279 217.008 284.023 217.007 282.744V223.698C217.009 222.42 217.347 221.165 217.988 220.058C218.628 218.952 219.549 218.032 220.657 217.392L227.989 213.172L238.955 206.85L249.938 200.432L260.904 194.126L271.886 187.804L282.82 181.547L293.802 175.129L304.768 168.823L315.75 162.485L323.066 158.281C324.175 157.641 325.095 156.721 325.736 155.615C326.376 154.508 326.714 153.253 326.716 151.975V143.616C326.716 142.337 326.378 141.081 325.737 139.974C325.096 138.867 324.175 137.948 323.065 137.309C321.956 136.67 320.697 136.334 319.416 136.334C318.135 136.334 316.876 136.671 315.766 137.31L315.75 137.294Z" fill="white"/>
<path d="M221.88 133.777L238.94 143.613C242.279 145.537 246.067 146.55 249.923 146.55C253.778 146.55 257.566 145.537 260.905 143.613L271.871 137.291L282.853 130.97L293.835 124.648L304.801 118.326C305.917 117.686 306.844 116.764 307.488 115.653C308.133 114.541 308.472 113.28 308.472 111.996C308.472 110.712 308.133 109.451 307.488 108.339C306.844 107.228 305.917 106.306 304.801 105.666L293.835 99.3443L282.853 93.0224L271.887 86.7006L260.873 80.459L249.89 74.0409L238.924 67.719L227.942 61.3972L217.056 55.0914L206.074 48.7695L195.028 55.0753L184.045 61.4934L173.079 67.7992L162.097 74.0409L151.131 80.459L140.165 86.7808L129.183 93.1027L118.2 99.4245L107.234 105.746V130.97L118.217 124.648L129.183 118.326L140.165 112.004L151.131 105.682L162.113 99.3443L173.095 105.682L184.062 111.988L195.028 118.326L206.01 124.648L217.056 130.97M195.028 80.459L206.01 74.0409L217.056 80.459L228.022 86.7808L239.005 93.1027L249.987 99.4245L260.953 105.746C262.065 106.387 262.988 107.309 263.63 108.418C264.272 109.528 264.61 110.787 264.61 112.068C264.61 113.349 264.272 114.608 263.63 115.718C262.988 116.828 262.065 117.749 260.953 118.39C257.62 120.314 253.837 121.327 249.987 121.327C246.136 121.327 242.354 120.314 239.021 118.39L228.055 112.068L217.056 105.682L206.074 99.3443L195.028 93.0224L184.045 86.7006L195.028 80.459Z" fill="white"/>
<path d="M195.028 179.221V163.176L215.931 147.981C215.931 147.981 231.85 138.418 209.017 126.336C215.818 121.266 211.123 117.527 211.123 117.527L242.189 136.3C242.189 136.3 248.62 152.731 224.373 168.391C200.125 184.051 195.108 187.469 195.108 187.469L195.028 179.221Z" fill="white"/>
<path d="M178.89 17.4941C189.087 11.6194 201.641 11.6194 211.838 17.4941L335.028 88.4674C345.253 94.3583 351.554 105.261 351.554 117.061V258.839C351.554 270.64 345.253 281.542 335.028 287.433L211.838 358.406C201.641 364.281 189.087 364.281 178.89 358.406L55.7001 287.433C45.4751 281.542 39.1738 270.64 39.1738 258.839V117.061C39.1738 105.261 45.4751 94.3583 55.7001 88.4674L178.89 17.4941Z" stroke="url(#paint0_linear_687_42245)" stroke-width="26"/>
<path d="M99.1547 246.134C97.9977 206.89 87.2059 193.738 77.8684 184.876C100.566 191.483 143.167 197.759 139.244 232.704C134.257 277.12 152.198 299.004 165.537 312.299C132.821 306.384 100.146 279.75 99.1547 246.134Z" fill="white"/>
</g>
<defs>
<linearGradient id="paint0_linear_687_42245" x1="360.742" y1="187.043" x2="172.853" y2="187.043" gradientUnits="userSpaceOnUse">
<stop stop-color="white"/>
<stop offset="1" stop-color="white" stop-opacity="0"/>
</linearGradient>
</defs>
</svg>
