<svg width="235" height="65" viewBox="0 0 235 65" fill="none" xmlns="http://www.w3.org/2000/svg">
<path d="M119.843 30.4338C119.889 29.9984 120.021 29.5762 120.231 29.1919C120.442 28.8076 120.728 28.4687 121.071 28.1949C121.388 27.9078 121.759 27.6875 122.164 27.5476C122.569 27.4076 122.998 27.3509 123.425 27.3808H124.858L122.504 44.9863H120.15C119.723 44.9684 119.319 44.786 119.024 44.4774C118.871 44.3179 118.762 44.1214 118.708 43.9073C118.654 43.6932 118.658 43.4688 118.717 43.2563L118.82 42.1368C117.924 43.0148 116.886 43.7371 115.749 44.2739C114.833 44.7484 113.814 44.993 112.781 44.9863C111.835 45.0041 110.895 44.831 110.018 44.4774C109.363 44.1431 108.801 43.6539 108.381 43.0527C107.976 42.4062 107.731 41.6741 107.664 40.9156C107.602 39.897 107.636 38.8749 107.767 37.8627L108.688 30.9426C108.827 29.9458 109.339 29.0377 110.121 28.3985C110.895 27.7514 111.872 27.3917 112.884 27.3808H113.805L112.474 37.1503C112.347 37.7866 112.312 38.4378 112.372 39.0839C112.474 39.4909 112.577 39.898 112.679 40.2033C112.835 40.5109 113.086 40.7606 113.396 40.9156C113.733 41.1239 114.124 41.2299 114.521 41.2209C115.183 41.2054 115.825 40.9927 116.363 40.6104C117.137 40.0691 117.856 39.4557 118.513 38.7786L119.843 30.4338Z" fill="white"/>
<path d="M133.22 33.6839L131.89 43.1481C131.784 43.7004 131.496 44.2019 131.071 44.5728C130.88 44.7505 130.654 44.8874 130.408 44.9749C130.161 45.0624 129.899 45.0988 129.638 45.0817H127.08L129.229 29.715C129.265 29.3962 129.365 29.0879 129.524 28.8082C129.682 28.5285 129.895 28.2832 130.15 28.0868C130.634 27.6769 131.254 27.4594 131.89 27.4762H133.425L133.118 30.2239C134.024 29.4039 135.02 28.6871 136.086 28.0868C136.998 27.6013 138.019 27.3561 139.054 27.3744C139.967 27.3556 140.874 27.529 141.715 27.8833C142.361 28.1907 142.897 28.688 143.25 29.308C143.654 29.9545 143.899 30.6866 143.966 31.4451C144.081 32.4283 144.047 33.4232 143.864 34.3963L142.636 45.0817H138.133L139.258 35.1086C139.338 34.5014 139.372 33.8891 139.361 33.2768C139.258 32.8698 139.156 32.4627 139.054 32.1574C138.898 31.8498 138.647 31.6001 138.337 31.4451C137.94 31.3197 137.526 31.2511 137.109 31.2415C136.447 31.2571 135.806 31.4698 135.267 31.8521C134.529 32.3987 133.844 33.0119 133.22 33.6839Z" fill="white"/>
<path d="M152.665 33.6839L151.335 43.1481C151.229 43.7004 150.941 44.2019 150.516 44.5728C150.325 44.7505 150.099 44.8874 149.853 44.9749C149.606 45.0624 149.345 45.0988 149.083 45.0817H146.525L148.674 29.715C148.71 29.3962 148.811 29.0879 148.969 28.8082C149.127 28.5285 149.34 28.2832 149.595 28.0868C150.08 27.6769 150.699 27.4594 151.335 27.4762H152.87L152.461 30.2239C153.367 29.4039 154.363 28.6871 155.429 28.0868C156.341 27.6013 157.362 27.3561 158.397 27.3744C159.31 27.3556 160.217 27.529 161.058 27.8833C161.704 28.1907 162.24 28.688 162.593 29.308C162.997 29.9545 163.242 30.6866 163.309 31.4451C163.424 32.4283 163.39 33.4232 163.207 34.3963L161.979 45.0817H157.476L158.601 35.1086C158.681 34.5014 158.715 33.8891 158.704 33.2768C158.601 32.8698 158.499 32.4627 158.397 32.1574C158.241 31.8498 157.99 31.6001 157.68 31.4451C157.343 31.2368 156.952 31.1308 156.554 31.1398C155.893 31.1553 155.251 31.368 154.712 31.7504C153.978 32.3387 153.294 32.9853 152.665 33.6839Z" fill="white"/>
<path d="M233.234 29.5143C233.868 30.2544 234.348 31.1121 234.646 32.0379C234.945 32.9637 235.056 33.9391 234.973 34.9079C234.958 37.398 234.009 39.7929 232.313 41.6244C231.531 42.4599 230.579 43.1193 229.52 43.5581C228.46 43.997 227.319 44.2051 226.172 44.1685C225.214 44.2052 224.259 44.0328 223.375 43.6636C222.491 43.2944 221.699 42.7374 221.055 42.0315C220.391 41.3068 219.885 40.4538 219.568 39.5257C219.251 38.5977 219.13 37.6145 219.213 36.6379C219.269 34.1862 220.214 31.8372 221.874 30.0231C222.676 29.1801 223.645 28.5102 224.719 28.055C225.792 27.5998 226.949 27.3691 228.116 27.3772C229.074 27.3433 230.028 27.5169 230.911 27.8859C231.795 28.255 232.587 28.8106 233.234 29.5143ZM229.856 38.9785C230.806 37.9144 231.317 36.5337 231.289 35.1114C231.384 34.0455 231.053 32.9853 230.368 32.1602C230.049 31.7663 229.643 31.4511 229.182 31.2393C228.72 31.0274 228.215 30.9247 227.707 30.939C227.083 30.9429 226.467 31.0814 225.901 31.3449C225.336 31.6084 224.835 31.9908 224.432 32.4655C223.485 33.4902 222.971 34.839 222.999 36.2308C222.909 37.3274 223.238 38.4175 223.92 39.2838C224.227 39.6584 224.619 39.9552 225.064 40.1498C225.509 40.3444 225.994 40.4313 226.479 40.4032C227.118 40.4767 227.765 40.384 228.357 40.1343C228.949 39.8846 229.466 39.4863 229.856 38.9785Z" fill="white"/>
<path d="M83.1514 44.5715H83.4584C83.5888 44.5677 83.7156 44.5276 83.8241 44.4556C83.9327 44.3836 84.0188 44.2827 84.0724 44.1644L94.3067 30.9349L89.3942 30.8331L93.8973 20.2495H88.4732C88.172 20.2533 87.878 20.3412 87.6247 20.5031C87.3713 20.6651 87.1689 20.8946 87.0404 21.1654L82.1279 33.072C82.0632 33.2197 82.0376 33.3815 82.0533 33.5419C82.0691 33.7022 82.1258 33.856 82.2181 33.9885C82.3103 34.1209 82.4351 34.2278 82.5805 34.299C82.7259 34.3701 82.8872 34.4031 83.049 34.3949H86.324L82.5373 43.5539C82.4739 43.6583 82.4404 43.778 82.4402 43.9C82.4401 44.022 82.4733 44.1417 82.5365 44.2464C82.5996 44.351 82.6902 44.4365 82.7985 44.4938C82.9069 44.5511 83.0288 44.578 83.1514 44.5715Z" fill="white"/>
<path d="M105.36 23.9175C105.187 23.1674 104.836 22.4694 104.336 21.8822C103.956 21.4248 103.462 21.074 102.903 20.8646C102.051 20.426 101.099 20.2155 100.14 20.254H95.1254L93.6926 23.6122H95.5347C96.0147 23.5876 96.4959 23.6217 96.9675 23.714C97.2746 23.714 97.5816 23.8158 97.8886 23.8158C98.251 23.8799 98.5947 24.0225 98.8954 24.2336C99.1961 24.4446 99.4463 24.7189 99.6284 25.037C99.9546 25.7012 100.027 26.4605 99.8331 27.174C99.7718 27.7129 99.5974 28.2329 99.3214 28.7005C99.0428 29.1556 98.6979 29.5672 98.298 29.9217C97.8513 30.2785 97.3247 30.5229 96.7628 30.6341C96.3249 30.7584 95.8808 30.8603 95.4324 30.9394L92.7715 34.5012C93.3763 34.6263 93.9615 34.8317 94.5113 35.1118C94.9168 35.2918 95.2691 35.5721 95.5347 35.9259C95.8541 36.2806 96.0978 36.696 96.2511 37.1471C96.488 37.712 96.693 38.2895 96.8652 38.8771L98.4003 44.6777H103.006C103.153 44.6964 103.303 44.6668 103.432 44.5933C103.562 44.5199 103.663 44.4067 103.722 44.2707C103.896 44.0369 103.97 43.7442 103.927 43.4566L102.392 38.063C102.187 37.4524 101.982 36.9436 101.778 36.4347C101.573 35.9259 101.368 35.5188 101.164 35.1118C100.975 34.7412 100.693 34.4256 100.345 34.1959C100.047 33.9021 99.7009 33.6611 99.3214 33.4835C100.107 33.226 100.861 32.8848 101.573 32.4659C102.217 32.0736 102.802 31.5941 103.313 31.0411C103.816 30.4606 104.23 29.809 104.541 29.1076C104.853 28.3592 105.06 27.5716 105.155 26.767C105.463 25.8494 105.534 24.8694 105.36 23.9175Z" fill="white"/>
<path d="M194.379 27.3934C194.628 27.4128 194.874 27.4537 195.116 27.5155C195.626 27.6535 196.12 27.8445 196.59 28.0854C196.447 28.3398 196.283 28.6756 196.078 29.1031C195.873 29.5305 195.679 29.9375 195.474 30.365C195.27 30.7924 195.024 31.3114 194.748 31.9118L194.267 31.7286C194.134 31.6777 194.001 31.6472 193.857 31.6065C193.602 31.5497 193.34 31.5291 193.079 31.5454C192.79 31.5452 192.503 31.5934 192.23 31.6879C191.933 31.8074 191.652 31.9611 191.391 32.1459C191.055 32.4094 190.737 32.695 190.439 33.0007C190.044 33.4183 189.672 33.8565 189.324 34.3135L188.228 42.0375C188.109 42.8737 187.691 43.6394 187.052 44.1949C186.424 44.7428 185.615 45.0401 184.78 45.0294H183.367L185.496 29.8765C185.585 29.3011 185.875 28.7752 186.315 28.3907C186.747 28.0059 187.31 27.7986 187.891 27.8106H189.6L189.231 30.3446C189.665 29.8284 190.126 29.3358 190.613 28.869C190.986 28.5338 191.386 28.2308 191.81 27.9633C192.425 27.5833 193.133 27.3791 193.857 27.373L194.379 27.3934Z" fill="white"/>
<path d="M175.213 41.4504C175.434 41.4153 175.653 41.3643 175.868 41.2977C176.365 41.1717 176.891 41.2258 177.351 41.4504C177.815 41.6772 178.179 42.0644 178.375 42.5392L178.815 43.5569C178.692 43.6281 178.518 43.7096 178.293 43.8113L177.382 44.1675C177.05 44.2986 176.708 44.4041 176.359 44.483C175.746 44.6412 175.124 44.7635 174.496 44.8493C173.774 44.9529 173.046 45.004 172.316 45.002C171.09 45.0277 169.868 44.8453 168.704 44.4626C167.77 44.1623 166.936 43.6174 166.288 42.8853C165.647 42.1057 165.224 41.1721 165.06 40.1783C164.731 37.6006 165.116 34.9823 166.176 32.6069C166.653 31.5481 167.323 30.5857 168.151 29.7677C168.949 28.9888 169.895 28.3764 170.935 27.9664C172.038 27.5623 173.207 27.3623 174.384 27.3762C175.503 27.3457 176.616 27.5395 177.658 27.946C178.474 28.2833 179.182 28.8358 179.705 29.5438C180.234 30.2597 180.584 31.0896 180.729 31.9658C180.877 32.9781 180.877 34.0064 180.729 35.0188L180.657 35.7108C180.613 36.1562 180.422 36.5746 180.115 36.9014C179.835 37.1544 179.469 37.2926 179.091 37.2881H169.481C169.391 37.8886 169.391 38.4991 169.481 39.0996C169.552 39.5996 169.737 40.0768 170.024 40.4938C170.342 40.8874 170.769 41.1808 171.252 41.3384C171.863 41.5669 172.513 41.6741 173.166 41.6539C173.853 41.6527 174.539 41.5845 175.213 41.4504ZM170.331 32.8817C170.121 33.379 169.967 33.8977 169.87 34.4285H176.492C176.731 33.4459 176.611 32.4108 176.154 31.5078C175.889 31.1471 175.532 30.8629 175.121 30.6841C174.709 30.5053 174.257 30.4384 173.81 30.4902C173.292 30.4865 172.779 30.5941 172.306 30.8057C171.878 31.0146 171.493 31.301 171.17 31.6503C170.83 32.0169 170.547 32.432 170.331 32.8817Z" fill="white"/>
<path d="M214.13 23.6112C215.317 23.9861 216.46 24.4876 217.538 25.1071L217.098 26.2164C216.994 26.4778 216.837 26.7149 216.636 26.9128C216.435 27.1108 216.195 27.2652 215.932 27.3663C215.411 27.5806 214.825 27.5806 214.304 27.3663C213.97 27.2357 213.628 27.1236 213.281 27.0305C212.484 26.8142 211.661 26.7114 210.835 26.7252C209.875 26.7155 208.923 26.8918 208.031 27.2442C207.19 27.5812 206.423 28.0751 205.769 28.6995C205.075 29.3509 204.512 30.128 204.111 30.9892C203.661 31.9097 203.36 32.8956 203.221 33.9099C203.045 34.9439 203.045 36 203.221 37.0341C203.38 37.8562 203.73 38.63 204.244 39.2933C204.726 39.904 205.366 40.3721 206.097 40.6468C206.913 40.9713 207.786 41.1305 208.665 41.1149C209.14 41.1118 209.612 41.0641 210.078 40.9724C210.559 40.8723 211.026 40.7151 211.47 40.5043L212.309 35.7416H208.399L208.798 33.8692C208.878 33.5018 209.08 33.1719 209.371 32.9329C209.661 32.6984 210.022 32.5691 210.395 32.5666H215.809C215.962 32.5628 216.115 32.587 216.259 32.6378C216.389 32.7079 216.501 32.8068 216.586 32.9268C216.671 33.0468 216.727 33.1847 216.75 33.3298C216.781 33.5185 216.781 33.711 216.75 33.8997L215.338 43.0586C214.959 43.2112 214.622 43.3334 214.315 43.4351L213.404 43.771C213.117 43.8727 212.79 43.9643 212.38 44.0661C211.971 44.1678 211.643 44.2391 211.357 44.29C210.802 44.4012 210.242 44.4827 209.679 44.5342C209.105 44.5342 208.532 44.6054 207.969 44.6054C206.488 44.6372 205.013 44.3957 203.62 43.8931C202.441 43.4919 201.389 42.787 200.573 41.8503C199.757 40.9136 199.205 39.7784 198.973 38.5606C198.674 37.1132 198.639 35.6239 198.871 34.1643C199.074 32.5782 199.552 31.0392 200.283 29.6154C200.945 28.3158 201.852 27.1549 202.955 26.196C203.938 25.3275 205.067 24.6385 206.291 24.1607H206.363L206.659 24.0386C207.991 23.5178 209.415 23.2686 210.845 23.3059C211.309 23.3059 211.852 23.3262 212.472 23.3669C213.031 23.4031 213.585 23.4848 214.13 23.6112Z" fill="white"/>
<path d="M52.6382 24.055L50.8074 25.109L48.9792 26.1629L47.1484 27.2168L45.3203 28.2707L43.4894 29.3246L41.6586 30.3785L39.8304 31.4324L38.0023 32.4863L36.1849 33.5402L34.354 34.6102L33.1344 35.311C32.9492 35.418 32.7955 35.5717 32.6887 35.7567C32.5819 35.9417 32.5258 36.1514 32.5259 36.3649V54.6398C32.526 54.8529 32.5823 55.0623 32.6891 55.2469C32.7959 55.4314 32.9496 55.5846 33.1346 55.6912C33.3196 55.7977 33.5294 55.8538 33.743 55.8538C33.9566 55.8537 34.1664 55.7976 34.3514 55.6911L36.1849 54.6238L38.013 53.5699L39.8439 52.516L41.6747 51.462L43.5028 50.4081L45.3337 49.3542L47.1618 48.3003L48.9927 47.2464L50.8208 46.1925L52.6516 45.1225L53.8713 44.4217C54.0561 44.315 54.2095 44.1617 54.3163 43.9772C54.4231 43.7927 54.4794 43.5835 54.4798 43.3705V33.5269C54.4797 33.3137 54.4234 33.1044 54.3166 32.9198C54.2097 32.7353 54.0561 32.582 53.8711 32.4755C53.6861 32.369 53.4763 32.3129 53.2627 32.3129C53.0491 32.3129 52.8393 32.3691 52.6543 32.4756L50.8235 33.5295L48.9953 34.5834L47.1645 35.6373L45.3363 36.6913L44.114 37.3948C43.9293 37.5015 43.7758 37.6548 43.669 37.8393C43.5623 38.0237 43.5059 38.233 43.5055 38.446V39.853C43.5056 40.0661 43.5619 40.2755 43.6687 40.46C43.7756 40.6446 43.9292 40.7978 44.1142 40.9043C44.2992 41.0109 44.509 41.0669 44.7226 41.0669C44.9362 41.0669 45.146 41.0108 45.331 40.9042L47.1618 39.8503L48.9927 38.7964C49.1776 38.6898 49.3874 38.6337 49.601 38.6337C49.8146 38.6337 50.0244 38.6898 50.2094 38.7963C50.3944 38.9028 50.5481 39.0561 50.6549 39.2406C50.7618 39.4251 50.818 39.6345 50.8181 39.8476V41.2573C50.8183 41.4705 50.7622 41.6799 50.6553 41.8645C50.5485 42.049 50.3948 42.2022 50.2096 42.3085L48.99 43.012L47.1591 44.082L45.3283 45.1359L43.5002 46.1898L41.672 47.2437L39.8412 48.2976L38.0023 49.3542C37.8173 49.4608 37.6075 49.5169 37.3939 49.5169C37.1803 49.5169 36.9705 49.4609 36.7855 49.3543C36.6005 49.2478 36.4469 49.0946 36.34 48.91C36.2332 48.7255 36.1769 48.5161 36.1768 48.303V38.4594C36.1772 38.2463 36.2336 38.0371 36.3403 37.8526C36.4471 37.6682 36.6006 37.5149 36.7853 37.4081L38.0077 36.7046L39.8358 35.6507L41.6666 34.5808L43.4948 33.5295L45.3256 32.4756L47.1484 31.4324L48.9792 30.3625L50.8074 29.3112L52.6382 28.2546L53.8579 27.5538C54.0427 27.4471 54.1961 27.2938 54.3029 27.1093C54.4097 26.9248 54.466 26.7156 54.4664 26.5026V25.109C54.4663 24.8958 54.41 24.6865 54.3032 24.5019C54.1963 24.3174 54.0427 24.1641 53.8577 24.0576C53.6727 23.9511 53.4629 23.895 53.2493 23.895C53.0357 23.895 52.8259 23.9512 52.6409 24.0577L52.6382 24.055Z" fill="white"/>
<path d="M36.9895 23.469L39.8336 25.1087C40.3902 25.4294 41.0216 25.5982 41.6644 25.5982C42.3071 25.5982 42.9386 25.4294 43.4952 25.1087L45.3234 24.0548L47.1542 23.0009L48.985 21.9469L50.8132 20.893C50.9992 20.7864 51.1537 20.6327 51.2611 20.4474C51.3686 20.2621 51.4252 20.0519 51.4252 19.8378C51.4252 19.6237 51.3686 19.4135 51.2611 19.2282C51.1537 19.0429 50.9992 18.8892 50.8132 18.7825L48.985 17.7286L47.1542 16.6747L45.3261 15.6208L43.4899 14.5803L41.659 13.5103L39.8309 12.4564L38 11.4025L36.1853 10.3513L34.3545 9.29736L32.5129 10.3486L30.6821 11.4186L28.8539 12.4698L27.0231 13.5103L25.1949 14.5803L23.3668 15.6342L21.5359 16.6881L19.7051 17.742L17.877 18.7959V23.0009L19.7078 21.9469L21.5359 20.893L23.3668 19.8391L25.1949 18.7852L27.0258 17.7286L28.8566 18.7852L30.6847 19.8365L32.5129 20.893L34.3437 21.9469L36.1853 23.0009M32.5129 14.5803L34.3437 13.5103L36.1853 14.5803L38.0134 15.6342L39.8443 16.6881L41.6751 17.742L43.5033 18.7959C43.6886 18.9028 43.8425 19.0564 43.9495 19.2414C44.0566 19.4264 44.1129 19.6362 44.1129 19.8498C44.1129 20.0634 44.0566 20.2733 43.9495 20.4583C43.8425 20.6433 43.6886 20.7969 43.5033 20.9037C42.9476 21.2245 42.317 21.3934 41.6751 21.3934C41.0332 21.3934 40.4026 21.2245 39.847 20.9037L38.0188 19.8498L36.1853 18.7852L34.3545 17.7286L32.5129 16.6747L30.6821 15.6208L32.5129 14.5803Z" fill="white"/>
<path d="M32.5132 31.0447V28.3698L35.9979 25.8367C35.9979 25.8367 38.6517 24.2425 34.8453 22.2283C35.9792 21.383 35.1964 20.7598 35.1964 20.7598L40.3753 23.8894C40.3753 23.8894 41.4475 26.6285 37.4052 29.2392C33.3629 31.8499 32.5266 32.4196 32.5266 32.4196L32.5132 31.0447Z" fill="white"/>
<path d="M30.8218 2.73775C31.9033 2.11468 33.2347 2.11468 34.3162 2.73775L57.5218 16.1071C58.6063 16.7319 59.2746 17.8882 59.2746 19.1398V45.8602C59.2746 47.1118 58.6063 48.2681 57.5218 48.8929L34.3162 62.2622C33.2347 62.8853 31.9033 62.8853 30.8218 62.2622L7.6162 48.8929C6.53173 48.2681 5.86342 47.1118 5.86342 45.8602V19.1398C5.86342 17.8882 6.53173 16.7319 7.6162 16.1071L30.8218 2.73775Z" stroke="url(#paint0_linear_687_42266)" stroke-width="3"/>
<path d="M16.5301 42.1997C16.3372 35.6574 14.5381 33.4649 12.9814 31.9875C16.7653 33.089 23.8673 34.1353 23.2132 39.9609C22.3819 47.3655 25.3729 51.0138 27.5966 53.2302C22.1425 52.244 16.6953 47.8039 16.5301 42.1997Z" fill="white"/>
<defs>
<linearGradient id="paint0_linear_687_42266" x1="60.139" y1="32.3488" x2="28.8162" y2="32.3488" gradientUnits="userSpaceOnUse">
<stop stop-color="white"/>
<stop offset="1" stop-color="white" stop-opacity="0"/>
</linearGradient>
</defs>
</svg>
